G75*
%MOIN*%
%OFA0B0*%
%FSLAX25Y25*%
%IPPOS*%
%LPD*%
%AMOC8*
5,1,8,0,0,1.08239X$1,22.5*
%
%ADD10C,0.00500*%
%ADD11C,0.00300*%
%ADD12R,0.32700X0.00300*%
%ADD13R,0.01500X0.00300*%
%ADD14R,0.02700X0.00300*%
%ADD15R,0.03000X0.00300*%
%ADD16R,0.03600X0.00300*%
%ADD17R,0.04200X0.00300*%
%ADD18R,0.04800X0.00300*%
%ADD19R,0.04500X0.00300*%
%ADD20R,0.02100X0.00300*%
%ADD21R,0.01800X0.00300*%
%ADD22R,0.01200X0.00300*%
%ADD23R,0.00600X0.00300*%
%ADD24R,0.00900X0.00300*%
%ADD25R,0.02400X0.00300*%
%ADD26R,0.03300X0.00300*%
%ADD27R,0.05400X0.00300*%
%ADD28R,0.03900X0.00300*%
%ADD29R,0.27000X0.00300*%
%ADD30C,0.00600*%
D10*
X0359846Y0120520D02*
X0360597Y0119770D01*
X0362849Y0119770D01*
X0362849Y0124274D01*
X0360597Y0124274D01*
X0359846Y0123523D01*
X0359846Y0122772D01*
X0360597Y0122022D01*
X0362849Y0122022D01*
X0360597Y0122022D02*
X0359846Y0121271D01*
X0359846Y0120520D01*
X0364417Y0119770D02*
X0365918Y0119770D01*
X0365167Y0119770D02*
X0365167Y0124274D01*
X0364417Y0124274D02*
X0365918Y0124274D01*
X0367519Y0123523D02*
X0368270Y0124274D01*
X0370522Y0124274D01*
X0370522Y0119770D01*
X0368270Y0119770D01*
X0367519Y0120520D01*
X0367519Y0123523D01*
X0376727Y0123523D02*
X0379730Y0120520D01*
X0379730Y0119770D01*
X0376727Y0119770D01*
X0376727Y0123523D02*
X0376727Y0124274D01*
X0379730Y0124274D01*
X0381331Y0124274D02*
X0384334Y0124274D01*
X0384334Y0119770D01*
X0381331Y0119770D01*
X0382832Y0122022D02*
X0384334Y0122022D01*
X0385935Y0124274D02*
X0388938Y0124274D01*
X0388938Y0119770D01*
X0385935Y0119770D01*
X0387436Y0122022D02*
X0388938Y0122022D01*
X0460238Y0115720D02*
X0460238Y0105220D01*
X0528488Y0105220D01*
X0528488Y0115720D01*
X0460238Y0115720D01*
X0461988Y0112745D02*
X0461990Y0112815D01*
X0461996Y0112885D01*
X0462006Y0112954D01*
X0462019Y0113023D01*
X0462037Y0113091D01*
X0462058Y0113158D01*
X0462083Y0113223D01*
X0462112Y0113287D01*
X0462144Y0113350D01*
X0462180Y0113410D01*
X0462219Y0113468D01*
X0462261Y0113524D01*
X0462306Y0113578D01*
X0462354Y0113629D01*
X0462405Y0113677D01*
X0462459Y0113722D01*
X0462515Y0113764D01*
X0462573Y0113803D01*
X0462633Y0113839D01*
X0462696Y0113871D01*
X0462760Y0113900D01*
X0462825Y0113925D01*
X0462892Y0113946D01*
X0462960Y0113964D01*
X0463029Y0113977D01*
X0463098Y0113987D01*
X0463168Y0113993D01*
X0463238Y0113995D01*
X0463308Y0113993D01*
X0463378Y0113987D01*
X0463447Y0113977D01*
X0463516Y0113964D01*
X0463584Y0113946D01*
X0463651Y0113925D01*
X0463716Y0113900D01*
X0463780Y0113871D01*
X0463843Y0113839D01*
X0463903Y0113803D01*
X0463961Y0113764D01*
X0464017Y0113722D01*
X0464071Y0113677D01*
X0464122Y0113629D01*
X0464170Y0113578D01*
X0464215Y0113524D01*
X0464257Y0113468D01*
X0464296Y0113410D01*
X0464332Y0113350D01*
X0464364Y0113287D01*
X0464393Y0113223D01*
X0464418Y0113158D01*
X0464439Y0113091D01*
X0464457Y0113023D01*
X0464470Y0112954D01*
X0464480Y0112885D01*
X0464486Y0112815D01*
X0464488Y0112745D01*
X0464486Y0112675D01*
X0464480Y0112605D01*
X0464470Y0112536D01*
X0464457Y0112467D01*
X0464439Y0112399D01*
X0464418Y0112332D01*
X0464393Y0112267D01*
X0464364Y0112203D01*
X0464332Y0112140D01*
X0464296Y0112080D01*
X0464257Y0112022D01*
X0464215Y0111966D01*
X0464170Y0111912D01*
X0464122Y0111861D01*
X0464071Y0111813D01*
X0464017Y0111768D01*
X0463961Y0111726D01*
X0463903Y0111687D01*
X0463843Y0111651D01*
X0463780Y0111619D01*
X0463716Y0111590D01*
X0463651Y0111565D01*
X0463584Y0111544D01*
X0463516Y0111526D01*
X0463447Y0111513D01*
X0463378Y0111503D01*
X0463308Y0111497D01*
X0463238Y0111495D01*
X0463168Y0111497D01*
X0463098Y0111503D01*
X0463029Y0111513D01*
X0462960Y0111526D01*
X0462892Y0111544D01*
X0462825Y0111565D01*
X0462760Y0111590D01*
X0462696Y0111619D01*
X0462633Y0111651D01*
X0462573Y0111687D01*
X0462515Y0111726D01*
X0462459Y0111768D01*
X0462405Y0111813D01*
X0462354Y0111861D01*
X0462306Y0111912D01*
X0462261Y0111966D01*
X0462219Y0112022D01*
X0462180Y0112080D01*
X0462144Y0112140D01*
X0462112Y0112203D01*
X0462083Y0112267D01*
X0462058Y0112332D01*
X0462037Y0112399D01*
X0462019Y0112467D01*
X0462006Y0112536D01*
X0461996Y0112605D01*
X0461990Y0112675D01*
X0461988Y0112745D01*
X0461988Y0107970D02*
X0461990Y0108040D01*
X0461996Y0108110D01*
X0462006Y0108179D01*
X0462019Y0108248D01*
X0462037Y0108316D01*
X0462058Y0108383D01*
X0462083Y0108448D01*
X0462112Y0108512D01*
X0462144Y0108575D01*
X0462180Y0108635D01*
X0462219Y0108693D01*
X0462261Y0108749D01*
X0462306Y0108803D01*
X0462354Y0108854D01*
X0462405Y0108902D01*
X0462459Y0108947D01*
X0462515Y0108989D01*
X0462573Y0109028D01*
X0462633Y0109064D01*
X0462696Y0109096D01*
X0462760Y0109125D01*
X0462825Y0109150D01*
X0462892Y0109171D01*
X0462960Y0109189D01*
X0463029Y0109202D01*
X0463098Y0109212D01*
X0463168Y0109218D01*
X0463238Y0109220D01*
X0463308Y0109218D01*
X0463378Y0109212D01*
X0463447Y0109202D01*
X0463516Y0109189D01*
X0463584Y0109171D01*
X0463651Y0109150D01*
X0463716Y0109125D01*
X0463780Y0109096D01*
X0463843Y0109064D01*
X0463903Y0109028D01*
X0463961Y0108989D01*
X0464017Y0108947D01*
X0464071Y0108902D01*
X0464122Y0108854D01*
X0464170Y0108803D01*
X0464215Y0108749D01*
X0464257Y0108693D01*
X0464296Y0108635D01*
X0464332Y0108575D01*
X0464364Y0108512D01*
X0464393Y0108448D01*
X0464418Y0108383D01*
X0464439Y0108316D01*
X0464457Y0108248D01*
X0464470Y0108179D01*
X0464480Y0108110D01*
X0464486Y0108040D01*
X0464488Y0107970D01*
X0464486Y0107900D01*
X0464480Y0107830D01*
X0464470Y0107761D01*
X0464457Y0107692D01*
X0464439Y0107624D01*
X0464418Y0107557D01*
X0464393Y0107492D01*
X0464364Y0107428D01*
X0464332Y0107365D01*
X0464296Y0107305D01*
X0464257Y0107247D01*
X0464215Y0107191D01*
X0464170Y0107137D01*
X0464122Y0107086D01*
X0464071Y0107038D01*
X0464017Y0106993D01*
X0463961Y0106951D01*
X0463903Y0106912D01*
X0463843Y0106876D01*
X0463780Y0106844D01*
X0463716Y0106815D01*
X0463651Y0106790D01*
X0463584Y0106769D01*
X0463516Y0106751D01*
X0463447Y0106738D01*
X0463378Y0106728D01*
X0463308Y0106722D01*
X0463238Y0106720D01*
X0463168Y0106722D01*
X0463098Y0106728D01*
X0463029Y0106738D01*
X0462960Y0106751D01*
X0462892Y0106769D01*
X0462825Y0106790D01*
X0462760Y0106815D01*
X0462696Y0106844D01*
X0462633Y0106876D01*
X0462573Y0106912D01*
X0462515Y0106951D01*
X0462459Y0106993D01*
X0462405Y0107038D01*
X0462354Y0107086D01*
X0462306Y0107137D01*
X0462261Y0107191D01*
X0462219Y0107247D01*
X0462180Y0107305D01*
X0462144Y0107365D01*
X0462112Y0107428D01*
X0462083Y0107492D01*
X0462058Y0107557D01*
X0462037Y0107624D01*
X0462019Y0107692D01*
X0462006Y0107761D01*
X0461996Y0107830D01*
X0461990Y0107900D01*
X0461988Y0107970D01*
X0466763Y0107970D02*
X0466765Y0108040D01*
X0466771Y0108110D01*
X0466781Y0108179D01*
X0466794Y0108248D01*
X0466812Y0108316D01*
X0466833Y0108383D01*
X0466858Y0108448D01*
X0466887Y0108512D01*
X0466919Y0108575D01*
X0466955Y0108635D01*
X0466994Y0108693D01*
X0467036Y0108749D01*
X0467081Y0108803D01*
X0467129Y0108854D01*
X0467180Y0108902D01*
X0467234Y0108947D01*
X0467290Y0108989D01*
X0467348Y0109028D01*
X0467408Y0109064D01*
X0467471Y0109096D01*
X0467535Y0109125D01*
X0467600Y0109150D01*
X0467667Y0109171D01*
X0467735Y0109189D01*
X0467804Y0109202D01*
X0467873Y0109212D01*
X0467943Y0109218D01*
X0468013Y0109220D01*
X0468083Y0109218D01*
X0468153Y0109212D01*
X0468222Y0109202D01*
X0468291Y0109189D01*
X0468359Y0109171D01*
X0468426Y0109150D01*
X0468491Y0109125D01*
X0468555Y0109096D01*
X0468618Y0109064D01*
X0468678Y0109028D01*
X0468736Y0108989D01*
X0468792Y0108947D01*
X0468846Y0108902D01*
X0468897Y0108854D01*
X0468945Y0108803D01*
X0468990Y0108749D01*
X0469032Y0108693D01*
X0469071Y0108635D01*
X0469107Y0108575D01*
X0469139Y0108512D01*
X0469168Y0108448D01*
X0469193Y0108383D01*
X0469214Y0108316D01*
X0469232Y0108248D01*
X0469245Y0108179D01*
X0469255Y0108110D01*
X0469261Y0108040D01*
X0469263Y0107970D01*
X0469261Y0107900D01*
X0469255Y0107830D01*
X0469245Y0107761D01*
X0469232Y0107692D01*
X0469214Y0107624D01*
X0469193Y0107557D01*
X0469168Y0107492D01*
X0469139Y0107428D01*
X0469107Y0107365D01*
X0469071Y0107305D01*
X0469032Y0107247D01*
X0468990Y0107191D01*
X0468945Y0107137D01*
X0468897Y0107086D01*
X0468846Y0107038D01*
X0468792Y0106993D01*
X0468736Y0106951D01*
X0468678Y0106912D01*
X0468618Y0106876D01*
X0468555Y0106844D01*
X0468491Y0106815D01*
X0468426Y0106790D01*
X0468359Y0106769D01*
X0468291Y0106751D01*
X0468222Y0106738D01*
X0468153Y0106728D01*
X0468083Y0106722D01*
X0468013Y0106720D01*
X0467943Y0106722D01*
X0467873Y0106728D01*
X0467804Y0106738D01*
X0467735Y0106751D01*
X0467667Y0106769D01*
X0467600Y0106790D01*
X0467535Y0106815D01*
X0467471Y0106844D01*
X0467408Y0106876D01*
X0467348Y0106912D01*
X0467290Y0106951D01*
X0467234Y0106993D01*
X0467180Y0107038D01*
X0467129Y0107086D01*
X0467081Y0107137D01*
X0467036Y0107191D01*
X0466994Y0107247D01*
X0466955Y0107305D01*
X0466919Y0107365D01*
X0466887Y0107428D01*
X0466858Y0107492D01*
X0466833Y0107557D01*
X0466812Y0107624D01*
X0466794Y0107692D01*
X0466781Y0107761D01*
X0466771Y0107830D01*
X0466765Y0107900D01*
X0466763Y0107970D01*
X0466763Y0112745D02*
X0466765Y0112815D01*
X0466771Y0112885D01*
X0466781Y0112954D01*
X0466794Y0113023D01*
X0466812Y0113091D01*
X0466833Y0113158D01*
X0466858Y0113223D01*
X0466887Y0113287D01*
X0466919Y0113350D01*
X0466955Y0113410D01*
X0466994Y0113468D01*
X0467036Y0113524D01*
X0467081Y0113578D01*
X0467129Y0113629D01*
X0467180Y0113677D01*
X0467234Y0113722D01*
X0467290Y0113764D01*
X0467348Y0113803D01*
X0467408Y0113839D01*
X0467471Y0113871D01*
X0467535Y0113900D01*
X0467600Y0113925D01*
X0467667Y0113946D01*
X0467735Y0113964D01*
X0467804Y0113977D01*
X0467873Y0113987D01*
X0467943Y0113993D01*
X0468013Y0113995D01*
X0468083Y0113993D01*
X0468153Y0113987D01*
X0468222Y0113977D01*
X0468291Y0113964D01*
X0468359Y0113946D01*
X0468426Y0113925D01*
X0468491Y0113900D01*
X0468555Y0113871D01*
X0468618Y0113839D01*
X0468678Y0113803D01*
X0468736Y0113764D01*
X0468792Y0113722D01*
X0468846Y0113677D01*
X0468897Y0113629D01*
X0468945Y0113578D01*
X0468990Y0113524D01*
X0469032Y0113468D01*
X0469071Y0113410D01*
X0469107Y0113350D01*
X0469139Y0113287D01*
X0469168Y0113223D01*
X0469193Y0113158D01*
X0469214Y0113091D01*
X0469232Y0113023D01*
X0469245Y0112954D01*
X0469255Y0112885D01*
X0469261Y0112815D01*
X0469263Y0112745D01*
X0469261Y0112675D01*
X0469255Y0112605D01*
X0469245Y0112536D01*
X0469232Y0112467D01*
X0469214Y0112399D01*
X0469193Y0112332D01*
X0469168Y0112267D01*
X0469139Y0112203D01*
X0469107Y0112140D01*
X0469071Y0112080D01*
X0469032Y0112022D01*
X0468990Y0111966D01*
X0468945Y0111912D01*
X0468897Y0111861D01*
X0468846Y0111813D01*
X0468792Y0111768D01*
X0468736Y0111726D01*
X0468678Y0111687D01*
X0468618Y0111651D01*
X0468555Y0111619D01*
X0468491Y0111590D01*
X0468426Y0111565D01*
X0468359Y0111544D01*
X0468291Y0111526D01*
X0468222Y0111513D01*
X0468153Y0111503D01*
X0468083Y0111497D01*
X0468013Y0111495D01*
X0467943Y0111497D01*
X0467873Y0111503D01*
X0467804Y0111513D01*
X0467735Y0111526D01*
X0467667Y0111544D01*
X0467600Y0111565D01*
X0467535Y0111590D01*
X0467471Y0111619D01*
X0467408Y0111651D01*
X0467348Y0111687D01*
X0467290Y0111726D01*
X0467234Y0111768D01*
X0467180Y0111813D01*
X0467129Y0111861D01*
X0467081Y0111912D01*
X0467036Y0111966D01*
X0466994Y0112022D01*
X0466955Y0112080D01*
X0466919Y0112140D01*
X0466887Y0112203D01*
X0466858Y0112267D01*
X0466833Y0112332D01*
X0466812Y0112399D01*
X0466794Y0112467D01*
X0466781Y0112536D01*
X0466771Y0112605D01*
X0466765Y0112675D01*
X0466763Y0112745D01*
X0471538Y0112745D02*
X0471540Y0112815D01*
X0471546Y0112885D01*
X0471556Y0112954D01*
X0471569Y0113023D01*
X0471587Y0113091D01*
X0471608Y0113158D01*
X0471633Y0113223D01*
X0471662Y0113287D01*
X0471694Y0113350D01*
X0471730Y0113410D01*
X0471769Y0113468D01*
X0471811Y0113524D01*
X0471856Y0113578D01*
X0471904Y0113629D01*
X0471955Y0113677D01*
X0472009Y0113722D01*
X0472065Y0113764D01*
X0472123Y0113803D01*
X0472183Y0113839D01*
X0472246Y0113871D01*
X0472310Y0113900D01*
X0472375Y0113925D01*
X0472442Y0113946D01*
X0472510Y0113964D01*
X0472579Y0113977D01*
X0472648Y0113987D01*
X0472718Y0113993D01*
X0472788Y0113995D01*
X0472858Y0113993D01*
X0472928Y0113987D01*
X0472997Y0113977D01*
X0473066Y0113964D01*
X0473134Y0113946D01*
X0473201Y0113925D01*
X0473266Y0113900D01*
X0473330Y0113871D01*
X0473393Y0113839D01*
X0473453Y0113803D01*
X0473511Y0113764D01*
X0473567Y0113722D01*
X0473621Y0113677D01*
X0473672Y0113629D01*
X0473720Y0113578D01*
X0473765Y0113524D01*
X0473807Y0113468D01*
X0473846Y0113410D01*
X0473882Y0113350D01*
X0473914Y0113287D01*
X0473943Y0113223D01*
X0473968Y0113158D01*
X0473989Y0113091D01*
X0474007Y0113023D01*
X0474020Y0112954D01*
X0474030Y0112885D01*
X0474036Y0112815D01*
X0474038Y0112745D01*
X0474036Y0112675D01*
X0474030Y0112605D01*
X0474020Y0112536D01*
X0474007Y0112467D01*
X0473989Y0112399D01*
X0473968Y0112332D01*
X0473943Y0112267D01*
X0473914Y0112203D01*
X0473882Y0112140D01*
X0473846Y0112080D01*
X0473807Y0112022D01*
X0473765Y0111966D01*
X0473720Y0111912D01*
X0473672Y0111861D01*
X0473621Y0111813D01*
X0473567Y0111768D01*
X0473511Y0111726D01*
X0473453Y0111687D01*
X0473393Y0111651D01*
X0473330Y0111619D01*
X0473266Y0111590D01*
X0473201Y0111565D01*
X0473134Y0111544D01*
X0473066Y0111526D01*
X0472997Y0111513D01*
X0472928Y0111503D01*
X0472858Y0111497D01*
X0472788Y0111495D01*
X0472718Y0111497D01*
X0472648Y0111503D01*
X0472579Y0111513D01*
X0472510Y0111526D01*
X0472442Y0111544D01*
X0472375Y0111565D01*
X0472310Y0111590D01*
X0472246Y0111619D01*
X0472183Y0111651D01*
X0472123Y0111687D01*
X0472065Y0111726D01*
X0472009Y0111768D01*
X0471955Y0111813D01*
X0471904Y0111861D01*
X0471856Y0111912D01*
X0471811Y0111966D01*
X0471769Y0112022D01*
X0471730Y0112080D01*
X0471694Y0112140D01*
X0471662Y0112203D01*
X0471633Y0112267D01*
X0471608Y0112332D01*
X0471587Y0112399D01*
X0471569Y0112467D01*
X0471556Y0112536D01*
X0471546Y0112605D01*
X0471540Y0112675D01*
X0471538Y0112745D01*
X0471538Y0107970D02*
X0471540Y0108040D01*
X0471546Y0108110D01*
X0471556Y0108179D01*
X0471569Y0108248D01*
X0471587Y0108316D01*
X0471608Y0108383D01*
X0471633Y0108448D01*
X0471662Y0108512D01*
X0471694Y0108575D01*
X0471730Y0108635D01*
X0471769Y0108693D01*
X0471811Y0108749D01*
X0471856Y0108803D01*
X0471904Y0108854D01*
X0471955Y0108902D01*
X0472009Y0108947D01*
X0472065Y0108989D01*
X0472123Y0109028D01*
X0472183Y0109064D01*
X0472246Y0109096D01*
X0472310Y0109125D01*
X0472375Y0109150D01*
X0472442Y0109171D01*
X0472510Y0109189D01*
X0472579Y0109202D01*
X0472648Y0109212D01*
X0472718Y0109218D01*
X0472788Y0109220D01*
X0472858Y0109218D01*
X0472928Y0109212D01*
X0472997Y0109202D01*
X0473066Y0109189D01*
X0473134Y0109171D01*
X0473201Y0109150D01*
X0473266Y0109125D01*
X0473330Y0109096D01*
X0473393Y0109064D01*
X0473453Y0109028D01*
X0473511Y0108989D01*
X0473567Y0108947D01*
X0473621Y0108902D01*
X0473672Y0108854D01*
X0473720Y0108803D01*
X0473765Y0108749D01*
X0473807Y0108693D01*
X0473846Y0108635D01*
X0473882Y0108575D01*
X0473914Y0108512D01*
X0473943Y0108448D01*
X0473968Y0108383D01*
X0473989Y0108316D01*
X0474007Y0108248D01*
X0474020Y0108179D01*
X0474030Y0108110D01*
X0474036Y0108040D01*
X0474038Y0107970D01*
X0474036Y0107900D01*
X0474030Y0107830D01*
X0474020Y0107761D01*
X0474007Y0107692D01*
X0473989Y0107624D01*
X0473968Y0107557D01*
X0473943Y0107492D01*
X0473914Y0107428D01*
X0473882Y0107365D01*
X0473846Y0107305D01*
X0473807Y0107247D01*
X0473765Y0107191D01*
X0473720Y0107137D01*
X0473672Y0107086D01*
X0473621Y0107038D01*
X0473567Y0106993D01*
X0473511Y0106951D01*
X0473453Y0106912D01*
X0473393Y0106876D01*
X0473330Y0106844D01*
X0473266Y0106815D01*
X0473201Y0106790D01*
X0473134Y0106769D01*
X0473066Y0106751D01*
X0472997Y0106738D01*
X0472928Y0106728D01*
X0472858Y0106722D01*
X0472788Y0106720D01*
X0472718Y0106722D01*
X0472648Y0106728D01*
X0472579Y0106738D01*
X0472510Y0106751D01*
X0472442Y0106769D01*
X0472375Y0106790D01*
X0472310Y0106815D01*
X0472246Y0106844D01*
X0472183Y0106876D01*
X0472123Y0106912D01*
X0472065Y0106951D01*
X0472009Y0106993D01*
X0471955Y0107038D01*
X0471904Y0107086D01*
X0471856Y0107137D01*
X0471811Y0107191D01*
X0471769Y0107247D01*
X0471730Y0107305D01*
X0471694Y0107365D01*
X0471662Y0107428D01*
X0471633Y0107492D01*
X0471608Y0107557D01*
X0471587Y0107624D01*
X0471569Y0107692D01*
X0471556Y0107761D01*
X0471546Y0107830D01*
X0471540Y0107900D01*
X0471538Y0107970D01*
X0476313Y0107970D02*
X0476315Y0108040D01*
X0476321Y0108110D01*
X0476331Y0108179D01*
X0476344Y0108248D01*
X0476362Y0108316D01*
X0476383Y0108383D01*
X0476408Y0108448D01*
X0476437Y0108512D01*
X0476469Y0108575D01*
X0476505Y0108635D01*
X0476544Y0108693D01*
X0476586Y0108749D01*
X0476631Y0108803D01*
X0476679Y0108854D01*
X0476730Y0108902D01*
X0476784Y0108947D01*
X0476840Y0108989D01*
X0476898Y0109028D01*
X0476958Y0109064D01*
X0477021Y0109096D01*
X0477085Y0109125D01*
X0477150Y0109150D01*
X0477217Y0109171D01*
X0477285Y0109189D01*
X0477354Y0109202D01*
X0477423Y0109212D01*
X0477493Y0109218D01*
X0477563Y0109220D01*
X0477633Y0109218D01*
X0477703Y0109212D01*
X0477772Y0109202D01*
X0477841Y0109189D01*
X0477909Y0109171D01*
X0477976Y0109150D01*
X0478041Y0109125D01*
X0478105Y0109096D01*
X0478168Y0109064D01*
X0478228Y0109028D01*
X0478286Y0108989D01*
X0478342Y0108947D01*
X0478396Y0108902D01*
X0478447Y0108854D01*
X0478495Y0108803D01*
X0478540Y0108749D01*
X0478582Y0108693D01*
X0478621Y0108635D01*
X0478657Y0108575D01*
X0478689Y0108512D01*
X0478718Y0108448D01*
X0478743Y0108383D01*
X0478764Y0108316D01*
X0478782Y0108248D01*
X0478795Y0108179D01*
X0478805Y0108110D01*
X0478811Y0108040D01*
X0478813Y0107970D01*
X0478811Y0107900D01*
X0478805Y0107830D01*
X0478795Y0107761D01*
X0478782Y0107692D01*
X0478764Y0107624D01*
X0478743Y0107557D01*
X0478718Y0107492D01*
X0478689Y0107428D01*
X0478657Y0107365D01*
X0478621Y0107305D01*
X0478582Y0107247D01*
X0478540Y0107191D01*
X0478495Y0107137D01*
X0478447Y0107086D01*
X0478396Y0107038D01*
X0478342Y0106993D01*
X0478286Y0106951D01*
X0478228Y0106912D01*
X0478168Y0106876D01*
X0478105Y0106844D01*
X0478041Y0106815D01*
X0477976Y0106790D01*
X0477909Y0106769D01*
X0477841Y0106751D01*
X0477772Y0106738D01*
X0477703Y0106728D01*
X0477633Y0106722D01*
X0477563Y0106720D01*
X0477493Y0106722D01*
X0477423Y0106728D01*
X0477354Y0106738D01*
X0477285Y0106751D01*
X0477217Y0106769D01*
X0477150Y0106790D01*
X0477085Y0106815D01*
X0477021Y0106844D01*
X0476958Y0106876D01*
X0476898Y0106912D01*
X0476840Y0106951D01*
X0476784Y0106993D01*
X0476730Y0107038D01*
X0476679Y0107086D01*
X0476631Y0107137D01*
X0476586Y0107191D01*
X0476544Y0107247D01*
X0476505Y0107305D01*
X0476469Y0107365D01*
X0476437Y0107428D01*
X0476408Y0107492D01*
X0476383Y0107557D01*
X0476362Y0107624D01*
X0476344Y0107692D01*
X0476331Y0107761D01*
X0476321Y0107830D01*
X0476315Y0107900D01*
X0476313Y0107970D01*
X0476313Y0112745D02*
X0476315Y0112815D01*
X0476321Y0112885D01*
X0476331Y0112954D01*
X0476344Y0113023D01*
X0476362Y0113091D01*
X0476383Y0113158D01*
X0476408Y0113223D01*
X0476437Y0113287D01*
X0476469Y0113350D01*
X0476505Y0113410D01*
X0476544Y0113468D01*
X0476586Y0113524D01*
X0476631Y0113578D01*
X0476679Y0113629D01*
X0476730Y0113677D01*
X0476784Y0113722D01*
X0476840Y0113764D01*
X0476898Y0113803D01*
X0476958Y0113839D01*
X0477021Y0113871D01*
X0477085Y0113900D01*
X0477150Y0113925D01*
X0477217Y0113946D01*
X0477285Y0113964D01*
X0477354Y0113977D01*
X0477423Y0113987D01*
X0477493Y0113993D01*
X0477563Y0113995D01*
X0477633Y0113993D01*
X0477703Y0113987D01*
X0477772Y0113977D01*
X0477841Y0113964D01*
X0477909Y0113946D01*
X0477976Y0113925D01*
X0478041Y0113900D01*
X0478105Y0113871D01*
X0478168Y0113839D01*
X0478228Y0113803D01*
X0478286Y0113764D01*
X0478342Y0113722D01*
X0478396Y0113677D01*
X0478447Y0113629D01*
X0478495Y0113578D01*
X0478540Y0113524D01*
X0478582Y0113468D01*
X0478621Y0113410D01*
X0478657Y0113350D01*
X0478689Y0113287D01*
X0478718Y0113223D01*
X0478743Y0113158D01*
X0478764Y0113091D01*
X0478782Y0113023D01*
X0478795Y0112954D01*
X0478805Y0112885D01*
X0478811Y0112815D01*
X0478813Y0112745D01*
X0478811Y0112675D01*
X0478805Y0112605D01*
X0478795Y0112536D01*
X0478782Y0112467D01*
X0478764Y0112399D01*
X0478743Y0112332D01*
X0478718Y0112267D01*
X0478689Y0112203D01*
X0478657Y0112140D01*
X0478621Y0112080D01*
X0478582Y0112022D01*
X0478540Y0111966D01*
X0478495Y0111912D01*
X0478447Y0111861D01*
X0478396Y0111813D01*
X0478342Y0111768D01*
X0478286Y0111726D01*
X0478228Y0111687D01*
X0478168Y0111651D01*
X0478105Y0111619D01*
X0478041Y0111590D01*
X0477976Y0111565D01*
X0477909Y0111544D01*
X0477841Y0111526D01*
X0477772Y0111513D01*
X0477703Y0111503D01*
X0477633Y0111497D01*
X0477563Y0111495D01*
X0477493Y0111497D01*
X0477423Y0111503D01*
X0477354Y0111513D01*
X0477285Y0111526D01*
X0477217Y0111544D01*
X0477150Y0111565D01*
X0477085Y0111590D01*
X0477021Y0111619D01*
X0476958Y0111651D01*
X0476898Y0111687D01*
X0476840Y0111726D01*
X0476784Y0111768D01*
X0476730Y0111813D01*
X0476679Y0111861D01*
X0476631Y0111912D01*
X0476586Y0111966D01*
X0476544Y0112022D01*
X0476505Y0112080D01*
X0476469Y0112140D01*
X0476437Y0112203D01*
X0476408Y0112267D01*
X0476383Y0112332D01*
X0476362Y0112399D01*
X0476344Y0112467D01*
X0476331Y0112536D01*
X0476321Y0112605D01*
X0476315Y0112675D01*
X0476313Y0112745D01*
X0481088Y0112745D02*
X0481090Y0112815D01*
X0481096Y0112885D01*
X0481106Y0112954D01*
X0481119Y0113023D01*
X0481137Y0113091D01*
X0481158Y0113158D01*
X0481183Y0113223D01*
X0481212Y0113287D01*
X0481244Y0113350D01*
X0481280Y0113410D01*
X0481319Y0113468D01*
X0481361Y0113524D01*
X0481406Y0113578D01*
X0481454Y0113629D01*
X0481505Y0113677D01*
X0481559Y0113722D01*
X0481615Y0113764D01*
X0481673Y0113803D01*
X0481733Y0113839D01*
X0481796Y0113871D01*
X0481860Y0113900D01*
X0481925Y0113925D01*
X0481992Y0113946D01*
X0482060Y0113964D01*
X0482129Y0113977D01*
X0482198Y0113987D01*
X0482268Y0113993D01*
X0482338Y0113995D01*
X0482408Y0113993D01*
X0482478Y0113987D01*
X0482547Y0113977D01*
X0482616Y0113964D01*
X0482684Y0113946D01*
X0482751Y0113925D01*
X0482816Y0113900D01*
X0482880Y0113871D01*
X0482943Y0113839D01*
X0483003Y0113803D01*
X0483061Y0113764D01*
X0483117Y0113722D01*
X0483171Y0113677D01*
X0483222Y0113629D01*
X0483270Y0113578D01*
X0483315Y0113524D01*
X0483357Y0113468D01*
X0483396Y0113410D01*
X0483432Y0113350D01*
X0483464Y0113287D01*
X0483493Y0113223D01*
X0483518Y0113158D01*
X0483539Y0113091D01*
X0483557Y0113023D01*
X0483570Y0112954D01*
X0483580Y0112885D01*
X0483586Y0112815D01*
X0483588Y0112745D01*
X0483586Y0112675D01*
X0483580Y0112605D01*
X0483570Y0112536D01*
X0483557Y0112467D01*
X0483539Y0112399D01*
X0483518Y0112332D01*
X0483493Y0112267D01*
X0483464Y0112203D01*
X0483432Y0112140D01*
X0483396Y0112080D01*
X0483357Y0112022D01*
X0483315Y0111966D01*
X0483270Y0111912D01*
X0483222Y0111861D01*
X0483171Y0111813D01*
X0483117Y0111768D01*
X0483061Y0111726D01*
X0483003Y0111687D01*
X0482943Y0111651D01*
X0482880Y0111619D01*
X0482816Y0111590D01*
X0482751Y0111565D01*
X0482684Y0111544D01*
X0482616Y0111526D01*
X0482547Y0111513D01*
X0482478Y0111503D01*
X0482408Y0111497D01*
X0482338Y0111495D01*
X0482268Y0111497D01*
X0482198Y0111503D01*
X0482129Y0111513D01*
X0482060Y0111526D01*
X0481992Y0111544D01*
X0481925Y0111565D01*
X0481860Y0111590D01*
X0481796Y0111619D01*
X0481733Y0111651D01*
X0481673Y0111687D01*
X0481615Y0111726D01*
X0481559Y0111768D01*
X0481505Y0111813D01*
X0481454Y0111861D01*
X0481406Y0111912D01*
X0481361Y0111966D01*
X0481319Y0112022D01*
X0481280Y0112080D01*
X0481244Y0112140D01*
X0481212Y0112203D01*
X0481183Y0112267D01*
X0481158Y0112332D01*
X0481137Y0112399D01*
X0481119Y0112467D01*
X0481106Y0112536D01*
X0481096Y0112605D01*
X0481090Y0112675D01*
X0481088Y0112745D01*
X0481088Y0107970D02*
X0481090Y0108040D01*
X0481096Y0108110D01*
X0481106Y0108179D01*
X0481119Y0108248D01*
X0481137Y0108316D01*
X0481158Y0108383D01*
X0481183Y0108448D01*
X0481212Y0108512D01*
X0481244Y0108575D01*
X0481280Y0108635D01*
X0481319Y0108693D01*
X0481361Y0108749D01*
X0481406Y0108803D01*
X0481454Y0108854D01*
X0481505Y0108902D01*
X0481559Y0108947D01*
X0481615Y0108989D01*
X0481673Y0109028D01*
X0481733Y0109064D01*
X0481796Y0109096D01*
X0481860Y0109125D01*
X0481925Y0109150D01*
X0481992Y0109171D01*
X0482060Y0109189D01*
X0482129Y0109202D01*
X0482198Y0109212D01*
X0482268Y0109218D01*
X0482338Y0109220D01*
X0482408Y0109218D01*
X0482478Y0109212D01*
X0482547Y0109202D01*
X0482616Y0109189D01*
X0482684Y0109171D01*
X0482751Y0109150D01*
X0482816Y0109125D01*
X0482880Y0109096D01*
X0482943Y0109064D01*
X0483003Y0109028D01*
X0483061Y0108989D01*
X0483117Y0108947D01*
X0483171Y0108902D01*
X0483222Y0108854D01*
X0483270Y0108803D01*
X0483315Y0108749D01*
X0483357Y0108693D01*
X0483396Y0108635D01*
X0483432Y0108575D01*
X0483464Y0108512D01*
X0483493Y0108448D01*
X0483518Y0108383D01*
X0483539Y0108316D01*
X0483557Y0108248D01*
X0483570Y0108179D01*
X0483580Y0108110D01*
X0483586Y0108040D01*
X0483588Y0107970D01*
X0483586Y0107900D01*
X0483580Y0107830D01*
X0483570Y0107761D01*
X0483557Y0107692D01*
X0483539Y0107624D01*
X0483518Y0107557D01*
X0483493Y0107492D01*
X0483464Y0107428D01*
X0483432Y0107365D01*
X0483396Y0107305D01*
X0483357Y0107247D01*
X0483315Y0107191D01*
X0483270Y0107137D01*
X0483222Y0107086D01*
X0483171Y0107038D01*
X0483117Y0106993D01*
X0483061Y0106951D01*
X0483003Y0106912D01*
X0482943Y0106876D01*
X0482880Y0106844D01*
X0482816Y0106815D01*
X0482751Y0106790D01*
X0482684Y0106769D01*
X0482616Y0106751D01*
X0482547Y0106738D01*
X0482478Y0106728D01*
X0482408Y0106722D01*
X0482338Y0106720D01*
X0482268Y0106722D01*
X0482198Y0106728D01*
X0482129Y0106738D01*
X0482060Y0106751D01*
X0481992Y0106769D01*
X0481925Y0106790D01*
X0481860Y0106815D01*
X0481796Y0106844D01*
X0481733Y0106876D01*
X0481673Y0106912D01*
X0481615Y0106951D01*
X0481559Y0106993D01*
X0481505Y0107038D01*
X0481454Y0107086D01*
X0481406Y0107137D01*
X0481361Y0107191D01*
X0481319Y0107247D01*
X0481280Y0107305D01*
X0481244Y0107365D01*
X0481212Y0107428D01*
X0481183Y0107492D01*
X0481158Y0107557D01*
X0481137Y0107624D01*
X0481119Y0107692D01*
X0481106Y0107761D01*
X0481096Y0107830D01*
X0481090Y0107900D01*
X0481088Y0107970D01*
X0485863Y0107970D02*
X0485865Y0108040D01*
X0485871Y0108110D01*
X0485881Y0108179D01*
X0485894Y0108248D01*
X0485912Y0108316D01*
X0485933Y0108383D01*
X0485958Y0108448D01*
X0485987Y0108512D01*
X0486019Y0108575D01*
X0486055Y0108635D01*
X0486094Y0108693D01*
X0486136Y0108749D01*
X0486181Y0108803D01*
X0486229Y0108854D01*
X0486280Y0108902D01*
X0486334Y0108947D01*
X0486390Y0108989D01*
X0486448Y0109028D01*
X0486508Y0109064D01*
X0486571Y0109096D01*
X0486635Y0109125D01*
X0486700Y0109150D01*
X0486767Y0109171D01*
X0486835Y0109189D01*
X0486904Y0109202D01*
X0486973Y0109212D01*
X0487043Y0109218D01*
X0487113Y0109220D01*
X0487183Y0109218D01*
X0487253Y0109212D01*
X0487322Y0109202D01*
X0487391Y0109189D01*
X0487459Y0109171D01*
X0487526Y0109150D01*
X0487591Y0109125D01*
X0487655Y0109096D01*
X0487718Y0109064D01*
X0487778Y0109028D01*
X0487836Y0108989D01*
X0487892Y0108947D01*
X0487946Y0108902D01*
X0487997Y0108854D01*
X0488045Y0108803D01*
X0488090Y0108749D01*
X0488132Y0108693D01*
X0488171Y0108635D01*
X0488207Y0108575D01*
X0488239Y0108512D01*
X0488268Y0108448D01*
X0488293Y0108383D01*
X0488314Y0108316D01*
X0488332Y0108248D01*
X0488345Y0108179D01*
X0488355Y0108110D01*
X0488361Y0108040D01*
X0488363Y0107970D01*
X0488361Y0107900D01*
X0488355Y0107830D01*
X0488345Y0107761D01*
X0488332Y0107692D01*
X0488314Y0107624D01*
X0488293Y0107557D01*
X0488268Y0107492D01*
X0488239Y0107428D01*
X0488207Y0107365D01*
X0488171Y0107305D01*
X0488132Y0107247D01*
X0488090Y0107191D01*
X0488045Y0107137D01*
X0487997Y0107086D01*
X0487946Y0107038D01*
X0487892Y0106993D01*
X0487836Y0106951D01*
X0487778Y0106912D01*
X0487718Y0106876D01*
X0487655Y0106844D01*
X0487591Y0106815D01*
X0487526Y0106790D01*
X0487459Y0106769D01*
X0487391Y0106751D01*
X0487322Y0106738D01*
X0487253Y0106728D01*
X0487183Y0106722D01*
X0487113Y0106720D01*
X0487043Y0106722D01*
X0486973Y0106728D01*
X0486904Y0106738D01*
X0486835Y0106751D01*
X0486767Y0106769D01*
X0486700Y0106790D01*
X0486635Y0106815D01*
X0486571Y0106844D01*
X0486508Y0106876D01*
X0486448Y0106912D01*
X0486390Y0106951D01*
X0486334Y0106993D01*
X0486280Y0107038D01*
X0486229Y0107086D01*
X0486181Y0107137D01*
X0486136Y0107191D01*
X0486094Y0107247D01*
X0486055Y0107305D01*
X0486019Y0107365D01*
X0485987Y0107428D01*
X0485958Y0107492D01*
X0485933Y0107557D01*
X0485912Y0107624D01*
X0485894Y0107692D01*
X0485881Y0107761D01*
X0485871Y0107830D01*
X0485865Y0107900D01*
X0485863Y0107970D01*
X0485863Y0112745D02*
X0485865Y0112815D01*
X0485871Y0112885D01*
X0485881Y0112954D01*
X0485894Y0113023D01*
X0485912Y0113091D01*
X0485933Y0113158D01*
X0485958Y0113223D01*
X0485987Y0113287D01*
X0486019Y0113350D01*
X0486055Y0113410D01*
X0486094Y0113468D01*
X0486136Y0113524D01*
X0486181Y0113578D01*
X0486229Y0113629D01*
X0486280Y0113677D01*
X0486334Y0113722D01*
X0486390Y0113764D01*
X0486448Y0113803D01*
X0486508Y0113839D01*
X0486571Y0113871D01*
X0486635Y0113900D01*
X0486700Y0113925D01*
X0486767Y0113946D01*
X0486835Y0113964D01*
X0486904Y0113977D01*
X0486973Y0113987D01*
X0487043Y0113993D01*
X0487113Y0113995D01*
X0487183Y0113993D01*
X0487253Y0113987D01*
X0487322Y0113977D01*
X0487391Y0113964D01*
X0487459Y0113946D01*
X0487526Y0113925D01*
X0487591Y0113900D01*
X0487655Y0113871D01*
X0487718Y0113839D01*
X0487778Y0113803D01*
X0487836Y0113764D01*
X0487892Y0113722D01*
X0487946Y0113677D01*
X0487997Y0113629D01*
X0488045Y0113578D01*
X0488090Y0113524D01*
X0488132Y0113468D01*
X0488171Y0113410D01*
X0488207Y0113350D01*
X0488239Y0113287D01*
X0488268Y0113223D01*
X0488293Y0113158D01*
X0488314Y0113091D01*
X0488332Y0113023D01*
X0488345Y0112954D01*
X0488355Y0112885D01*
X0488361Y0112815D01*
X0488363Y0112745D01*
X0488361Y0112675D01*
X0488355Y0112605D01*
X0488345Y0112536D01*
X0488332Y0112467D01*
X0488314Y0112399D01*
X0488293Y0112332D01*
X0488268Y0112267D01*
X0488239Y0112203D01*
X0488207Y0112140D01*
X0488171Y0112080D01*
X0488132Y0112022D01*
X0488090Y0111966D01*
X0488045Y0111912D01*
X0487997Y0111861D01*
X0487946Y0111813D01*
X0487892Y0111768D01*
X0487836Y0111726D01*
X0487778Y0111687D01*
X0487718Y0111651D01*
X0487655Y0111619D01*
X0487591Y0111590D01*
X0487526Y0111565D01*
X0487459Y0111544D01*
X0487391Y0111526D01*
X0487322Y0111513D01*
X0487253Y0111503D01*
X0487183Y0111497D01*
X0487113Y0111495D01*
X0487043Y0111497D01*
X0486973Y0111503D01*
X0486904Y0111513D01*
X0486835Y0111526D01*
X0486767Y0111544D01*
X0486700Y0111565D01*
X0486635Y0111590D01*
X0486571Y0111619D01*
X0486508Y0111651D01*
X0486448Y0111687D01*
X0486390Y0111726D01*
X0486334Y0111768D01*
X0486280Y0111813D01*
X0486229Y0111861D01*
X0486181Y0111912D01*
X0486136Y0111966D01*
X0486094Y0112022D01*
X0486055Y0112080D01*
X0486019Y0112140D01*
X0485987Y0112203D01*
X0485958Y0112267D01*
X0485933Y0112332D01*
X0485912Y0112399D01*
X0485894Y0112467D01*
X0485881Y0112536D01*
X0485871Y0112605D01*
X0485865Y0112675D01*
X0485863Y0112745D01*
X0490638Y0112745D02*
X0490640Y0112815D01*
X0490646Y0112885D01*
X0490656Y0112954D01*
X0490669Y0113023D01*
X0490687Y0113091D01*
X0490708Y0113158D01*
X0490733Y0113223D01*
X0490762Y0113287D01*
X0490794Y0113350D01*
X0490830Y0113410D01*
X0490869Y0113468D01*
X0490911Y0113524D01*
X0490956Y0113578D01*
X0491004Y0113629D01*
X0491055Y0113677D01*
X0491109Y0113722D01*
X0491165Y0113764D01*
X0491223Y0113803D01*
X0491283Y0113839D01*
X0491346Y0113871D01*
X0491410Y0113900D01*
X0491475Y0113925D01*
X0491542Y0113946D01*
X0491610Y0113964D01*
X0491679Y0113977D01*
X0491748Y0113987D01*
X0491818Y0113993D01*
X0491888Y0113995D01*
X0491958Y0113993D01*
X0492028Y0113987D01*
X0492097Y0113977D01*
X0492166Y0113964D01*
X0492234Y0113946D01*
X0492301Y0113925D01*
X0492366Y0113900D01*
X0492430Y0113871D01*
X0492493Y0113839D01*
X0492553Y0113803D01*
X0492611Y0113764D01*
X0492667Y0113722D01*
X0492721Y0113677D01*
X0492772Y0113629D01*
X0492820Y0113578D01*
X0492865Y0113524D01*
X0492907Y0113468D01*
X0492946Y0113410D01*
X0492982Y0113350D01*
X0493014Y0113287D01*
X0493043Y0113223D01*
X0493068Y0113158D01*
X0493089Y0113091D01*
X0493107Y0113023D01*
X0493120Y0112954D01*
X0493130Y0112885D01*
X0493136Y0112815D01*
X0493138Y0112745D01*
X0493136Y0112675D01*
X0493130Y0112605D01*
X0493120Y0112536D01*
X0493107Y0112467D01*
X0493089Y0112399D01*
X0493068Y0112332D01*
X0493043Y0112267D01*
X0493014Y0112203D01*
X0492982Y0112140D01*
X0492946Y0112080D01*
X0492907Y0112022D01*
X0492865Y0111966D01*
X0492820Y0111912D01*
X0492772Y0111861D01*
X0492721Y0111813D01*
X0492667Y0111768D01*
X0492611Y0111726D01*
X0492553Y0111687D01*
X0492493Y0111651D01*
X0492430Y0111619D01*
X0492366Y0111590D01*
X0492301Y0111565D01*
X0492234Y0111544D01*
X0492166Y0111526D01*
X0492097Y0111513D01*
X0492028Y0111503D01*
X0491958Y0111497D01*
X0491888Y0111495D01*
X0491818Y0111497D01*
X0491748Y0111503D01*
X0491679Y0111513D01*
X0491610Y0111526D01*
X0491542Y0111544D01*
X0491475Y0111565D01*
X0491410Y0111590D01*
X0491346Y0111619D01*
X0491283Y0111651D01*
X0491223Y0111687D01*
X0491165Y0111726D01*
X0491109Y0111768D01*
X0491055Y0111813D01*
X0491004Y0111861D01*
X0490956Y0111912D01*
X0490911Y0111966D01*
X0490869Y0112022D01*
X0490830Y0112080D01*
X0490794Y0112140D01*
X0490762Y0112203D01*
X0490733Y0112267D01*
X0490708Y0112332D01*
X0490687Y0112399D01*
X0490669Y0112467D01*
X0490656Y0112536D01*
X0490646Y0112605D01*
X0490640Y0112675D01*
X0490638Y0112745D01*
X0490638Y0107970D02*
X0490640Y0108040D01*
X0490646Y0108110D01*
X0490656Y0108179D01*
X0490669Y0108248D01*
X0490687Y0108316D01*
X0490708Y0108383D01*
X0490733Y0108448D01*
X0490762Y0108512D01*
X0490794Y0108575D01*
X0490830Y0108635D01*
X0490869Y0108693D01*
X0490911Y0108749D01*
X0490956Y0108803D01*
X0491004Y0108854D01*
X0491055Y0108902D01*
X0491109Y0108947D01*
X0491165Y0108989D01*
X0491223Y0109028D01*
X0491283Y0109064D01*
X0491346Y0109096D01*
X0491410Y0109125D01*
X0491475Y0109150D01*
X0491542Y0109171D01*
X0491610Y0109189D01*
X0491679Y0109202D01*
X0491748Y0109212D01*
X0491818Y0109218D01*
X0491888Y0109220D01*
X0491958Y0109218D01*
X0492028Y0109212D01*
X0492097Y0109202D01*
X0492166Y0109189D01*
X0492234Y0109171D01*
X0492301Y0109150D01*
X0492366Y0109125D01*
X0492430Y0109096D01*
X0492493Y0109064D01*
X0492553Y0109028D01*
X0492611Y0108989D01*
X0492667Y0108947D01*
X0492721Y0108902D01*
X0492772Y0108854D01*
X0492820Y0108803D01*
X0492865Y0108749D01*
X0492907Y0108693D01*
X0492946Y0108635D01*
X0492982Y0108575D01*
X0493014Y0108512D01*
X0493043Y0108448D01*
X0493068Y0108383D01*
X0493089Y0108316D01*
X0493107Y0108248D01*
X0493120Y0108179D01*
X0493130Y0108110D01*
X0493136Y0108040D01*
X0493138Y0107970D01*
X0493136Y0107900D01*
X0493130Y0107830D01*
X0493120Y0107761D01*
X0493107Y0107692D01*
X0493089Y0107624D01*
X0493068Y0107557D01*
X0493043Y0107492D01*
X0493014Y0107428D01*
X0492982Y0107365D01*
X0492946Y0107305D01*
X0492907Y0107247D01*
X0492865Y0107191D01*
X0492820Y0107137D01*
X0492772Y0107086D01*
X0492721Y0107038D01*
X0492667Y0106993D01*
X0492611Y0106951D01*
X0492553Y0106912D01*
X0492493Y0106876D01*
X0492430Y0106844D01*
X0492366Y0106815D01*
X0492301Y0106790D01*
X0492234Y0106769D01*
X0492166Y0106751D01*
X0492097Y0106738D01*
X0492028Y0106728D01*
X0491958Y0106722D01*
X0491888Y0106720D01*
X0491818Y0106722D01*
X0491748Y0106728D01*
X0491679Y0106738D01*
X0491610Y0106751D01*
X0491542Y0106769D01*
X0491475Y0106790D01*
X0491410Y0106815D01*
X0491346Y0106844D01*
X0491283Y0106876D01*
X0491223Y0106912D01*
X0491165Y0106951D01*
X0491109Y0106993D01*
X0491055Y0107038D01*
X0491004Y0107086D01*
X0490956Y0107137D01*
X0490911Y0107191D01*
X0490869Y0107247D01*
X0490830Y0107305D01*
X0490794Y0107365D01*
X0490762Y0107428D01*
X0490733Y0107492D01*
X0490708Y0107557D01*
X0490687Y0107624D01*
X0490669Y0107692D01*
X0490656Y0107761D01*
X0490646Y0107830D01*
X0490640Y0107900D01*
X0490638Y0107970D01*
X0495413Y0107970D02*
X0495415Y0108040D01*
X0495421Y0108110D01*
X0495431Y0108179D01*
X0495444Y0108248D01*
X0495462Y0108316D01*
X0495483Y0108383D01*
X0495508Y0108448D01*
X0495537Y0108512D01*
X0495569Y0108575D01*
X0495605Y0108635D01*
X0495644Y0108693D01*
X0495686Y0108749D01*
X0495731Y0108803D01*
X0495779Y0108854D01*
X0495830Y0108902D01*
X0495884Y0108947D01*
X0495940Y0108989D01*
X0495998Y0109028D01*
X0496058Y0109064D01*
X0496121Y0109096D01*
X0496185Y0109125D01*
X0496250Y0109150D01*
X0496317Y0109171D01*
X0496385Y0109189D01*
X0496454Y0109202D01*
X0496523Y0109212D01*
X0496593Y0109218D01*
X0496663Y0109220D01*
X0496733Y0109218D01*
X0496803Y0109212D01*
X0496872Y0109202D01*
X0496941Y0109189D01*
X0497009Y0109171D01*
X0497076Y0109150D01*
X0497141Y0109125D01*
X0497205Y0109096D01*
X0497268Y0109064D01*
X0497328Y0109028D01*
X0497386Y0108989D01*
X0497442Y0108947D01*
X0497496Y0108902D01*
X0497547Y0108854D01*
X0497595Y0108803D01*
X0497640Y0108749D01*
X0497682Y0108693D01*
X0497721Y0108635D01*
X0497757Y0108575D01*
X0497789Y0108512D01*
X0497818Y0108448D01*
X0497843Y0108383D01*
X0497864Y0108316D01*
X0497882Y0108248D01*
X0497895Y0108179D01*
X0497905Y0108110D01*
X0497911Y0108040D01*
X0497913Y0107970D01*
X0497911Y0107900D01*
X0497905Y0107830D01*
X0497895Y0107761D01*
X0497882Y0107692D01*
X0497864Y0107624D01*
X0497843Y0107557D01*
X0497818Y0107492D01*
X0497789Y0107428D01*
X0497757Y0107365D01*
X0497721Y0107305D01*
X0497682Y0107247D01*
X0497640Y0107191D01*
X0497595Y0107137D01*
X0497547Y0107086D01*
X0497496Y0107038D01*
X0497442Y0106993D01*
X0497386Y0106951D01*
X0497328Y0106912D01*
X0497268Y0106876D01*
X0497205Y0106844D01*
X0497141Y0106815D01*
X0497076Y0106790D01*
X0497009Y0106769D01*
X0496941Y0106751D01*
X0496872Y0106738D01*
X0496803Y0106728D01*
X0496733Y0106722D01*
X0496663Y0106720D01*
X0496593Y0106722D01*
X0496523Y0106728D01*
X0496454Y0106738D01*
X0496385Y0106751D01*
X0496317Y0106769D01*
X0496250Y0106790D01*
X0496185Y0106815D01*
X0496121Y0106844D01*
X0496058Y0106876D01*
X0495998Y0106912D01*
X0495940Y0106951D01*
X0495884Y0106993D01*
X0495830Y0107038D01*
X0495779Y0107086D01*
X0495731Y0107137D01*
X0495686Y0107191D01*
X0495644Y0107247D01*
X0495605Y0107305D01*
X0495569Y0107365D01*
X0495537Y0107428D01*
X0495508Y0107492D01*
X0495483Y0107557D01*
X0495462Y0107624D01*
X0495444Y0107692D01*
X0495431Y0107761D01*
X0495421Y0107830D01*
X0495415Y0107900D01*
X0495413Y0107970D01*
X0495413Y0112745D02*
X0495415Y0112815D01*
X0495421Y0112885D01*
X0495431Y0112954D01*
X0495444Y0113023D01*
X0495462Y0113091D01*
X0495483Y0113158D01*
X0495508Y0113223D01*
X0495537Y0113287D01*
X0495569Y0113350D01*
X0495605Y0113410D01*
X0495644Y0113468D01*
X0495686Y0113524D01*
X0495731Y0113578D01*
X0495779Y0113629D01*
X0495830Y0113677D01*
X0495884Y0113722D01*
X0495940Y0113764D01*
X0495998Y0113803D01*
X0496058Y0113839D01*
X0496121Y0113871D01*
X0496185Y0113900D01*
X0496250Y0113925D01*
X0496317Y0113946D01*
X0496385Y0113964D01*
X0496454Y0113977D01*
X0496523Y0113987D01*
X0496593Y0113993D01*
X0496663Y0113995D01*
X0496733Y0113993D01*
X0496803Y0113987D01*
X0496872Y0113977D01*
X0496941Y0113964D01*
X0497009Y0113946D01*
X0497076Y0113925D01*
X0497141Y0113900D01*
X0497205Y0113871D01*
X0497268Y0113839D01*
X0497328Y0113803D01*
X0497386Y0113764D01*
X0497442Y0113722D01*
X0497496Y0113677D01*
X0497547Y0113629D01*
X0497595Y0113578D01*
X0497640Y0113524D01*
X0497682Y0113468D01*
X0497721Y0113410D01*
X0497757Y0113350D01*
X0497789Y0113287D01*
X0497818Y0113223D01*
X0497843Y0113158D01*
X0497864Y0113091D01*
X0497882Y0113023D01*
X0497895Y0112954D01*
X0497905Y0112885D01*
X0497911Y0112815D01*
X0497913Y0112745D01*
X0497911Y0112675D01*
X0497905Y0112605D01*
X0497895Y0112536D01*
X0497882Y0112467D01*
X0497864Y0112399D01*
X0497843Y0112332D01*
X0497818Y0112267D01*
X0497789Y0112203D01*
X0497757Y0112140D01*
X0497721Y0112080D01*
X0497682Y0112022D01*
X0497640Y0111966D01*
X0497595Y0111912D01*
X0497547Y0111861D01*
X0497496Y0111813D01*
X0497442Y0111768D01*
X0497386Y0111726D01*
X0497328Y0111687D01*
X0497268Y0111651D01*
X0497205Y0111619D01*
X0497141Y0111590D01*
X0497076Y0111565D01*
X0497009Y0111544D01*
X0496941Y0111526D01*
X0496872Y0111513D01*
X0496803Y0111503D01*
X0496733Y0111497D01*
X0496663Y0111495D01*
X0496593Y0111497D01*
X0496523Y0111503D01*
X0496454Y0111513D01*
X0496385Y0111526D01*
X0496317Y0111544D01*
X0496250Y0111565D01*
X0496185Y0111590D01*
X0496121Y0111619D01*
X0496058Y0111651D01*
X0495998Y0111687D01*
X0495940Y0111726D01*
X0495884Y0111768D01*
X0495830Y0111813D01*
X0495779Y0111861D01*
X0495731Y0111912D01*
X0495686Y0111966D01*
X0495644Y0112022D01*
X0495605Y0112080D01*
X0495569Y0112140D01*
X0495537Y0112203D01*
X0495508Y0112267D01*
X0495483Y0112332D01*
X0495462Y0112399D01*
X0495444Y0112467D01*
X0495431Y0112536D01*
X0495421Y0112605D01*
X0495415Y0112675D01*
X0495413Y0112745D01*
X0500188Y0112745D02*
X0500190Y0112815D01*
X0500196Y0112885D01*
X0500206Y0112954D01*
X0500219Y0113023D01*
X0500237Y0113091D01*
X0500258Y0113158D01*
X0500283Y0113223D01*
X0500312Y0113287D01*
X0500344Y0113350D01*
X0500380Y0113410D01*
X0500419Y0113468D01*
X0500461Y0113524D01*
X0500506Y0113578D01*
X0500554Y0113629D01*
X0500605Y0113677D01*
X0500659Y0113722D01*
X0500715Y0113764D01*
X0500773Y0113803D01*
X0500833Y0113839D01*
X0500896Y0113871D01*
X0500960Y0113900D01*
X0501025Y0113925D01*
X0501092Y0113946D01*
X0501160Y0113964D01*
X0501229Y0113977D01*
X0501298Y0113987D01*
X0501368Y0113993D01*
X0501438Y0113995D01*
X0501508Y0113993D01*
X0501578Y0113987D01*
X0501647Y0113977D01*
X0501716Y0113964D01*
X0501784Y0113946D01*
X0501851Y0113925D01*
X0501916Y0113900D01*
X0501980Y0113871D01*
X0502043Y0113839D01*
X0502103Y0113803D01*
X0502161Y0113764D01*
X0502217Y0113722D01*
X0502271Y0113677D01*
X0502322Y0113629D01*
X0502370Y0113578D01*
X0502415Y0113524D01*
X0502457Y0113468D01*
X0502496Y0113410D01*
X0502532Y0113350D01*
X0502564Y0113287D01*
X0502593Y0113223D01*
X0502618Y0113158D01*
X0502639Y0113091D01*
X0502657Y0113023D01*
X0502670Y0112954D01*
X0502680Y0112885D01*
X0502686Y0112815D01*
X0502688Y0112745D01*
X0502686Y0112675D01*
X0502680Y0112605D01*
X0502670Y0112536D01*
X0502657Y0112467D01*
X0502639Y0112399D01*
X0502618Y0112332D01*
X0502593Y0112267D01*
X0502564Y0112203D01*
X0502532Y0112140D01*
X0502496Y0112080D01*
X0502457Y0112022D01*
X0502415Y0111966D01*
X0502370Y0111912D01*
X0502322Y0111861D01*
X0502271Y0111813D01*
X0502217Y0111768D01*
X0502161Y0111726D01*
X0502103Y0111687D01*
X0502043Y0111651D01*
X0501980Y0111619D01*
X0501916Y0111590D01*
X0501851Y0111565D01*
X0501784Y0111544D01*
X0501716Y0111526D01*
X0501647Y0111513D01*
X0501578Y0111503D01*
X0501508Y0111497D01*
X0501438Y0111495D01*
X0501368Y0111497D01*
X0501298Y0111503D01*
X0501229Y0111513D01*
X0501160Y0111526D01*
X0501092Y0111544D01*
X0501025Y0111565D01*
X0500960Y0111590D01*
X0500896Y0111619D01*
X0500833Y0111651D01*
X0500773Y0111687D01*
X0500715Y0111726D01*
X0500659Y0111768D01*
X0500605Y0111813D01*
X0500554Y0111861D01*
X0500506Y0111912D01*
X0500461Y0111966D01*
X0500419Y0112022D01*
X0500380Y0112080D01*
X0500344Y0112140D01*
X0500312Y0112203D01*
X0500283Y0112267D01*
X0500258Y0112332D01*
X0500237Y0112399D01*
X0500219Y0112467D01*
X0500206Y0112536D01*
X0500196Y0112605D01*
X0500190Y0112675D01*
X0500188Y0112745D01*
X0500188Y0107970D02*
X0500190Y0108040D01*
X0500196Y0108110D01*
X0500206Y0108179D01*
X0500219Y0108248D01*
X0500237Y0108316D01*
X0500258Y0108383D01*
X0500283Y0108448D01*
X0500312Y0108512D01*
X0500344Y0108575D01*
X0500380Y0108635D01*
X0500419Y0108693D01*
X0500461Y0108749D01*
X0500506Y0108803D01*
X0500554Y0108854D01*
X0500605Y0108902D01*
X0500659Y0108947D01*
X0500715Y0108989D01*
X0500773Y0109028D01*
X0500833Y0109064D01*
X0500896Y0109096D01*
X0500960Y0109125D01*
X0501025Y0109150D01*
X0501092Y0109171D01*
X0501160Y0109189D01*
X0501229Y0109202D01*
X0501298Y0109212D01*
X0501368Y0109218D01*
X0501438Y0109220D01*
X0501508Y0109218D01*
X0501578Y0109212D01*
X0501647Y0109202D01*
X0501716Y0109189D01*
X0501784Y0109171D01*
X0501851Y0109150D01*
X0501916Y0109125D01*
X0501980Y0109096D01*
X0502043Y0109064D01*
X0502103Y0109028D01*
X0502161Y0108989D01*
X0502217Y0108947D01*
X0502271Y0108902D01*
X0502322Y0108854D01*
X0502370Y0108803D01*
X0502415Y0108749D01*
X0502457Y0108693D01*
X0502496Y0108635D01*
X0502532Y0108575D01*
X0502564Y0108512D01*
X0502593Y0108448D01*
X0502618Y0108383D01*
X0502639Y0108316D01*
X0502657Y0108248D01*
X0502670Y0108179D01*
X0502680Y0108110D01*
X0502686Y0108040D01*
X0502688Y0107970D01*
X0502686Y0107900D01*
X0502680Y0107830D01*
X0502670Y0107761D01*
X0502657Y0107692D01*
X0502639Y0107624D01*
X0502618Y0107557D01*
X0502593Y0107492D01*
X0502564Y0107428D01*
X0502532Y0107365D01*
X0502496Y0107305D01*
X0502457Y0107247D01*
X0502415Y0107191D01*
X0502370Y0107137D01*
X0502322Y0107086D01*
X0502271Y0107038D01*
X0502217Y0106993D01*
X0502161Y0106951D01*
X0502103Y0106912D01*
X0502043Y0106876D01*
X0501980Y0106844D01*
X0501916Y0106815D01*
X0501851Y0106790D01*
X0501784Y0106769D01*
X0501716Y0106751D01*
X0501647Y0106738D01*
X0501578Y0106728D01*
X0501508Y0106722D01*
X0501438Y0106720D01*
X0501368Y0106722D01*
X0501298Y0106728D01*
X0501229Y0106738D01*
X0501160Y0106751D01*
X0501092Y0106769D01*
X0501025Y0106790D01*
X0500960Y0106815D01*
X0500896Y0106844D01*
X0500833Y0106876D01*
X0500773Y0106912D01*
X0500715Y0106951D01*
X0500659Y0106993D01*
X0500605Y0107038D01*
X0500554Y0107086D01*
X0500506Y0107137D01*
X0500461Y0107191D01*
X0500419Y0107247D01*
X0500380Y0107305D01*
X0500344Y0107365D01*
X0500312Y0107428D01*
X0500283Y0107492D01*
X0500258Y0107557D01*
X0500237Y0107624D01*
X0500219Y0107692D01*
X0500206Y0107761D01*
X0500196Y0107830D01*
X0500190Y0107900D01*
X0500188Y0107970D01*
X0504963Y0107970D02*
X0504965Y0108040D01*
X0504971Y0108110D01*
X0504981Y0108179D01*
X0504994Y0108248D01*
X0505012Y0108316D01*
X0505033Y0108383D01*
X0505058Y0108448D01*
X0505087Y0108512D01*
X0505119Y0108575D01*
X0505155Y0108635D01*
X0505194Y0108693D01*
X0505236Y0108749D01*
X0505281Y0108803D01*
X0505329Y0108854D01*
X0505380Y0108902D01*
X0505434Y0108947D01*
X0505490Y0108989D01*
X0505548Y0109028D01*
X0505608Y0109064D01*
X0505671Y0109096D01*
X0505735Y0109125D01*
X0505800Y0109150D01*
X0505867Y0109171D01*
X0505935Y0109189D01*
X0506004Y0109202D01*
X0506073Y0109212D01*
X0506143Y0109218D01*
X0506213Y0109220D01*
X0506283Y0109218D01*
X0506353Y0109212D01*
X0506422Y0109202D01*
X0506491Y0109189D01*
X0506559Y0109171D01*
X0506626Y0109150D01*
X0506691Y0109125D01*
X0506755Y0109096D01*
X0506818Y0109064D01*
X0506878Y0109028D01*
X0506936Y0108989D01*
X0506992Y0108947D01*
X0507046Y0108902D01*
X0507097Y0108854D01*
X0507145Y0108803D01*
X0507190Y0108749D01*
X0507232Y0108693D01*
X0507271Y0108635D01*
X0507307Y0108575D01*
X0507339Y0108512D01*
X0507368Y0108448D01*
X0507393Y0108383D01*
X0507414Y0108316D01*
X0507432Y0108248D01*
X0507445Y0108179D01*
X0507455Y0108110D01*
X0507461Y0108040D01*
X0507463Y0107970D01*
X0507461Y0107900D01*
X0507455Y0107830D01*
X0507445Y0107761D01*
X0507432Y0107692D01*
X0507414Y0107624D01*
X0507393Y0107557D01*
X0507368Y0107492D01*
X0507339Y0107428D01*
X0507307Y0107365D01*
X0507271Y0107305D01*
X0507232Y0107247D01*
X0507190Y0107191D01*
X0507145Y0107137D01*
X0507097Y0107086D01*
X0507046Y0107038D01*
X0506992Y0106993D01*
X0506936Y0106951D01*
X0506878Y0106912D01*
X0506818Y0106876D01*
X0506755Y0106844D01*
X0506691Y0106815D01*
X0506626Y0106790D01*
X0506559Y0106769D01*
X0506491Y0106751D01*
X0506422Y0106738D01*
X0506353Y0106728D01*
X0506283Y0106722D01*
X0506213Y0106720D01*
X0506143Y0106722D01*
X0506073Y0106728D01*
X0506004Y0106738D01*
X0505935Y0106751D01*
X0505867Y0106769D01*
X0505800Y0106790D01*
X0505735Y0106815D01*
X0505671Y0106844D01*
X0505608Y0106876D01*
X0505548Y0106912D01*
X0505490Y0106951D01*
X0505434Y0106993D01*
X0505380Y0107038D01*
X0505329Y0107086D01*
X0505281Y0107137D01*
X0505236Y0107191D01*
X0505194Y0107247D01*
X0505155Y0107305D01*
X0505119Y0107365D01*
X0505087Y0107428D01*
X0505058Y0107492D01*
X0505033Y0107557D01*
X0505012Y0107624D01*
X0504994Y0107692D01*
X0504981Y0107761D01*
X0504971Y0107830D01*
X0504965Y0107900D01*
X0504963Y0107970D01*
X0504963Y0112745D02*
X0504965Y0112815D01*
X0504971Y0112885D01*
X0504981Y0112954D01*
X0504994Y0113023D01*
X0505012Y0113091D01*
X0505033Y0113158D01*
X0505058Y0113223D01*
X0505087Y0113287D01*
X0505119Y0113350D01*
X0505155Y0113410D01*
X0505194Y0113468D01*
X0505236Y0113524D01*
X0505281Y0113578D01*
X0505329Y0113629D01*
X0505380Y0113677D01*
X0505434Y0113722D01*
X0505490Y0113764D01*
X0505548Y0113803D01*
X0505608Y0113839D01*
X0505671Y0113871D01*
X0505735Y0113900D01*
X0505800Y0113925D01*
X0505867Y0113946D01*
X0505935Y0113964D01*
X0506004Y0113977D01*
X0506073Y0113987D01*
X0506143Y0113993D01*
X0506213Y0113995D01*
X0506283Y0113993D01*
X0506353Y0113987D01*
X0506422Y0113977D01*
X0506491Y0113964D01*
X0506559Y0113946D01*
X0506626Y0113925D01*
X0506691Y0113900D01*
X0506755Y0113871D01*
X0506818Y0113839D01*
X0506878Y0113803D01*
X0506936Y0113764D01*
X0506992Y0113722D01*
X0507046Y0113677D01*
X0507097Y0113629D01*
X0507145Y0113578D01*
X0507190Y0113524D01*
X0507232Y0113468D01*
X0507271Y0113410D01*
X0507307Y0113350D01*
X0507339Y0113287D01*
X0507368Y0113223D01*
X0507393Y0113158D01*
X0507414Y0113091D01*
X0507432Y0113023D01*
X0507445Y0112954D01*
X0507455Y0112885D01*
X0507461Y0112815D01*
X0507463Y0112745D01*
X0507461Y0112675D01*
X0507455Y0112605D01*
X0507445Y0112536D01*
X0507432Y0112467D01*
X0507414Y0112399D01*
X0507393Y0112332D01*
X0507368Y0112267D01*
X0507339Y0112203D01*
X0507307Y0112140D01*
X0507271Y0112080D01*
X0507232Y0112022D01*
X0507190Y0111966D01*
X0507145Y0111912D01*
X0507097Y0111861D01*
X0507046Y0111813D01*
X0506992Y0111768D01*
X0506936Y0111726D01*
X0506878Y0111687D01*
X0506818Y0111651D01*
X0506755Y0111619D01*
X0506691Y0111590D01*
X0506626Y0111565D01*
X0506559Y0111544D01*
X0506491Y0111526D01*
X0506422Y0111513D01*
X0506353Y0111503D01*
X0506283Y0111497D01*
X0506213Y0111495D01*
X0506143Y0111497D01*
X0506073Y0111503D01*
X0506004Y0111513D01*
X0505935Y0111526D01*
X0505867Y0111544D01*
X0505800Y0111565D01*
X0505735Y0111590D01*
X0505671Y0111619D01*
X0505608Y0111651D01*
X0505548Y0111687D01*
X0505490Y0111726D01*
X0505434Y0111768D01*
X0505380Y0111813D01*
X0505329Y0111861D01*
X0505281Y0111912D01*
X0505236Y0111966D01*
X0505194Y0112022D01*
X0505155Y0112080D01*
X0505119Y0112140D01*
X0505087Y0112203D01*
X0505058Y0112267D01*
X0505033Y0112332D01*
X0505012Y0112399D01*
X0504994Y0112467D01*
X0504981Y0112536D01*
X0504971Y0112605D01*
X0504965Y0112675D01*
X0504963Y0112745D01*
X0509738Y0112745D02*
X0509740Y0112815D01*
X0509746Y0112885D01*
X0509756Y0112954D01*
X0509769Y0113023D01*
X0509787Y0113091D01*
X0509808Y0113158D01*
X0509833Y0113223D01*
X0509862Y0113287D01*
X0509894Y0113350D01*
X0509930Y0113410D01*
X0509969Y0113468D01*
X0510011Y0113524D01*
X0510056Y0113578D01*
X0510104Y0113629D01*
X0510155Y0113677D01*
X0510209Y0113722D01*
X0510265Y0113764D01*
X0510323Y0113803D01*
X0510383Y0113839D01*
X0510446Y0113871D01*
X0510510Y0113900D01*
X0510575Y0113925D01*
X0510642Y0113946D01*
X0510710Y0113964D01*
X0510779Y0113977D01*
X0510848Y0113987D01*
X0510918Y0113993D01*
X0510988Y0113995D01*
X0511058Y0113993D01*
X0511128Y0113987D01*
X0511197Y0113977D01*
X0511266Y0113964D01*
X0511334Y0113946D01*
X0511401Y0113925D01*
X0511466Y0113900D01*
X0511530Y0113871D01*
X0511593Y0113839D01*
X0511653Y0113803D01*
X0511711Y0113764D01*
X0511767Y0113722D01*
X0511821Y0113677D01*
X0511872Y0113629D01*
X0511920Y0113578D01*
X0511965Y0113524D01*
X0512007Y0113468D01*
X0512046Y0113410D01*
X0512082Y0113350D01*
X0512114Y0113287D01*
X0512143Y0113223D01*
X0512168Y0113158D01*
X0512189Y0113091D01*
X0512207Y0113023D01*
X0512220Y0112954D01*
X0512230Y0112885D01*
X0512236Y0112815D01*
X0512238Y0112745D01*
X0512236Y0112675D01*
X0512230Y0112605D01*
X0512220Y0112536D01*
X0512207Y0112467D01*
X0512189Y0112399D01*
X0512168Y0112332D01*
X0512143Y0112267D01*
X0512114Y0112203D01*
X0512082Y0112140D01*
X0512046Y0112080D01*
X0512007Y0112022D01*
X0511965Y0111966D01*
X0511920Y0111912D01*
X0511872Y0111861D01*
X0511821Y0111813D01*
X0511767Y0111768D01*
X0511711Y0111726D01*
X0511653Y0111687D01*
X0511593Y0111651D01*
X0511530Y0111619D01*
X0511466Y0111590D01*
X0511401Y0111565D01*
X0511334Y0111544D01*
X0511266Y0111526D01*
X0511197Y0111513D01*
X0511128Y0111503D01*
X0511058Y0111497D01*
X0510988Y0111495D01*
X0510918Y0111497D01*
X0510848Y0111503D01*
X0510779Y0111513D01*
X0510710Y0111526D01*
X0510642Y0111544D01*
X0510575Y0111565D01*
X0510510Y0111590D01*
X0510446Y0111619D01*
X0510383Y0111651D01*
X0510323Y0111687D01*
X0510265Y0111726D01*
X0510209Y0111768D01*
X0510155Y0111813D01*
X0510104Y0111861D01*
X0510056Y0111912D01*
X0510011Y0111966D01*
X0509969Y0112022D01*
X0509930Y0112080D01*
X0509894Y0112140D01*
X0509862Y0112203D01*
X0509833Y0112267D01*
X0509808Y0112332D01*
X0509787Y0112399D01*
X0509769Y0112467D01*
X0509756Y0112536D01*
X0509746Y0112605D01*
X0509740Y0112675D01*
X0509738Y0112745D01*
X0509738Y0107970D02*
X0509740Y0108040D01*
X0509746Y0108110D01*
X0509756Y0108179D01*
X0509769Y0108248D01*
X0509787Y0108316D01*
X0509808Y0108383D01*
X0509833Y0108448D01*
X0509862Y0108512D01*
X0509894Y0108575D01*
X0509930Y0108635D01*
X0509969Y0108693D01*
X0510011Y0108749D01*
X0510056Y0108803D01*
X0510104Y0108854D01*
X0510155Y0108902D01*
X0510209Y0108947D01*
X0510265Y0108989D01*
X0510323Y0109028D01*
X0510383Y0109064D01*
X0510446Y0109096D01*
X0510510Y0109125D01*
X0510575Y0109150D01*
X0510642Y0109171D01*
X0510710Y0109189D01*
X0510779Y0109202D01*
X0510848Y0109212D01*
X0510918Y0109218D01*
X0510988Y0109220D01*
X0511058Y0109218D01*
X0511128Y0109212D01*
X0511197Y0109202D01*
X0511266Y0109189D01*
X0511334Y0109171D01*
X0511401Y0109150D01*
X0511466Y0109125D01*
X0511530Y0109096D01*
X0511593Y0109064D01*
X0511653Y0109028D01*
X0511711Y0108989D01*
X0511767Y0108947D01*
X0511821Y0108902D01*
X0511872Y0108854D01*
X0511920Y0108803D01*
X0511965Y0108749D01*
X0512007Y0108693D01*
X0512046Y0108635D01*
X0512082Y0108575D01*
X0512114Y0108512D01*
X0512143Y0108448D01*
X0512168Y0108383D01*
X0512189Y0108316D01*
X0512207Y0108248D01*
X0512220Y0108179D01*
X0512230Y0108110D01*
X0512236Y0108040D01*
X0512238Y0107970D01*
X0512236Y0107900D01*
X0512230Y0107830D01*
X0512220Y0107761D01*
X0512207Y0107692D01*
X0512189Y0107624D01*
X0512168Y0107557D01*
X0512143Y0107492D01*
X0512114Y0107428D01*
X0512082Y0107365D01*
X0512046Y0107305D01*
X0512007Y0107247D01*
X0511965Y0107191D01*
X0511920Y0107137D01*
X0511872Y0107086D01*
X0511821Y0107038D01*
X0511767Y0106993D01*
X0511711Y0106951D01*
X0511653Y0106912D01*
X0511593Y0106876D01*
X0511530Y0106844D01*
X0511466Y0106815D01*
X0511401Y0106790D01*
X0511334Y0106769D01*
X0511266Y0106751D01*
X0511197Y0106738D01*
X0511128Y0106728D01*
X0511058Y0106722D01*
X0510988Y0106720D01*
X0510918Y0106722D01*
X0510848Y0106728D01*
X0510779Y0106738D01*
X0510710Y0106751D01*
X0510642Y0106769D01*
X0510575Y0106790D01*
X0510510Y0106815D01*
X0510446Y0106844D01*
X0510383Y0106876D01*
X0510323Y0106912D01*
X0510265Y0106951D01*
X0510209Y0106993D01*
X0510155Y0107038D01*
X0510104Y0107086D01*
X0510056Y0107137D01*
X0510011Y0107191D01*
X0509969Y0107247D01*
X0509930Y0107305D01*
X0509894Y0107365D01*
X0509862Y0107428D01*
X0509833Y0107492D01*
X0509808Y0107557D01*
X0509787Y0107624D01*
X0509769Y0107692D01*
X0509756Y0107761D01*
X0509746Y0107830D01*
X0509740Y0107900D01*
X0509738Y0107970D01*
X0514513Y0107970D02*
X0514515Y0108040D01*
X0514521Y0108110D01*
X0514531Y0108179D01*
X0514544Y0108248D01*
X0514562Y0108316D01*
X0514583Y0108383D01*
X0514608Y0108448D01*
X0514637Y0108512D01*
X0514669Y0108575D01*
X0514705Y0108635D01*
X0514744Y0108693D01*
X0514786Y0108749D01*
X0514831Y0108803D01*
X0514879Y0108854D01*
X0514930Y0108902D01*
X0514984Y0108947D01*
X0515040Y0108989D01*
X0515098Y0109028D01*
X0515158Y0109064D01*
X0515221Y0109096D01*
X0515285Y0109125D01*
X0515350Y0109150D01*
X0515417Y0109171D01*
X0515485Y0109189D01*
X0515554Y0109202D01*
X0515623Y0109212D01*
X0515693Y0109218D01*
X0515763Y0109220D01*
X0515833Y0109218D01*
X0515903Y0109212D01*
X0515972Y0109202D01*
X0516041Y0109189D01*
X0516109Y0109171D01*
X0516176Y0109150D01*
X0516241Y0109125D01*
X0516305Y0109096D01*
X0516368Y0109064D01*
X0516428Y0109028D01*
X0516486Y0108989D01*
X0516542Y0108947D01*
X0516596Y0108902D01*
X0516647Y0108854D01*
X0516695Y0108803D01*
X0516740Y0108749D01*
X0516782Y0108693D01*
X0516821Y0108635D01*
X0516857Y0108575D01*
X0516889Y0108512D01*
X0516918Y0108448D01*
X0516943Y0108383D01*
X0516964Y0108316D01*
X0516982Y0108248D01*
X0516995Y0108179D01*
X0517005Y0108110D01*
X0517011Y0108040D01*
X0517013Y0107970D01*
X0517011Y0107900D01*
X0517005Y0107830D01*
X0516995Y0107761D01*
X0516982Y0107692D01*
X0516964Y0107624D01*
X0516943Y0107557D01*
X0516918Y0107492D01*
X0516889Y0107428D01*
X0516857Y0107365D01*
X0516821Y0107305D01*
X0516782Y0107247D01*
X0516740Y0107191D01*
X0516695Y0107137D01*
X0516647Y0107086D01*
X0516596Y0107038D01*
X0516542Y0106993D01*
X0516486Y0106951D01*
X0516428Y0106912D01*
X0516368Y0106876D01*
X0516305Y0106844D01*
X0516241Y0106815D01*
X0516176Y0106790D01*
X0516109Y0106769D01*
X0516041Y0106751D01*
X0515972Y0106738D01*
X0515903Y0106728D01*
X0515833Y0106722D01*
X0515763Y0106720D01*
X0515693Y0106722D01*
X0515623Y0106728D01*
X0515554Y0106738D01*
X0515485Y0106751D01*
X0515417Y0106769D01*
X0515350Y0106790D01*
X0515285Y0106815D01*
X0515221Y0106844D01*
X0515158Y0106876D01*
X0515098Y0106912D01*
X0515040Y0106951D01*
X0514984Y0106993D01*
X0514930Y0107038D01*
X0514879Y0107086D01*
X0514831Y0107137D01*
X0514786Y0107191D01*
X0514744Y0107247D01*
X0514705Y0107305D01*
X0514669Y0107365D01*
X0514637Y0107428D01*
X0514608Y0107492D01*
X0514583Y0107557D01*
X0514562Y0107624D01*
X0514544Y0107692D01*
X0514531Y0107761D01*
X0514521Y0107830D01*
X0514515Y0107900D01*
X0514513Y0107970D01*
X0514513Y0112745D02*
X0514515Y0112815D01*
X0514521Y0112885D01*
X0514531Y0112954D01*
X0514544Y0113023D01*
X0514562Y0113091D01*
X0514583Y0113158D01*
X0514608Y0113223D01*
X0514637Y0113287D01*
X0514669Y0113350D01*
X0514705Y0113410D01*
X0514744Y0113468D01*
X0514786Y0113524D01*
X0514831Y0113578D01*
X0514879Y0113629D01*
X0514930Y0113677D01*
X0514984Y0113722D01*
X0515040Y0113764D01*
X0515098Y0113803D01*
X0515158Y0113839D01*
X0515221Y0113871D01*
X0515285Y0113900D01*
X0515350Y0113925D01*
X0515417Y0113946D01*
X0515485Y0113964D01*
X0515554Y0113977D01*
X0515623Y0113987D01*
X0515693Y0113993D01*
X0515763Y0113995D01*
X0515833Y0113993D01*
X0515903Y0113987D01*
X0515972Y0113977D01*
X0516041Y0113964D01*
X0516109Y0113946D01*
X0516176Y0113925D01*
X0516241Y0113900D01*
X0516305Y0113871D01*
X0516368Y0113839D01*
X0516428Y0113803D01*
X0516486Y0113764D01*
X0516542Y0113722D01*
X0516596Y0113677D01*
X0516647Y0113629D01*
X0516695Y0113578D01*
X0516740Y0113524D01*
X0516782Y0113468D01*
X0516821Y0113410D01*
X0516857Y0113350D01*
X0516889Y0113287D01*
X0516918Y0113223D01*
X0516943Y0113158D01*
X0516964Y0113091D01*
X0516982Y0113023D01*
X0516995Y0112954D01*
X0517005Y0112885D01*
X0517011Y0112815D01*
X0517013Y0112745D01*
X0517011Y0112675D01*
X0517005Y0112605D01*
X0516995Y0112536D01*
X0516982Y0112467D01*
X0516964Y0112399D01*
X0516943Y0112332D01*
X0516918Y0112267D01*
X0516889Y0112203D01*
X0516857Y0112140D01*
X0516821Y0112080D01*
X0516782Y0112022D01*
X0516740Y0111966D01*
X0516695Y0111912D01*
X0516647Y0111861D01*
X0516596Y0111813D01*
X0516542Y0111768D01*
X0516486Y0111726D01*
X0516428Y0111687D01*
X0516368Y0111651D01*
X0516305Y0111619D01*
X0516241Y0111590D01*
X0516176Y0111565D01*
X0516109Y0111544D01*
X0516041Y0111526D01*
X0515972Y0111513D01*
X0515903Y0111503D01*
X0515833Y0111497D01*
X0515763Y0111495D01*
X0515693Y0111497D01*
X0515623Y0111503D01*
X0515554Y0111513D01*
X0515485Y0111526D01*
X0515417Y0111544D01*
X0515350Y0111565D01*
X0515285Y0111590D01*
X0515221Y0111619D01*
X0515158Y0111651D01*
X0515098Y0111687D01*
X0515040Y0111726D01*
X0514984Y0111768D01*
X0514930Y0111813D01*
X0514879Y0111861D01*
X0514831Y0111912D01*
X0514786Y0111966D01*
X0514744Y0112022D01*
X0514705Y0112080D01*
X0514669Y0112140D01*
X0514637Y0112203D01*
X0514608Y0112267D01*
X0514583Y0112332D01*
X0514562Y0112399D01*
X0514544Y0112467D01*
X0514531Y0112536D01*
X0514521Y0112605D01*
X0514515Y0112675D01*
X0514513Y0112745D01*
X0519288Y0112745D02*
X0519290Y0112815D01*
X0519296Y0112885D01*
X0519306Y0112954D01*
X0519319Y0113023D01*
X0519337Y0113091D01*
X0519358Y0113158D01*
X0519383Y0113223D01*
X0519412Y0113287D01*
X0519444Y0113350D01*
X0519480Y0113410D01*
X0519519Y0113468D01*
X0519561Y0113524D01*
X0519606Y0113578D01*
X0519654Y0113629D01*
X0519705Y0113677D01*
X0519759Y0113722D01*
X0519815Y0113764D01*
X0519873Y0113803D01*
X0519933Y0113839D01*
X0519996Y0113871D01*
X0520060Y0113900D01*
X0520125Y0113925D01*
X0520192Y0113946D01*
X0520260Y0113964D01*
X0520329Y0113977D01*
X0520398Y0113987D01*
X0520468Y0113993D01*
X0520538Y0113995D01*
X0520608Y0113993D01*
X0520678Y0113987D01*
X0520747Y0113977D01*
X0520816Y0113964D01*
X0520884Y0113946D01*
X0520951Y0113925D01*
X0521016Y0113900D01*
X0521080Y0113871D01*
X0521143Y0113839D01*
X0521203Y0113803D01*
X0521261Y0113764D01*
X0521317Y0113722D01*
X0521371Y0113677D01*
X0521422Y0113629D01*
X0521470Y0113578D01*
X0521515Y0113524D01*
X0521557Y0113468D01*
X0521596Y0113410D01*
X0521632Y0113350D01*
X0521664Y0113287D01*
X0521693Y0113223D01*
X0521718Y0113158D01*
X0521739Y0113091D01*
X0521757Y0113023D01*
X0521770Y0112954D01*
X0521780Y0112885D01*
X0521786Y0112815D01*
X0521788Y0112745D01*
X0521786Y0112675D01*
X0521780Y0112605D01*
X0521770Y0112536D01*
X0521757Y0112467D01*
X0521739Y0112399D01*
X0521718Y0112332D01*
X0521693Y0112267D01*
X0521664Y0112203D01*
X0521632Y0112140D01*
X0521596Y0112080D01*
X0521557Y0112022D01*
X0521515Y0111966D01*
X0521470Y0111912D01*
X0521422Y0111861D01*
X0521371Y0111813D01*
X0521317Y0111768D01*
X0521261Y0111726D01*
X0521203Y0111687D01*
X0521143Y0111651D01*
X0521080Y0111619D01*
X0521016Y0111590D01*
X0520951Y0111565D01*
X0520884Y0111544D01*
X0520816Y0111526D01*
X0520747Y0111513D01*
X0520678Y0111503D01*
X0520608Y0111497D01*
X0520538Y0111495D01*
X0520468Y0111497D01*
X0520398Y0111503D01*
X0520329Y0111513D01*
X0520260Y0111526D01*
X0520192Y0111544D01*
X0520125Y0111565D01*
X0520060Y0111590D01*
X0519996Y0111619D01*
X0519933Y0111651D01*
X0519873Y0111687D01*
X0519815Y0111726D01*
X0519759Y0111768D01*
X0519705Y0111813D01*
X0519654Y0111861D01*
X0519606Y0111912D01*
X0519561Y0111966D01*
X0519519Y0112022D01*
X0519480Y0112080D01*
X0519444Y0112140D01*
X0519412Y0112203D01*
X0519383Y0112267D01*
X0519358Y0112332D01*
X0519337Y0112399D01*
X0519319Y0112467D01*
X0519306Y0112536D01*
X0519296Y0112605D01*
X0519290Y0112675D01*
X0519288Y0112745D01*
X0519288Y0107970D02*
X0519290Y0108040D01*
X0519296Y0108110D01*
X0519306Y0108179D01*
X0519319Y0108248D01*
X0519337Y0108316D01*
X0519358Y0108383D01*
X0519383Y0108448D01*
X0519412Y0108512D01*
X0519444Y0108575D01*
X0519480Y0108635D01*
X0519519Y0108693D01*
X0519561Y0108749D01*
X0519606Y0108803D01*
X0519654Y0108854D01*
X0519705Y0108902D01*
X0519759Y0108947D01*
X0519815Y0108989D01*
X0519873Y0109028D01*
X0519933Y0109064D01*
X0519996Y0109096D01*
X0520060Y0109125D01*
X0520125Y0109150D01*
X0520192Y0109171D01*
X0520260Y0109189D01*
X0520329Y0109202D01*
X0520398Y0109212D01*
X0520468Y0109218D01*
X0520538Y0109220D01*
X0520608Y0109218D01*
X0520678Y0109212D01*
X0520747Y0109202D01*
X0520816Y0109189D01*
X0520884Y0109171D01*
X0520951Y0109150D01*
X0521016Y0109125D01*
X0521080Y0109096D01*
X0521143Y0109064D01*
X0521203Y0109028D01*
X0521261Y0108989D01*
X0521317Y0108947D01*
X0521371Y0108902D01*
X0521422Y0108854D01*
X0521470Y0108803D01*
X0521515Y0108749D01*
X0521557Y0108693D01*
X0521596Y0108635D01*
X0521632Y0108575D01*
X0521664Y0108512D01*
X0521693Y0108448D01*
X0521718Y0108383D01*
X0521739Y0108316D01*
X0521757Y0108248D01*
X0521770Y0108179D01*
X0521780Y0108110D01*
X0521786Y0108040D01*
X0521788Y0107970D01*
X0521786Y0107900D01*
X0521780Y0107830D01*
X0521770Y0107761D01*
X0521757Y0107692D01*
X0521739Y0107624D01*
X0521718Y0107557D01*
X0521693Y0107492D01*
X0521664Y0107428D01*
X0521632Y0107365D01*
X0521596Y0107305D01*
X0521557Y0107247D01*
X0521515Y0107191D01*
X0521470Y0107137D01*
X0521422Y0107086D01*
X0521371Y0107038D01*
X0521317Y0106993D01*
X0521261Y0106951D01*
X0521203Y0106912D01*
X0521143Y0106876D01*
X0521080Y0106844D01*
X0521016Y0106815D01*
X0520951Y0106790D01*
X0520884Y0106769D01*
X0520816Y0106751D01*
X0520747Y0106738D01*
X0520678Y0106728D01*
X0520608Y0106722D01*
X0520538Y0106720D01*
X0520468Y0106722D01*
X0520398Y0106728D01*
X0520329Y0106738D01*
X0520260Y0106751D01*
X0520192Y0106769D01*
X0520125Y0106790D01*
X0520060Y0106815D01*
X0519996Y0106844D01*
X0519933Y0106876D01*
X0519873Y0106912D01*
X0519815Y0106951D01*
X0519759Y0106993D01*
X0519705Y0107038D01*
X0519654Y0107086D01*
X0519606Y0107137D01*
X0519561Y0107191D01*
X0519519Y0107247D01*
X0519480Y0107305D01*
X0519444Y0107365D01*
X0519412Y0107428D01*
X0519383Y0107492D01*
X0519358Y0107557D01*
X0519337Y0107624D01*
X0519319Y0107692D01*
X0519306Y0107761D01*
X0519296Y0107830D01*
X0519290Y0107900D01*
X0519288Y0107970D01*
X0524063Y0107970D02*
X0524065Y0108040D01*
X0524071Y0108110D01*
X0524081Y0108179D01*
X0524094Y0108248D01*
X0524112Y0108316D01*
X0524133Y0108383D01*
X0524158Y0108448D01*
X0524187Y0108512D01*
X0524219Y0108575D01*
X0524255Y0108635D01*
X0524294Y0108693D01*
X0524336Y0108749D01*
X0524381Y0108803D01*
X0524429Y0108854D01*
X0524480Y0108902D01*
X0524534Y0108947D01*
X0524590Y0108989D01*
X0524648Y0109028D01*
X0524708Y0109064D01*
X0524771Y0109096D01*
X0524835Y0109125D01*
X0524900Y0109150D01*
X0524967Y0109171D01*
X0525035Y0109189D01*
X0525104Y0109202D01*
X0525173Y0109212D01*
X0525243Y0109218D01*
X0525313Y0109220D01*
X0525383Y0109218D01*
X0525453Y0109212D01*
X0525522Y0109202D01*
X0525591Y0109189D01*
X0525659Y0109171D01*
X0525726Y0109150D01*
X0525791Y0109125D01*
X0525855Y0109096D01*
X0525918Y0109064D01*
X0525978Y0109028D01*
X0526036Y0108989D01*
X0526092Y0108947D01*
X0526146Y0108902D01*
X0526197Y0108854D01*
X0526245Y0108803D01*
X0526290Y0108749D01*
X0526332Y0108693D01*
X0526371Y0108635D01*
X0526407Y0108575D01*
X0526439Y0108512D01*
X0526468Y0108448D01*
X0526493Y0108383D01*
X0526514Y0108316D01*
X0526532Y0108248D01*
X0526545Y0108179D01*
X0526555Y0108110D01*
X0526561Y0108040D01*
X0526563Y0107970D01*
X0526561Y0107900D01*
X0526555Y0107830D01*
X0526545Y0107761D01*
X0526532Y0107692D01*
X0526514Y0107624D01*
X0526493Y0107557D01*
X0526468Y0107492D01*
X0526439Y0107428D01*
X0526407Y0107365D01*
X0526371Y0107305D01*
X0526332Y0107247D01*
X0526290Y0107191D01*
X0526245Y0107137D01*
X0526197Y0107086D01*
X0526146Y0107038D01*
X0526092Y0106993D01*
X0526036Y0106951D01*
X0525978Y0106912D01*
X0525918Y0106876D01*
X0525855Y0106844D01*
X0525791Y0106815D01*
X0525726Y0106790D01*
X0525659Y0106769D01*
X0525591Y0106751D01*
X0525522Y0106738D01*
X0525453Y0106728D01*
X0525383Y0106722D01*
X0525313Y0106720D01*
X0525243Y0106722D01*
X0525173Y0106728D01*
X0525104Y0106738D01*
X0525035Y0106751D01*
X0524967Y0106769D01*
X0524900Y0106790D01*
X0524835Y0106815D01*
X0524771Y0106844D01*
X0524708Y0106876D01*
X0524648Y0106912D01*
X0524590Y0106951D01*
X0524534Y0106993D01*
X0524480Y0107038D01*
X0524429Y0107086D01*
X0524381Y0107137D01*
X0524336Y0107191D01*
X0524294Y0107247D01*
X0524255Y0107305D01*
X0524219Y0107365D01*
X0524187Y0107428D01*
X0524158Y0107492D01*
X0524133Y0107557D01*
X0524112Y0107624D01*
X0524094Y0107692D01*
X0524081Y0107761D01*
X0524071Y0107830D01*
X0524065Y0107900D01*
X0524063Y0107970D01*
X0524063Y0112745D02*
X0524065Y0112815D01*
X0524071Y0112885D01*
X0524081Y0112954D01*
X0524094Y0113023D01*
X0524112Y0113091D01*
X0524133Y0113158D01*
X0524158Y0113223D01*
X0524187Y0113287D01*
X0524219Y0113350D01*
X0524255Y0113410D01*
X0524294Y0113468D01*
X0524336Y0113524D01*
X0524381Y0113578D01*
X0524429Y0113629D01*
X0524480Y0113677D01*
X0524534Y0113722D01*
X0524590Y0113764D01*
X0524648Y0113803D01*
X0524708Y0113839D01*
X0524771Y0113871D01*
X0524835Y0113900D01*
X0524900Y0113925D01*
X0524967Y0113946D01*
X0525035Y0113964D01*
X0525104Y0113977D01*
X0525173Y0113987D01*
X0525243Y0113993D01*
X0525313Y0113995D01*
X0525383Y0113993D01*
X0525453Y0113987D01*
X0525522Y0113977D01*
X0525591Y0113964D01*
X0525659Y0113946D01*
X0525726Y0113925D01*
X0525791Y0113900D01*
X0525855Y0113871D01*
X0525918Y0113839D01*
X0525978Y0113803D01*
X0526036Y0113764D01*
X0526092Y0113722D01*
X0526146Y0113677D01*
X0526197Y0113629D01*
X0526245Y0113578D01*
X0526290Y0113524D01*
X0526332Y0113468D01*
X0526371Y0113410D01*
X0526407Y0113350D01*
X0526439Y0113287D01*
X0526468Y0113223D01*
X0526493Y0113158D01*
X0526514Y0113091D01*
X0526532Y0113023D01*
X0526545Y0112954D01*
X0526555Y0112885D01*
X0526561Y0112815D01*
X0526563Y0112745D01*
X0526561Y0112675D01*
X0526555Y0112605D01*
X0526545Y0112536D01*
X0526532Y0112467D01*
X0526514Y0112399D01*
X0526493Y0112332D01*
X0526468Y0112267D01*
X0526439Y0112203D01*
X0526407Y0112140D01*
X0526371Y0112080D01*
X0526332Y0112022D01*
X0526290Y0111966D01*
X0526245Y0111912D01*
X0526197Y0111861D01*
X0526146Y0111813D01*
X0526092Y0111768D01*
X0526036Y0111726D01*
X0525978Y0111687D01*
X0525918Y0111651D01*
X0525855Y0111619D01*
X0525791Y0111590D01*
X0525726Y0111565D01*
X0525659Y0111544D01*
X0525591Y0111526D01*
X0525522Y0111513D01*
X0525453Y0111503D01*
X0525383Y0111497D01*
X0525313Y0111495D01*
X0525243Y0111497D01*
X0525173Y0111503D01*
X0525104Y0111513D01*
X0525035Y0111526D01*
X0524967Y0111544D01*
X0524900Y0111565D01*
X0524835Y0111590D01*
X0524771Y0111619D01*
X0524708Y0111651D01*
X0524648Y0111687D01*
X0524590Y0111726D01*
X0524534Y0111768D01*
X0524480Y0111813D01*
X0524429Y0111861D01*
X0524381Y0111912D01*
X0524336Y0111966D01*
X0524294Y0112022D01*
X0524255Y0112080D01*
X0524219Y0112140D01*
X0524187Y0112203D01*
X0524158Y0112267D01*
X0524133Y0112332D01*
X0524112Y0112399D01*
X0524094Y0112467D01*
X0524081Y0112536D01*
X0524071Y0112605D01*
X0524065Y0112675D01*
X0524063Y0112745D01*
X0502603Y0393203D02*
X0502603Y0397706D01*
X0500352Y0397706D01*
X0499601Y0396956D01*
X0499601Y0395455D01*
X0500352Y0394704D01*
X0502603Y0394704D01*
X0504205Y0395455D02*
X0504205Y0396956D01*
X0504955Y0397706D01*
X0506457Y0397706D01*
X0507207Y0396956D01*
X0507207Y0395455D01*
X0506457Y0394704D01*
X0504955Y0394704D01*
X0504205Y0395455D01*
X0508809Y0396956D02*
X0511811Y0396956D01*
X0513413Y0397706D02*
X0516415Y0394704D01*
X0513413Y0394704D01*
X0513413Y0397706D02*
X0516415Y0397706D01*
X0518017Y0396956D02*
X0518017Y0396205D01*
X0521019Y0396205D01*
X0521019Y0395455D02*
X0521019Y0396956D01*
X0520269Y0397706D01*
X0518767Y0397706D01*
X0518017Y0396956D01*
X0518767Y0394704D02*
X0520269Y0394704D01*
X0521019Y0395455D01*
X0522621Y0396205D02*
X0525623Y0396205D01*
X0525623Y0395455D02*
X0525623Y0396956D01*
X0524872Y0397706D01*
X0523371Y0397706D01*
X0522621Y0396956D01*
X0522621Y0396205D01*
X0523371Y0394704D02*
X0524872Y0394704D01*
X0525623Y0395455D01*
X0527224Y0399208D02*
X0530227Y0394704D01*
X0531828Y0394704D02*
X0531828Y0396956D01*
X0532579Y0397706D01*
X0533330Y0396956D01*
X0533330Y0394704D01*
X0534831Y0394704D02*
X0534831Y0397706D01*
X0534080Y0397706D01*
X0533330Y0396956D01*
X0536432Y0396956D02*
X0537183Y0397706D01*
X0538684Y0397706D01*
X0539435Y0396956D01*
X0539435Y0395455D01*
X0538684Y0394704D01*
X0537183Y0394704D01*
X0536432Y0395455D01*
X0536432Y0396956D01*
X0541036Y0397706D02*
X0543288Y0397706D01*
X0544039Y0396956D01*
X0544039Y0395455D01*
X0543288Y0394704D01*
X0541036Y0394704D01*
X0545590Y0394704D02*
X0546341Y0394704D01*
X0546341Y0395455D01*
X0545590Y0395455D01*
X0545590Y0394704D01*
X0547942Y0395455D02*
X0547942Y0396956D01*
X0548693Y0397706D01*
X0550945Y0397706D01*
X0550945Y0399208D02*
X0550945Y0394704D01*
X0548693Y0394704D01*
X0547942Y0395455D01*
X0552546Y0394704D02*
X0552546Y0397706D01*
X0552546Y0394704D02*
X0554798Y0394704D01*
X0555549Y0395455D01*
X0555549Y0397706D01*
X0557150Y0396956D02*
X0557901Y0397706D01*
X0559402Y0397706D01*
X0560153Y0396956D01*
X0561721Y0397706D02*
X0563222Y0397706D01*
X0562471Y0398457D02*
X0562471Y0395455D01*
X0561721Y0394704D01*
X0560153Y0394704D02*
X0560153Y0399208D01*
X0557150Y0396956D02*
X0557150Y0394704D01*
X0564790Y0394704D02*
X0566291Y0394704D01*
X0565540Y0394704D02*
X0565540Y0397706D01*
X0566291Y0397706D01*
X0567892Y0397706D02*
X0570144Y0397706D01*
X0570895Y0396956D01*
X0570895Y0395455D01*
X0570144Y0394704D01*
X0567892Y0394704D01*
X0567892Y0393953D02*
X0567892Y0397706D01*
X0565540Y0399208D02*
X0565540Y0399958D01*
X0564806Y0402204D02*
X0566308Y0402204D01*
X0567058Y0402955D01*
X0564056Y0405957D01*
X0564056Y0402955D01*
X0564806Y0402204D01*
X0567058Y0402955D02*
X0567058Y0405957D01*
X0566308Y0406708D01*
X0564806Y0406708D01*
X0564056Y0405957D01*
X0568660Y0405957D02*
X0569410Y0406708D01*
X0570912Y0406708D01*
X0571662Y0405957D01*
X0573264Y0405957D02*
X0576266Y0402955D01*
X0575516Y0402204D01*
X0574014Y0402204D01*
X0573264Y0402955D01*
X0573264Y0405957D01*
X0574014Y0406708D01*
X0575516Y0406708D01*
X0576266Y0405957D01*
X0576266Y0402955D01*
X0577868Y0402204D02*
X0580870Y0402204D01*
X0577868Y0405206D01*
X0577868Y0405957D01*
X0578618Y0406708D01*
X0580120Y0406708D01*
X0580870Y0405957D01*
X0582472Y0406708D02*
X0585474Y0402204D01*
X0587075Y0402204D02*
X0590078Y0402204D01*
X0587075Y0405206D01*
X0587075Y0405957D01*
X0587826Y0406708D01*
X0589327Y0406708D01*
X0590078Y0405957D01*
X0593181Y0406708D02*
X0593181Y0402204D01*
X0594682Y0402204D02*
X0591679Y0402204D01*
X0594682Y0405206D02*
X0593181Y0406708D01*
X0596250Y0406708D02*
X0597751Y0405206D01*
X0597751Y0403705D01*
X0596250Y0402204D01*
X0595466Y0397706D02*
X0593214Y0397706D01*
X0591613Y0396956D02*
X0590862Y0397706D01*
X0589361Y0397706D01*
X0588610Y0396956D01*
X0588610Y0395455D01*
X0589361Y0394704D01*
X0590862Y0394704D01*
X0591613Y0395455D01*
X0591613Y0396956D01*
X0593214Y0394704D02*
X0595466Y0394704D01*
X0596217Y0395455D01*
X0596217Y0396956D01*
X0595466Y0397706D01*
X0602422Y0396956D02*
X0602422Y0396205D01*
X0605424Y0396205D01*
X0605424Y0395455D02*
X0605424Y0396956D01*
X0604674Y0397706D01*
X0603173Y0397706D01*
X0602422Y0396956D01*
X0603173Y0394704D02*
X0604674Y0394704D01*
X0605424Y0395455D01*
X0607026Y0394704D02*
X0609278Y0394704D01*
X0610028Y0395455D01*
X0610028Y0396956D01*
X0609278Y0397706D01*
X0607026Y0397706D01*
X0606208Y0402204D02*
X0604707Y0402204D01*
X0603957Y0402955D01*
X0603957Y0403705D01*
X0604707Y0404456D01*
X0606959Y0404456D01*
X0606959Y0402955D01*
X0606208Y0402204D01*
X0606959Y0404456D02*
X0605458Y0405957D01*
X0603957Y0406708D01*
X0608560Y0404456D02*
X0611563Y0404456D01*
X0609311Y0406708D01*
X0609311Y0402204D01*
X0613164Y0402204D02*
X0616167Y0406708D01*
X0617768Y0406708D02*
X0617768Y0402204D01*
X0616167Y0402204D02*
X0613164Y0406708D01*
X0617768Y0406708D02*
X0619270Y0405206D01*
X0620771Y0406708D01*
X0620771Y0402204D01*
X0622372Y0402955D02*
X0623123Y0402204D01*
X0624624Y0402204D01*
X0625375Y0402955D01*
X0624624Y0404456D02*
X0623123Y0404456D01*
X0622372Y0403705D01*
X0622372Y0402955D01*
X0624624Y0404456D02*
X0625375Y0405206D01*
X0625375Y0405957D01*
X0624624Y0406708D01*
X0623123Y0406708D01*
X0622372Y0405957D01*
X0622322Y0397706D02*
X0620821Y0397706D01*
X0620070Y0396956D01*
X0620070Y0395455D01*
X0620821Y0394704D01*
X0622322Y0394704D01*
X0623073Y0395455D01*
X0623073Y0396956D01*
X0622322Y0397706D01*
X0624674Y0397706D02*
X0626926Y0397706D01*
X0627677Y0396956D01*
X0626926Y0396205D01*
X0625425Y0396205D01*
X0624674Y0395455D01*
X0625425Y0394704D01*
X0627677Y0394704D01*
X0633849Y0394704D02*
X0634599Y0395455D01*
X0634599Y0398457D01*
X0633849Y0397706D02*
X0635350Y0397706D01*
X0636951Y0397706D02*
X0639203Y0397706D01*
X0639954Y0396956D01*
X0639954Y0395455D01*
X0639203Y0394704D01*
X0636951Y0394704D01*
X0641555Y0396205D02*
X0644558Y0396205D01*
X0644558Y0395455D02*
X0644558Y0396956D01*
X0643807Y0397706D01*
X0642306Y0397706D01*
X0641555Y0396956D01*
X0641555Y0396205D01*
X0642306Y0394704D02*
X0643807Y0394704D01*
X0644558Y0395455D01*
X0646126Y0393953D02*
X0646126Y0397706D01*
X0646126Y0399208D02*
X0646126Y0399958D01*
X0648461Y0402204D02*
X0651464Y0402204D01*
X0651464Y0402955D01*
X0648461Y0405957D01*
X0648461Y0406708D01*
X0651464Y0406708D01*
X0653065Y0406708D02*
X0656068Y0406708D01*
X0656068Y0402204D01*
X0653065Y0402204D01*
X0654566Y0404456D02*
X0656068Y0404456D01*
X0657669Y0406708D02*
X0660672Y0406708D01*
X0660672Y0402204D01*
X0657669Y0402204D01*
X0659170Y0404456D02*
X0660672Y0404456D01*
X0660672Y0399208D02*
X0658420Y0399208D01*
X0657669Y0398457D01*
X0657669Y0396956D01*
X0658420Y0396205D01*
X0660672Y0396205D01*
X0660672Y0394704D02*
X0660672Y0399208D01*
X0656068Y0397706D02*
X0656068Y0394704D01*
X0656068Y0396205D02*
X0654566Y0397706D01*
X0653816Y0397706D01*
X0652231Y0396956D02*
X0651480Y0397706D01*
X0649979Y0397706D01*
X0649228Y0396956D01*
X0649228Y0395455D01*
X0649979Y0394704D01*
X0651480Y0394704D01*
X0652231Y0395455D01*
X0652231Y0396956D01*
X0647627Y0393203D02*
X0646876Y0393203D01*
X0646126Y0393953D01*
X0642256Y0402204D02*
X0640004Y0402204D01*
X0639253Y0402955D01*
X0639253Y0405957D01*
X0640004Y0406708D01*
X0642256Y0406708D01*
X0642256Y0402204D01*
X0637652Y0402204D02*
X0636151Y0402204D01*
X0636901Y0402204D02*
X0636901Y0406708D01*
X0636151Y0406708D02*
X0637652Y0406708D01*
X0634583Y0406708D02*
X0632331Y0406708D01*
X0631580Y0405957D01*
X0631580Y0405206D01*
X0632331Y0404456D01*
X0634583Y0404456D01*
X0634583Y0402204D02*
X0634583Y0406708D01*
X0632331Y0404456D02*
X0631580Y0403705D01*
X0631580Y0402955D01*
X0632331Y0402204D01*
X0634583Y0402204D01*
X0618469Y0397706D02*
X0618469Y0395455D01*
X0617718Y0394704D01*
X0615466Y0394704D01*
X0615466Y0397706D01*
X0613865Y0397706D02*
X0613865Y0394704D01*
X0613865Y0396205D02*
X0612364Y0397706D01*
X0611613Y0397706D01*
X0587009Y0396956D02*
X0586258Y0397706D01*
X0584006Y0397706D01*
X0584006Y0399208D02*
X0584006Y0394704D01*
X0586258Y0394704D01*
X0587009Y0395455D01*
X0587009Y0396956D01*
X0582405Y0396956D02*
X0581654Y0397706D01*
X0580153Y0397706D01*
X0579402Y0396956D01*
X0579402Y0396205D01*
X0582405Y0396205D01*
X0582405Y0395455D02*
X0582405Y0396956D01*
X0582405Y0395455D02*
X0581654Y0394704D01*
X0580153Y0394704D01*
X0577801Y0394704D02*
X0577801Y0395455D01*
X0577050Y0395455D01*
X0577050Y0394704D01*
X0577801Y0394704D01*
X0577801Y0396956D02*
X0577801Y0397706D01*
X0577050Y0397706D01*
X0577050Y0396956D01*
X0577801Y0396956D01*
X0569394Y0393203D02*
X0568643Y0393203D01*
X0567892Y0393953D01*
X0568660Y0402204D02*
X0571662Y0402204D01*
X0568660Y0405206D01*
X0568660Y0405957D01*
X0557851Y0405206D02*
X0557851Y0402204D01*
X0557851Y0403705D02*
X0556349Y0405206D01*
X0555599Y0405206D01*
X0554014Y0405206D02*
X0552513Y0406708D01*
X0552513Y0402204D01*
X0554014Y0402204D02*
X0551011Y0402204D01*
X0549410Y0402204D02*
X0547158Y0402204D01*
X0546407Y0402955D01*
X0546407Y0403705D01*
X0547158Y0404456D01*
X0549410Y0404456D01*
X0549410Y0406708D02*
X0547158Y0406708D01*
X0546407Y0405957D01*
X0546407Y0405206D01*
X0547158Y0404456D01*
X0544806Y0404456D02*
X0541804Y0404456D01*
X0542554Y0406708D02*
X0544806Y0404456D01*
X0542554Y0402204D02*
X0542554Y0406708D01*
X0540202Y0406708D02*
X0538701Y0405206D01*
X0538701Y0403705D01*
X0540202Y0402204D01*
X0549410Y0402204D02*
X0549410Y0406708D01*
X0498000Y0396956D02*
X0497249Y0397706D01*
X0495748Y0397706D01*
X0494997Y0396956D01*
X0494997Y0396205D01*
X0498000Y0396205D01*
X0498000Y0395455D02*
X0498000Y0396956D01*
X0498000Y0395455D02*
X0497249Y0394704D01*
X0495748Y0394704D01*
X0493396Y0394704D02*
X0493396Y0397706D01*
X0491144Y0397706D01*
X0490393Y0396956D01*
X0490393Y0394704D01*
D11*
X0523685Y0146285D02*
X0526104Y0146285D01*
X0526588Y0145801D01*
X0526588Y0144834D01*
X0526104Y0144350D01*
X0523685Y0144350D01*
X0524653Y0143338D02*
X0523685Y0142371D01*
X0524653Y0141403D01*
X0526588Y0141403D01*
X0526588Y0140392D02*
X0523685Y0140392D01*
X0523685Y0138941D01*
X0524169Y0138457D01*
X0525136Y0138457D01*
X0525620Y0138941D01*
X0525620Y0140392D01*
X0525620Y0139424D02*
X0526588Y0138457D01*
X0526588Y0136478D02*
X0523685Y0136478D01*
X0523685Y0137445D02*
X0523685Y0135510D01*
X0521788Y0135994D02*
X0521788Y0137445D01*
X0518885Y0137445D01*
X0518885Y0135994D01*
X0519369Y0135510D01*
X0519853Y0135510D01*
X0520336Y0135994D01*
X0520336Y0137445D01*
X0520336Y0135994D02*
X0520820Y0135510D01*
X0521304Y0135510D01*
X0521788Y0135994D01*
X0521304Y0134499D02*
X0521788Y0134015D01*
X0521788Y0133048D01*
X0521304Y0132564D01*
X0519369Y0132564D01*
X0518885Y0133048D01*
X0518885Y0134015D01*
X0519369Y0134499D01*
X0521304Y0134499D01*
X0521304Y0131552D02*
X0521788Y0131069D01*
X0521788Y0130101D01*
X0521304Y0129617D01*
X0519369Y0129617D01*
X0518885Y0130101D01*
X0518885Y0131069D01*
X0519369Y0131552D01*
X0521304Y0131552D01*
X0523685Y0131552D02*
X0523685Y0129617D01*
X0523685Y0130585D02*
X0526588Y0130585D01*
X0526588Y0128606D02*
X0523685Y0126671D01*
X0523685Y0128606D02*
X0526588Y0126671D01*
X0526588Y0122713D02*
X0524653Y0120778D01*
X0524169Y0120778D01*
X0523685Y0121261D01*
X0523685Y0122229D01*
X0524169Y0122713D01*
X0521788Y0122713D02*
X0519853Y0120778D01*
X0519369Y0120778D01*
X0518885Y0121261D01*
X0518885Y0122229D01*
X0519369Y0122713D01*
X0516988Y0122713D02*
X0515053Y0120778D01*
X0514569Y0120778D01*
X0514085Y0121261D01*
X0514085Y0122229D01*
X0514569Y0122713D01*
X0512188Y0122713D02*
X0510253Y0120778D01*
X0509769Y0120778D01*
X0509285Y0121261D01*
X0509285Y0122229D01*
X0509769Y0122713D01*
X0507388Y0122713D02*
X0505453Y0120778D01*
X0504969Y0120778D01*
X0504485Y0121261D01*
X0504485Y0122229D01*
X0504969Y0122713D01*
X0502588Y0122713D02*
X0502588Y0120778D01*
X0502588Y0121745D02*
X0499685Y0121745D01*
X0500653Y0122713D01*
X0497788Y0122713D02*
X0497788Y0120778D01*
X0497788Y0121745D02*
X0494885Y0121745D01*
X0495853Y0122713D01*
X0492988Y0122713D02*
X0492988Y0120778D01*
X0492988Y0121745D02*
X0490085Y0121745D01*
X0491053Y0122713D01*
X0488188Y0122713D02*
X0488188Y0120778D01*
X0488188Y0121745D02*
X0485285Y0121745D01*
X0486253Y0122713D01*
X0483388Y0122713D02*
X0483388Y0120778D01*
X0483388Y0121745D02*
X0480485Y0121745D01*
X0481453Y0122713D01*
X0480969Y0119766D02*
X0480485Y0119282D01*
X0480485Y0118315D01*
X0480969Y0117831D01*
X0482904Y0119766D01*
X0483388Y0119282D01*
X0483388Y0118315D01*
X0482904Y0117831D01*
X0480969Y0117831D01*
X0480969Y0119766D02*
X0482904Y0119766D01*
X0485285Y0119282D02*
X0485769Y0119766D01*
X0485285Y0119282D02*
X0485285Y0118315D01*
X0485769Y0117831D01*
X0486253Y0117831D01*
X0488188Y0119766D01*
X0488188Y0117831D01*
X0490085Y0118315D02*
X0491536Y0119766D01*
X0491536Y0117831D01*
X0490085Y0118315D02*
X0492988Y0118315D01*
X0494885Y0117831D02*
X0495369Y0118799D01*
X0496336Y0119766D01*
X0496336Y0118315D01*
X0496820Y0117831D01*
X0497304Y0117831D01*
X0497788Y0118315D01*
X0497788Y0119282D01*
X0497304Y0119766D01*
X0496336Y0119766D01*
X0499685Y0119282D02*
X0500169Y0119766D01*
X0500653Y0119766D01*
X0501136Y0119282D01*
X0501136Y0118315D01*
X0501620Y0117831D01*
X0502104Y0117831D01*
X0502588Y0118315D01*
X0502588Y0119282D01*
X0502104Y0119766D01*
X0501620Y0119766D01*
X0501136Y0119282D01*
X0501136Y0118315D02*
X0500653Y0117831D01*
X0500169Y0117831D01*
X0499685Y0118315D01*
X0499685Y0119282D01*
X0504485Y0119282D02*
X0504969Y0119766D01*
X0506904Y0119766D01*
X0504969Y0117831D01*
X0506904Y0117831D01*
X0507388Y0118315D01*
X0507388Y0119282D01*
X0506904Y0119766D01*
X0507388Y0120778D02*
X0507388Y0122713D01*
X0509769Y0119766D02*
X0509285Y0119282D01*
X0509285Y0118315D01*
X0509769Y0117831D01*
X0510253Y0117831D01*
X0512188Y0119766D01*
X0512188Y0117831D01*
X0514085Y0118315D02*
X0515536Y0119766D01*
X0515536Y0117831D01*
X0514085Y0118315D02*
X0516988Y0118315D01*
X0518885Y0117831D02*
X0519369Y0118799D01*
X0520336Y0119766D01*
X0520336Y0118315D01*
X0520820Y0117831D01*
X0521304Y0117831D01*
X0521788Y0118315D01*
X0521788Y0119282D01*
X0521304Y0119766D01*
X0520336Y0119766D01*
X0521788Y0120778D02*
X0521788Y0122713D01*
X0524169Y0119766D02*
X0523685Y0119282D01*
X0523685Y0118315D01*
X0524169Y0117831D01*
X0524653Y0117831D01*
X0525136Y0118315D01*
X0525136Y0119282D01*
X0524653Y0119766D01*
X0524169Y0119766D01*
X0525136Y0119282D02*
X0525620Y0119766D01*
X0526104Y0119766D01*
X0526588Y0119282D01*
X0526588Y0118315D01*
X0526104Y0117831D01*
X0525620Y0117831D01*
X0525136Y0118315D01*
X0526588Y0120778D02*
X0526588Y0122713D01*
X0521788Y0127638D02*
X0518885Y0127638D01*
X0518885Y0126671D02*
X0518885Y0128606D01*
X0516988Y0127638D02*
X0516020Y0126671D01*
X0514085Y0126671D01*
X0514085Y0128606D02*
X0516020Y0128606D01*
X0516988Y0127638D01*
X0516504Y0129617D02*
X0516988Y0130101D01*
X0516988Y0131069D01*
X0516504Y0131552D01*
X0515536Y0131552D02*
X0515053Y0130585D01*
X0515053Y0130101D01*
X0515536Y0129617D01*
X0516504Y0129617D01*
X0515536Y0131552D02*
X0514085Y0131552D01*
X0514085Y0129617D01*
X0512188Y0129617D02*
X0512188Y0131552D01*
X0510253Y0129617D01*
X0509769Y0129617D01*
X0509285Y0130101D01*
X0509285Y0131069D01*
X0509769Y0131552D01*
X0509285Y0133531D02*
X0512188Y0133531D01*
X0512188Y0132564D02*
X0512188Y0134499D01*
X0510736Y0135510D02*
X0510736Y0137445D01*
X0509769Y0136478D02*
X0511704Y0136478D01*
X0510253Y0134499D02*
X0509285Y0133531D01*
X0507388Y0133048D02*
X0506904Y0132564D01*
X0505936Y0132564D01*
X0505936Y0133531D01*
X0504969Y0132564D02*
X0504485Y0133048D01*
X0504485Y0134015D01*
X0504969Y0134499D01*
X0506904Y0134499D01*
X0507388Y0134015D01*
X0507388Y0133048D01*
X0507388Y0131552D02*
X0504485Y0131552D01*
X0507388Y0129617D01*
X0504485Y0129617D01*
X0504485Y0128606D02*
X0504485Y0127155D01*
X0504969Y0126671D01*
X0506904Y0126671D01*
X0507388Y0127155D01*
X0507388Y0128606D01*
X0504485Y0128606D01*
X0502588Y0128606D02*
X0500653Y0126671D01*
X0500169Y0126671D01*
X0499685Y0127155D01*
X0499685Y0128122D01*
X0500169Y0128606D01*
X0500653Y0129617D02*
X0502588Y0129617D01*
X0502588Y0128606D02*
X0502588Y0126671D01*
X0501136Y0129617D02*
X0501136Y0131552D01*
X0500653Y0131552D02*
X0499685Y0130585D01*
X0500653Y0129617D01*
X0500653Y0131552D02*
X0502588Y0131552D01*
X0497788Y0131552D02*
X0494885Y0131552D01*
X0497788Y0129617D01*
X0494885Y0129617D01*
X0494885Y0128606D02*
X0494885Y0127155D01*
X0495369Y0126671D01*
X0497304Y0126671D01*
X0497788Y0127155D01*
X0497788Y0128606D01*
X0494885Y0128606D01*
X0492988Y0128122D02*
X0492988Y0127155D01*
X0492504Y0126671D01*
X0490569Y0126671D01*
X0490085Y0127155D01*
X0490085Y0128122D01*
X0490569Y0128606D01*
X0492504Y0128606D01*
X0492988Y0128122D01*
X0492504Y0129617D02*
X0492988Y0130101D01*
X0492988Y0131069D01*
X0492504Y0131552D01*
X0491536Y0131069D02*
X0491536Y0130101D01*
X0492020Y0129617D01*
X0492504Y0129617D01*
X0491536Y0131069D02*
X0491053Y0131552D01*
X0490569Y0131552D01*
X0490085Y0131069D01*
X0490085Y0130101D01*
X0490569Y0129617D01*
X0488188Y0130101D02*
X0488188Y0131069D01*
X0487704Y0131552D01*
X0487704Y0132564D02*
X0488188Y0133048D01*
X0488188Y0134015D01*
X0487704Y0134499D01*
X0485769Y0134499D01*
X0485285Y0134015D01*
X0485285Y0133048D01*
X0485769Y0132564D01*
X0485769Y0131552D02*
X0486253Y0131552D01*
X0486736Y0131069D01*
X0486736Y0130101D01*
X0487220Y0129617D01*
X0487704Y0129617D01*
X0488188Y0130101D01*
X0488188Y0128606D02*
X0488188Y0127155D01*
X0487704Y0126671D01*
X0487220Y0126671D01*
X0486736Y0127155D01*
X0486736Y0128606D01*
X0485769Y0129617D02*
X0485285Y0130101D01*
X0485285Y0131069D01*
X0485769Y0131552D01*
X0483388Y0131552D02*
X0480485Y0131552D01*
X0480485Y0130101D01*
X0480969Y0129617D01*
X0481936Y0129617D01*
X0482420Y0130101D01*
X0482420Y0131552D01*
X0482420Y0130585D02*
X0483388Y0129617D01*
X0482904Y0128606D02*
X0480969Y0128606D01*
X0480485Y0128122D01*
X0480485Y0127155D01*
X0480969Y0126671D01*
X0482904Y0126671D01*
X0483388Y0127155D01*
X0483388Y0128122D01*
X0482904Y0128606D01*
X0482420Y0127638D02*
X0483388Y0126671D01*
X0485285Y0127155D02*
X0485769Y0126671D01*
X0486253Y0126671D01*
X0486736Y0127155D01*
X0485285Y0127155D02*
X0485285Y0128606D01*
X0488188Y0128606D01*
X0490085Y0132549D02*
X0490085Y0133517D01*
X0490085Y0133033D02*
X0492988Y0133033D01*
X0492988Y0133517D02*
X0492988Y0132549D01*
X0494885Y0133048D02*
X0494885Y0134015D01*
X0495369Y0134499D01*
X0497304Y0134499D01*
X0497788Y0134015D01*
X0497788Y0133048D01*
X0497304Y0132564D01*
X0496336Y0132564D01*
X0496336Y0133531D01*
X0495369Y0132564D02*
X0494885Y0133048D01*
X0492988Y0134528D02*
X0490085Y0134528D01*
X0491053Y0135496D01*
X0490085Y0136463D01*
X0492988Y0136463D01*
X0483388Y0133517D02*
X0483388Y0132549D01*
X0483388Y0133033D02*
X0480485Y0133033D01*
X0480485Y0133517D02*
X0480485Y0132549D01*
X0478588Y0133048D02*
X0478588Y0134015D01*
X0478104Y0134499D01*
X0477136Y0134015D02*
X0476653Y0134499D01*
X0476169Y0134499D01*
X0475685Y0134015D01*
X0475685Y0133048D01*
X0476169Y0132564D01*
X0476169Y0131552D02*
X0476653Y0131552D01*
X0477136Y0131069D01*
X0477136Y0130101D01*
X0477620Y0129617D01*
X0478104Y0129617D01*
X0478588Y0130101D01*
X0478588Y0131069D01*
X0478104Y0131552D01*
X0478104Y0132564D02*
X0478588Y0133048D01*
X0478104Y0132564D02*
X0477620Y0132564D01*
X0477136Y0133048D01*
X0477136Y0134015D01*
X0476169Y0131552D02*
X0475685Y0131069D01*
X0475685Y0130101D01*
X0476169Y0129617D01*
X0475685Y0128606D02*
X0475685Y0127155D01*
X0476169Y0126671D01*
X0478104Y0126671D01*
X0478588Y0127155D01*
X0478588Y0128606D01*
X0475685Y0128606D01*
X0473788Y0128606D02*
X0470885Y0128606D01*
X0473788Y0126671D01*
X0470885Y0126671D01*
X0471369Y0125659D02*
X0473304Y0125659D01*
X0473788Y0125176D01*
X0473788Y0124208D01*
X0473304Y0123724D01*
X0471369Y0123724D02*
X0470885Y0124208D01*
X0470885Y0125176D01*
X0471369Y0125659D01*
X0468988Y0124692D02*
X0466085Y0124692D01*
X0466085Y0125659D02*
X0466085Y0123724D01*
X0464188Y0123724D02*
X0461285Y0125659D01*
X0461285Y0126671D02*
X0463704Y0126671D01*
X0464188Y0127155D01*
X0464188Y0128122D01*
X0463704Y0128606D01*
X0461285Y0128606D01*
X0462253Y0129617D02*
X0464188Y0129617D01*
X0462736Y0129617D02*
X0462736Y0131552D01*
X0462253Y0131552D02*
X0461285Y0130585D01*
X0462253Y0129617D01*
X0462253Y0131552D02*
X0464188Y0131552D01*
X0463220Y0132564D02*
X0461285Y0132564D01*
X0461285Y0134499D02*
X0463220Y0134499D01*
X0464188Y0133531D01*
X0463220Y0132564D01*
X0466085Y0132564D02*
X0466085Y0134499D01*
X0468988Y0134499D01*
X0468988Y0132564D01*
X0468504Y0131552D02*
X0468988Y0131069D01*
X0468988Y0130101D01*
X0468504Y0129617D01*
X0468020Y0129617D01*
X0467536Y0130101D01*
X0467536Y0131069D01*
X0467053Y0131552D01*
X0466569Y0131552D01*
X0466085Y0131069D01*
X0466085Y0130101D01*
X0466569Y0129617D01*
X0466085Y0128606D02*
X0468988Y0128606D01*
X0468988Y0126671D01*
X0467536Y0127638D02*
X0467536Y0128606D01*
X0466085Y0128606D02*
X0466085Y0126671D01*
X0464188Y0125659D02*
X0461285Y0123724D01*
X0461769Y0119766D02*
X0461285Y0119282D01*
X0461285Y0118315D01*
X0461769Y0117831D01*
X0462253Y0117831D01*
X0464188Y0119766D01*
X0464188Y0117831D01*
X0466085Y0118315D02*
X0467536Y0119766D01*
X0467536Y0117831D01*
X0466085Y0118315D02*
X0468988Y0118315D01*
X0470885Y0117831D02*
X0471369Y0118799D01*
X0472336Y0119766D01*
X0472336Y0118315D01*
X0472820Y0117831D01*
X0473304Y0117831D01*
X0473788Y0118315D01*
X0473788Y0119282D01*
X0473304Y0119766D01*
X0472336Y0119766D01*
X0475685Y0119282D02*
X0475685Y0118315D01*
X0476169Y0117831D01*
X0476653Y0117831D01*
X0477136Y0118315D01*
X0477136Y0119282D01*
X0476653Y0119766D01*
X0476169Y0119766D01*
X0475685Y0119282D01*
X0477136Y0119282D02*
X0477620Y0119766D01*
X0478104Y0119766D01*
X0478588Y0119282D01*
X0478588Y0118315D01*
X0478104Y0117831D01*
X0477620Y0117831D01*
X0477136Y0118315D01*
X0477136Y0123724D02*
X0477136Y0125659D01*
X0476653Y0125659D02*
X0475685Y0124692D01*
X0476653Y0123724D01*
X0478588Y0123724D01*
X0478588Y0125659D02*
X0476653Y0125659D01*
X0473788Y0130585D02*
X0472336Y0130585D01*
X0471369Y0129617D01*
X0470885Y0129617D01*
X0472336Y0130585D02*
X0471369Y0131552D01*
X0470885Y0131552D01*
X0471369Y0132564D02*
X0470885Y0133048D01*
X0470885Y0134015D01*
X0471369Y0134499D01*
X0471853Y0134499D01*
X0472336Y0134015D01*
X0472336Y0133048D01*
X0472820Y0132564D01*
X0473304Y0132564D01*
X0473788Y0133048D01*
X0473788Y0134015D01*
X0473304Y0134499D01*
X0468988Y0135510D02*
X0468020Y0136478D01*
X0468020Y0135994D02*
X0468020Y0137445D01*
X0468988Y0137445D02*
X0466085Y0137445D01*
X0466085Y0135994D01*
X0466569Y0135510D01*
X0467536Y0135510D01*
X0468020Y0135994D01*
X0467536Y0134499D02*
X0467536Y0133531D01*
X0463704Y0136478D02*
X0461769Y0136478D01*
X0462736Y0137445D02*
X0462736Y0135510D01*
X0466085Y0138457D02*
X0468988Y0138457D01*
X0466085Y0140392D01*
X0468988Y0140392D01*
X0456838Y0129820D02*
X0456838Y0128368D01*
X0456354Y0127885D01*
X0454419Y0127885D01*
X0453935Y0128368D01*
X0453935Y0129820D01*
X0456838Y0129820D01*
X0456838Y0126873D02*
X0456838Y0125906D01*
X0456838Y0126389D02*
X0453935Y0126389D01*
X0453935Y0125906D02*
X0453935Y0126873D01*
X0453935Y0124909D02*
X0453935Y0123458D01*
X0454419Y0122974D01*
X0454903Y0122974D01*
X0455386Y0123458D01*
X0455386Y0124909D01*
X0453935Y0124909D02*
X0456838Y0124909D01*
X0456838Y0123458D01*
X0456354Y0122974D01*
X0455870Y0122974D01*
X0455386Y0123458D01*
X0454903Y0119016D02*
X0453935Y0118048D01*
X0453935Y0117051D02*
X0456838Y0117051D01*
X0456838Y0115600D01*
X0456354Y0115116D01*
X0455386Y0115116D01*
X0454903Y0115600D01*
X0454903Y0117051D01*
X0454903Y0119016D02*
X0455870Y0119016D01*
X0456838Y0118048D01*
X0456354Y0114105D02*
X0456838Y0113621D01*
X0456838Y0112654D01*
X0456354Y0112170D01*
X0455386Y0112170D01*
X0454903Y0112654D01*
X0454903Y0113621D01*
X0455386Y0114105D01*
X0456354Y0114105D01*
X0454903Y0111158D02*
X0454903Y0110191D01*
X0454419Y0110675D02*
X0456354Y0110675D01*
X0456838Y0110191D01*
X0456354Y0108710D02*
X0456838Y0108227D01*
X0456354Y0108710D02*
X0454419Y0108710D01*
X0454903Y0108227D02*
X0454903Y0109194D01*
X0455386Y0107230D02*
X0456354Y0107230D01*
X0456838Y0106746D01*
X0456838Y0105778D01*
X0456354Y0105295D01*
X0455386Y0105295D01*
X0454903Y0105778D01*
X0454903Y0106746D01*
X0455386Y0107230D01*
X0454903Y0104283D02*
X0454903Y0103799D01*
X0455386Y0103316D01*
X0454903Y0102832D01*
X0455386Y0102348D01*
X0456838Y0102348D01*
X0456838Y0103316D02*
X0455386Y0103316D01*
X0454903Y0104283D02*
X0456838Y0104283D01*
X0461285Y0102102D02*
X0464188Y0102102D01*
X0464188Y0101135D02*
X0464188Y0103070D01*
X0462253Y0103070D02*
X0461285Y0102102D01*
X0466085Y0101618D02*
X0466569Y0101135D01*
X0467053Y0101135D01*
X0467536Y0101618D01*
X0468020Y0101135D01*
X0468504Y0101135D01*
X0468988Y0101618D01*
X0468988Y0102586D01*
X0468504Y0103070D01*
X0467536Y0102102D02*
X0467536Y0101618D01*
X0466085Y0101618D02*
X0466085Y0102586D01*
X0466569Y0103070D01*
X0470885Y0103070D02*
X0472336Y0103070D01*
X0471853Y0102102D01*
X0471853Y0101618D01*
X0472336Y0101135D01*
X0473304Y0101135D01*
X0473788Y0101618D01*
X0473788Y0102586D01*
X0473304Y0103070D01*
X0475685Y0103070D02*
X0475685Y0101135D01*
X0476169Y0101135D01*
X0478104Y0103070D01*
X0478588Y0103070D01*
X0480485Y0102586D02*
X0480969Y0103070D01*
X0481453Y0103070D01*
X0481936Y0102586D01*
X0481936Y0101135D01*
X0480969Y0101135D02*
X0482904Y0101135D01*
X0483388Y0101618D01*
X0483388Y0102586D01*
X0482904Y0103070D01*
X0480485Y0102586D02*
X0480485Y0101618D01*
X0480969Y0101135D01*
X0480969Y0097177D02*
X0482904Y0097177D01*
X0483388Y0096693D01*
X0483388Y0095725D01*
X0482904Y0095242D01*
X0482904Y0094230D02*
X0483388Y0093746D01*
X0483388Y0092779D01*
X0482904Y0092295D01*
X0482420Y0092295D01*
X0481936Y0092779D01*
X0481936Y0093746D01*
X0481453Y0094230D01*
X0480969Y0094230D01*
X0480485Y0093746D01*
X0480485Y0092779D01*
X0480969Y0092295D01*
X0481453Y0091284D02*
X0480485Y0090316D01*
X0481453Y0089349D01*
X0483388Y0089349D01*
X0481936Y0089349D02*
X0481936Y0091284D01*
X0481453Y0091284D02*
X0483388Y0091284D01*
X0485285Y0091284D02*
X0488188Y0089349D01*
X0485285Y0089349D01*
X0485285Y0088337D02*
X0485285Y0086886D01*
X0485769Y0086402D01*
X0487704Y0086402D01*
X0488188Y0086886D01*
X0488188Y0088337D01*
X0485285Y0088337D01*
X0485285Y0091284D02*
X0488188Y0091284D01*
X0487704Y0092295D02*
X0486736Y0092295D01*
X0486736Y0093263D01*
X0485769Y0094230D02*
X0487704Y0094230D01*
X0488188Y0093746D01*
X0488188Y0092779D01*
X0487704Y0092295D01*
X0485769Y0092295D02*
X0485285Y0092779D01*
X0485285Y0093746D01*
X0485769Y0094230D01*
X0490085Y0093746D02*
X0490569Y0094230D01*
X0491053Y0094230D01*
X0491536Y0093746D01*
X0491536Y0092779D01*
X0492020Y0092295D01*
X0492504Y0092295D01*
X0492988Y0092779D01*
X0492988Y0093746D01*
X0492504Y0094230D01*
X0494885Y0094230D02*
X0495853Y0093263D01*
X0494885Y0092295D01*
X0497788Y0092295D01*
X0497304Y0091284D02*
X0497788Y0090800D01*
X0497788Y0089832D01*
X0497304Y0089349D01*
X0495369Y0089349D01*
X0494885Y0089832D01*
X0494885Y0090800D01*
X0495369Y0091284D01*
X0497304Y0091284D01*
X0499685Y0090800D02*
X0500169Y0091284D01*
X0502104Y0091284D01*
X0500169Y0089349D01*
X0502104Y0089349D01*
X0502588Y0089832D01*
X0502588Y0090800D01*
X0502104Y0091284D01*
X0502588Y0092295D02*
X0500653Y0092295D01*
X0499685Y0093263D01*
X0500653Y0094230D01*
X0502588Y0094230D01*
X0501136Y0094230D02*
X0501136Y0092295D01*
X0499685Y0090800D02*
X0499685Y0089832D01*
X0500169Y0089349D01*
X0497788Y0087853D02*
X0497304Y0088337D01*
X0497788Y0087853D02*
X0497788Y0086886D01*
X0497304Y0086402D01*
X0496820Y0086402D01*
X0496336Y0086886D01*
X0496336Y0087853D01*
X0495853Y0088337D01*
X0495369Y0088337D01*
X0494885Y0087853D01*
X0494885Y0086886D01*
X0495369Y0086402D01*
X0494885Y0085391D02*
X0494885Y0084423D01*
X0494885Y0084907D02*
X0497788Y0084907D01*
X0497788Y0085391D02*
X0497788Y0084423D01*
X0492988Y0083456D02*
X0491536Y0084907D01*
X0492020Y0085391D02*
X0490085Y0083456D01*
X0490085Y0085391D02*
X0492988Y0085391D01*
X0492988Y0086402D02*
X0492988Y0088337D01*
X0490085Y0088337D01*
X0490569Y0089349D02*
X0490085Y0089832D01*
X0490085Y0090800D01*
X0490569Y0091284D01*
X0492504Y0091284D01*
X0492988Y0090800D01*
X0492988Y0089832D01*
X0492504Y0089349D01*
X0490569Y0092295D02*
X0490085Y0092779D01*
X0490085Y0093746D01*
X0490569Y0098188D02*
X0491053Y0098188D01*
X0491536Y0098672D01*
X0492020Y0098188D01*
X0492504Y0098188D01*
X0492988Y0098672D01*
X0492988Y0099639D01*
X0492504Y0100123D01*
X0492988Y0101135D02*
X0492988Y0103070D01*
X0492988Y0102102D02*
X0490085Y0102102D01*
X0491053Y0103070D01*
X0488188Y0103070D02*
X0488188Y0101135D01*
X0488188Y0102102D02*
X0485285Y0102102D01*
X0486253Y0103070D01*
X0486253Y0100123D02*
X0485285Y0099156D01*
X0488188Y0099156D01*
X0488188Y0100123D02*
X0488188Y0098188D01*
X0490085Y0098672D02*
X0490569Y0098188D01*
X0490085Y0098672D02*
X0490085Y0099639D01*
X0490569Y0100123D01*
X0491536Y0099156D02*
X0491536Y0098672D01*
X0494885Y0098188D02*
X0494885Y0100123D01*
X0496336Y0100123D01*
X0495853Y0099156D01*
X0495853Y0098672D01*
X0496336Y0098188D01*
X0497304Y0098188D01*
X0497788Y0098672D01*
X0497788Y0099639D01*
X0497304Y0100123D01*
X0497788Y0101135D02*
X0497788Y0103070D01*
X0497788Y0102102D02*
X0494885Y0102102D01*
X0495853Y0103070D01*
X0499685Y0102102D02*
X0502588Y0102102D01*
X0502588Y0101135D02*
X0502588Y0103070D01*
X0500653Y0103070D02*
X0499685Y0102102D01*
X0499685Y0100123D02*
X0499685Y0098188D01*
X0500169Y0098188D01*
X0502104Y0100123D01*
X0502588Y0100123D01*
X0504485Y0099639D02*
X0504969Y0100123D01*
X0505453Y0100123D01*
X0505936Y0099639D01*
X0505936Y0098188D01*
X0504969Y0098188D02*
X0504485Y0098672D01*
X0504485Y0099639D01*
X0504969Y0098188D02*
X0506904Y0098188D01*
X0507388Y0098672D01*
X0507388Y0099639D01*
X0506904Y0100123D01*
X0507388Y0101135D02*
X0507388Y0103070D01*
X0507388Y0102102D02*
X0504485Y0102102D01*
X0505453Y0103070D01*
X0509285Y0102586D02*
X0509769Y0103070D01*
X0509285Y0102586D02*
X0509285Y0101618D01*
X0509769Y0101135D01*
X0510253Y0101135D01*
X0512188Y0103070D01*
X0512188Y0101135D01*
X0512188Y0100123D02*
X0512188Y0098188D01*
X0512188Y0099156D02*
X0509285Y0099156D01*
X0510253Y0100123D01*
X0514085Y0099639D02*
X0514085Y0098672D01*
X0514569Y0098188D01*
X0515053Y0098188D01*
X0515536Y0098672D01*
X0516020Y0098188D01*
X0516504Y0098188D01*
X0516988Y0098672D01*
X0516988Y0099639D01*
X0516504Y0100123D01*
X0516988Y0101135D02*
X0516988Y0103070D01*
X0515053Y0101135D01*
X0514569Y0101135D01*
X0514085Y0101618D01*
X0514085Y0102586D01*
X0514569Y0103070D01*
X0514569Y0100123D02*
X0514085Y0099639D01*
X0515536Y0099156D02*
X0515536Y0098672D01*
X0518885Y0098188D02*
X0518885Y0100123D01*
X0520336Y0100123D01*
X0519853Y0099156D01*
X0519853Y0098672D01*
X0520336Y0098188D01*
X0521304Y0098188D01*
X0521788Y0098672D01*
X0521788Y0099639D01*
X0521304Y0100123D01*
X0521788Y0101135D02*
X0521788Y0103070D01*
X0519853Y0101135D01*
X0519369Y0101135D01*
X0518885Y0101618D01*
X0518885Y0102586D01*
X0519369Y0103070D01*
X0523685Y0102586D02*
X0524169Y0103070D01*
X0523685Y0102586D02*
X0523685Y0101618D01*
X0524169Y0101135D01*
X0524653Y0101135D01*
X0526588Y0103070D01*
X0526588Y0101135D01*
X0526588Y0100123D02*
X0526104Y0100123D01*
X0524169Y0098188D01*
X0523685Y0098188D01*
X0523685Y0100123D01*
X0523685Y0094230D02*
X0526104Y0094230D01*
X0526588Y0093746D01*
X0526588Y0092779D01*
X0526104Y0092295D01*
X0523685Y0092295D01*
X0524653Y0091284D02*
X0523685Y0090316D01*
X0524653Y0089349D01*
X0526588Y0089349D01*
X0526588Y0088337D02*
X0523685Y0088337D01*
X0523685Y0086886D01*
X0524169Y0086402D01*
X0525136Y0086402D01*
X0525620Y0086886D01*
X0525620Y0088337D01*
X0525620Y0087370D02*
X0526588Y0086402D01*
X0526588Y0084423D02*
X0523685Y0084423D01*
X0523685Y0083456D02*
X0523685Y0085391D01*
X0521788Y0086886D02*
X0521304Y0086402D01*
X0519369Y0086402D01*
X0518885Y0086886D01*
X0518885Y0088337D01*
X0521788Y0088337D01*
X0521788Y0086886D01*
X0521788Y0089349D02*
X0518885Y0089349D01*
X0518885Y0091284D02*
X0521788Y0089349D01*
X0521788Y0091284D02*
X0518885Y0091284D01*
X0519369Y0092295D02*
X0518885Y0092779D01*
X0518885Y0093746D01*
X0519369Y0094230D01*
X0521304Y0094230D01*
X0521788Y0093746D01*
X0521788Y0092779D01*
X0521304Y0092295D01*
X0520336Y0092295D01*
X0520336Y0093263D01*
X0516504Y0093263D02*
X0514569Y0093263D01*
X0515536Y0094230D02*
X0515536Y0092295D01*
X0515536Y0091284D02*
X0515053Y0090316D01*
X0515053Y0089832D01*
X0515536Y0089349D01*
X0516504Y0089349D01*
X0516988Y0089832D01*
X0516988Y0090800D01*
X0516504Y0091284D01*
X0515536Y0091284D02*
X0514085Y0091284D01*
X0514085Y0089349D01*
X0514085Y0088337D02*
X0516020Y0088337D01*
X0516988Y0087370D01*
X0516020Y0086402D01*
X0514085Y0086402D01*
X0512188Y0086402D02*
X0512188Y0088337D01*
X0510253Y0086402D01*
X0509769Y0086402D01*
X0509285Y0086886D01*
X0509285Y0087853D01*
X0509769Y0088337D01*
X0509285Y0090316D02*
X0512188Y0090316D01*
X0512188Y0089349D02*
X0512188Y0091284D01*
X0510736Y0092295D02*
X0510736Y0094230D01*
X0509769Y0093263D02*
X0511704Y0093263D01*
X0510253Y0091284D02*
X0509285Y0090316D01*
X0507388Y0090316D02*
X0504485Y0090316D01*
X0505453Y0091284D01*
X0505453Y0092295D02*
X0507388Y0092295D01*
X0507388Y0091284D02*
X0507388Y0089349D01*
X0505936Y0092295D02*
X0505936Y0094230D01*
X0505453Y0094230D02*
X0504485Y0093263D01*
X0505453Y0092295D01*
X0505453Y0094230D02*
X0507388Y0094230D01*
X0497788Y0094230D02*
X0494885Y0094230D01*
X0480969Y0095242D02*
X0480485Y0095725D01*
X0480485Y0096693D01*
X0480969Y0097177D01*
X0478588Y0096693D02*
X0478588Y0095725D01*
X0478104Y0095242D01*
X0477136Y0095242D01*
X0477136Y0096209D01*
X0476169Y0095242D02*
X0475685Y0095725D01*
X0475685Y0096693D01*
X0476169Y0097177D01*
X0478104Y0097177D01*
X0478588Y0096693D01*
X0478588Y0094230D02*
X0475685Y0094230D01*
X0478588Y0092295D01*
X0475685Y0092295D01*
X0475685Y0091284D02*
X0475685Y0089832D01*
X0476169Y0089349D01*
X0478104Y0089349D01*
X0478588Y0089832D01*
X0478588Y0091284D01*
X0475685Y0091284D01*
X0473788Y0090800D02*
X0473788Y0089832D01*
X0473304Y0089349D01*
X0473788Y0088337D02*
X0473788Y0086402D01*
X0473788Y0088337D02*
X0470885Y0088337D01*
X0471369Y0089349D02*
X0470885Y0089832D01*
X0470885Y0090800D01*
X0471369Y0091284D01*
X0473304Y0091284D01*
X0473788Y0090800D01*
X0473304Y0092295D02*
X0473788Y0092779D01*
X0473788Y0093746D01*
X0473304Y0094230D01*
X0473304Y0095242D02*
X0473788Y0095725D01*
X0473788Y0096693D01*
X0473304Y0097177D01*
X0472336Y0096693D02*
X0472336Y0095725D01*
X0472820Y0095242D01*
X0473304Y0095242D01*
X0472336Y0096693D02*
X0471853Y0097177D01*
X0471369Y0097177D01*
X0470885Y0096693D01*
X0470885Y0095725D01*
X0471369Y0095242D01*
X0471369Y0094230D02*
X0471853Y0094230D01*
X0472336Y0093746D01*
X0472336Y0092779D01*
X0472820Y0092295D01*
X0473304Y0092295D01*
X0471369Y0092295D02*
X0470885Y0092779D01*
X0470885Y0093746D01*
X0471369Y0094230D01*
X0468988Y0094230D02*
X0466085Y0094230D01*
X0466085Y0092295D01*
X0467053Y0091284D02*
X0466085Y0090316D01*
X0467053Y0089349D01*
X0468988Y0089349D01*
X0468504Y0088337D02*
X0468988Y0087853D01*
X0468988Y0086886D01*
X0468504Y0086402D01*
X0466085Y0086402D01*
X0466085Y0085391D02*
X0468988Y0085391D01*
X0468988Y0083456D01*
X0468988Y0081477D02*
X0466085Y0081477D01*
X0466085Y0082444D02*
X0466085Y0080509D01*
X0463704Y0086402D02*
X0464188Y0086886D01*
X0464188Y0087853D01*
X0463704Y0088337D01*
X0463220Y0089349D02*
X0461285Y0089349D01*
X0461769Y0088337D02*
X0461285Y0087853D01*
X0461285Y0086886D01*
X0461769Y0086402D01*
X0462253Y0086402D01*
X0462736Y0086886D01*
X0463220Y0086402D01*
X0463704Y0086402D01*
X0462736Y0086886D02*
X0462736Y0087370D01*
X0463220Y0089349D02*
X0464188Y0090316D01*
X0463220Y0091284D01*
X0461285Y0091284D01*
X0461769Y0092295D02*
X0462253Y0092295D01*
X0462736Y0092779D01*
X0463220Y0092295D01*
X0463704Y0092295D01*
X0464188Y0092779D01*
X0464188Y0093746D01*
X0463704Y0094230D01*
X0462736Y0093263D02*
X0462736Y0092779D01*
X0461769Y0092295D02*
X0461285Y0092779D01*
X0461285Y0093746D01*
X0461769Y0094230D01*
X0462736Y0095242D02*
X0462736Y0097177D01*
X0461769Y0096209D02*
X0463704Y0096209D01*
X0466085Y0095242D02*
X0468988Y0095242D01*
X0466085Y0097177D01*
X0468988Y0097177D01*
X0467536Y0094230D02*
X0467536Y0093263D01*
X0467536Y0091284D02*
X0467536Y0089349D01*
X0468504Y0088337D02*
X0466085Y0088337D01*
X0467053Y0091284D02*
X0468988Y0091284D01*
X0470885Y0101135D02*
X0470885Y0103070D01*
X0456838Y0097423D02*
X0454903Y0096455D01*
X0454903Y0095444D02*
X0454903Y0094960D01*
X0456838Y0094960D01*
X0456838Y0095444D02*
X0456838Y0094476D01*
X0456354Y0093479D02*
X0455386Y0093479D01*
X0454903Y0092996D01*
X0454903Y0092028D01*
X0455386Y0091544D01*
X0455870Y0091544D01*
X0455870Y0093479D01*
X0456354Y0093479D02*
X0456838Y0092996D01*
X0456838Y0092028D01*
X0456354Y0090533D02*
X0456838Y0090049D01*
X0456354Y0089565D01*
X0456838Y0089082D01*
X0456354Y0088598D01*
X0454903Y0088598D01*
X0453935Y0087586D02*
X0454903Y0086619D01*
X0455870Y0086619D01*
X0456838Y0087586D01*
X0456354Y0090533D02*
X0454903Y0090533D01*
X0453935Y0094960D02*
X0453451Y0094960D01*
X0454903Y0098390D02*
X0456838Y0097423D01*
X0504485Y0118315D02*
X0504969Y0117831D01*
X0504485Y0118315D02*
X0504485Y0119282D01*
X0512188Y0120778D02*
X0512188Y0122713D01*
X0511220Y0126671D02*
X0509285Y0126671D01*
X0509285Y0128606D02*
X0511220Y0128606D01*
X0512188Y0127638D01*
X0511220Y0126671D01*
X0516988Y0122713D02*
X0516988Y0120778D01*
X0515536Y0132564D02*
X0515536Y0134499D01*
X0514569Y0133531D02*
X0516504Y0133531D01*
X0527071Y0134499D02*
X0527071Y0132564D01*
X0525136Y0141403D02*
X0525136Y0143338D01*
X0524653Y0143338D02*
X0526588Y0143338D01*
X0526588Y0091284D02*
X0524653Y0091284D01*
X0525136Y0091284D02*
X0525136Y0089349D01*
X0527071Y0082444D02*
X0527071Y0080509D01*
X0526588Y0079498D02*
X0523685Y0079498D01*
X0523685Y0078046D01*
X0524169Y0077563D01*
X0525136Y0077563D01*
X0525620Y0078046D01*
X0525620Y0079498D01*
X0525620Y0078530D02*
X0526588Y0077563D01*
X0526588Y0076551D02*
X0523685Y0074616D01*
X0523685Y0076551D02*
X0526588Y0074616D01*
X0512188Y0084423D02*
X0511220Y0083456D01*
X0509285Y0083456D01*
X0509285Y0085391D02*
X0511220Y0085391D01*
X0512188Y0084423D01*
D12*
X0643488Y0417820D03*
X0643488Y0418120D03*
X0643488Y0418420D03*
X0643488Y0418720D03*
X0643488Y0419020D03*
D13*
X0642888Y0421120D03*
X0642888Y0421420D03*
X0642888Y0421720D03*
X0642888Y0422020D03*
X0642888Y0422320D03*
X0642888Y0422620D03*
X0642888Y0422920D03*
X0642888Y0423220D03*
X0642888Y0423520D03*
X0642888Y0423820D03*
X0642888Y0424120D03*
X0642888Y0424420D03*
X0642888Y0424720D03*
X0642888Y0426220D03*
X0642888Y0426520D03*
X0642888Y0426820D03*
X0642888Y0427120D03*
X0642888Y0427420D03*
X0642888Y0427720D03*
X0642888Y0428020D03*
X0642888Y0428320D03*
X0642888Y0428620D03*
X0642888Y0428920D03*
X0638988Y0428920D03*
X0638988Y0428620D03*
X0638988Y0428320D03*
X0638988Y0428020D03*
X0638988Y0427720D03*
X0638988Y0427420D03*
X0638988Y0427120D03*
X0638988Y0426820D03*
X0638988Y0426520D03*
X0638988Y0426220D03*
X0638988Y0424720D03*
X0638988Y0424420D03*
X0638988Y0424120D03*
X0638988Y0423820D03*
X0638988Y0423520D03*
X0638988Y0423220D03*
X0638988Y0422920D03*
X0638988Y0422620D03*
X0638988Y0422320D03*
X0638988Y0422020D03*
X0638988Y0421720D03*
X0638988Y0421420D03*
X0638988Y0421120D03*
X0635988Y0421420D03*
X0635988Y0421720D03*
X0635988Y0422020D03*
X0635988Y0422320D03*
X0632988Y0421720D03*
X0632988Y0421420D03*
X0634488Y0426220D03*
X0634488Y0426520D03*
X0634488Y0426820D03*
X0631488Y0427720D03*
X0627888Y0427720D03*
X0627888Y0428020D03*
X0627888Y0428320D03*
X0627888Y0428620D03*
X0627888Y0428920D03*
X0627888Y0429220D03*
X0627888Y0429520D03*
X0627888Y0429820D03*
X0627888Y0430120D03*
X0627888Y0430420D03*
X0627888Y0430720D03*
X0627888Y0431020D03*
X0627888Y0431320D03*
X0627888Y0431620D03*
X0627888Y0431920D03*
X0627888Y0432220D03*
X0627888Y0432520D03*
X0627888Y0432820D03*
X0630288Y0433420D03*
X0630588Y0431920D03*
X0627888Y0427420D03*
X0627888Y0427120D03*
X0627888Y0426820D03*
X0627888Y0426520D03*
X0627888Y0426220D03*
X0627888Y0425920D03*
X0627888Y0425620D03*
X0627888Y0425320D03*
X0627888Y0425020D03*
X0627888Y0424720D03*
X0627888Y0424420D03*
X0627888Y0424120D03*
X0627888Y0423820D03*
X0627888Y0423520D03*
X0627888Y0423220D03*
X0627888Y0422920D03*
X0627888Y0422620D03*
X0627888Y0422320D03*
X0627888Y0422020D03*
X0627888Y0421720D03*
X0627888Y0421420D03*
X0627888Y0421120D03*
X0627888Y0420820D03*
X0627888Y0420520D03*
X0627888Y0420220D03*
X0627888Y0419920D03*
X0627888Y0419620D03*
X0627888Y0419320D03*
X0645288Y0422920D03*
X0645288Y0423220D03*
X0645288Y0423520D03*
X0645288Y0423820D03*
X0645588Y0424120D03*
X0645588Y0422320D03*
X0649188Y0426520D03*
X0649188Y0426820D03*
X0649188Y0427120D03*
X0649188Y0427420D03*
X0651588Y0426520D03*
X0651588Y0426220D03*
X0651588Y0425920D03*
X0651588Y0425620D03*
X0651588Y0425320D03*
X0651588Y0425020D03*
X0651588Y0424720D03*
X0651588Y0424420D03*
X0651588Y0424120D03*
X0651588Y0423820D03*
X0651588Y0423520D03*
X0655488Y0423520D03*
X0655488Y0423820D03*
X0655488Y0424120D03*
X0655488Y0425920D03*
X0655488Y0426220D03*
X0655488Y0426520D03*
X0653688Y0429220D03*
X0651888Y0427420D03*
X0659088Y0427420D03*
X0659088Y0427720D03*
X0659088Y0428020D03*
X0659088Y0428320D03*
X0659088Y0428620D03*
X0659088Y0428920D03*
X0659088Y0429220D03*
X0659088Y0429520D03*
X0659088Y0429820D03*
X0659088Y0430120D03*
X0659088Y0430420D03*
X0659088Y0430720D03*
X0659088Y0431020D03*
X0659088Y0431320D03*
X0659088Y0427120D03*
X0659088Y0426820D03*
X0659088Y0426520D03*
X0659088Y0426220D03*
X0659088Y0425920D03*
X0659088Y0425620D03*
X0659088Y0425320D03*
X0659088Y0425020D03*
X0659088Y0424720D03*
X0659088Y0424420D03*
X0659088Y0424120D03*
X0659088Y0423820D03*
X0659088Y0423520D03*
X0659088Y0423220D03*
X0659088Y0422920D03*
X0659088Y0422620D03*
X0659088Y0422320D03*
X0659088Y0422020D03*
X0659088Y0421720D03*
X0659088Y0421420D03*
X0659088Y0421120D03*
X0659088Y0420820D03*
X0659088Y0420520D03*
X0659088Y0420220D03*
X0659088Y0419920D03*
X0659088Y0419620D03*
X0659088Y0419320D03*
D14*
X0653688Y0421120D03*
D15*
X0647538Y0421120D03*
X0646938Y0428920D03*
X0653538Y0428920D03*
D16*
X0653538Y0428620D03*
X0647538Y0425320D03*
X0646938Y0425020D03*
X0653538Y0421420D03*
D17*
X0653538Y0421720D03*
X0647538Y0421420D03*
X0647238Y0428320D03*
X0653538Y0428320D03*
D18*
X0653538Y0428020D03*
X0647538Y0421720D03*
D19*
X0653688Y0422020D03*
D20*
X0652188Y0422320D03*
X0648888Y0422020D03*
X0645888Y0422020D03*
X0645888Y0424420D03*
X0648588Y0425920D03*
X0635988Y0423820D03*
X0635988Y0423520D03*
X0635988Y0423220D03*
X0634488Y0425020D03*
X0634488Y0425320D03*
X0632988Y0423220D03*
X0632988Y0422920D03*
D21*
X0632838Y0422620D03*
X0632838Y0422320D03*
X0632838Y0422020D03*
X0635838Y0422620D03*
X0635838Y0422920D03*
X0634338Y0425620D03*
X0634338Y0425920D03*
X0648738Y0428020D03*
X0649038Y0426220D03*
X0651738Y0426820D03*
X0651738Y0427120D03*
X0652038Y0427720D03*
X0655038Y0427720D03*
X0655338Y0427420D03*
X0655338Y0427120D03*
X0655338Y0426820D03*
X0655638Y0425620D03*
X0655638Y0425320D03*
X0655638Y0425020D03*
X0655638Y0424720D03*
X0655638Y0424420D03*
X0655338Y0423220D03*
X0655338Y0422920D03*
X0655338Y0422620D03*
X0655038Y0422320D03*
X0652038Y0422620D03*
X0651738Y0422920D03*
X0651738Y0423220D03*
D22*
X0649338Y0422320D03*
X0645438Y0422620D03*
X0645738Y0428020D03*
X0649038Y0427720D03*
X0637038Y0427720D03*
X0637038Y0428020D03*
X0637038Y0428320D03*
X0637038Y0428620D03*
X0637038Y0428920D03*
X0637038Y0427420D03*
X0637038Y0427120D03*
X0636738Y0426520D03*
X0636738Y0426220D03*
X0636738Y0425920D03*
X0636738Y0425620D03*
X0636738Y0425320D03*
X0633738Y0424420D03*
X0633738Y0424120D03*
X0632238Y0424120D03*
X0632238Y0424420D03*
X0632238Y0424720D03*
X0631938Y0425020D03*
X0631938Y0425320D03*
X0631938Y0425620D03*
X0631938Y0425920D03*
X0631938Y0426220D03*
X0631638Y0426520D03*
X0631638Y0426820D03*
X0631638Y0427120D03*
X0631638Y0427420D03*
X0631338Y0428020D03*
X0631338Y0428320D03*
X0631338Y0428620D03*
X0631338Y0428920D03*
X0631038Y0429220D03*
X0631038Y0429520D03*
X0631038Y0429820D03*
X0631038Y0430120D03*
X0631038Y0430420D03*
X0630738Y0430720D03*
X0630738Y0431020D03*
X0630738Y0431320D03*
X0630738Y0431620D03*
X0630438Y0432220D03*
X0630438Y0432520D03*
X0630438Y0432820D03*
X0630438Y0433120D03*
X0630138Y0433720D03*
X0630138Y0434020D03*
X0630138Y0434320D03*
X0630138Y0434620D03*
X0632238Y0423820D03*
X0632238Y0423520D03*
D23*
X0645438Y0427720D03*
X0649638Y0422620D03*
D24*
X0647088Y0429220D03*
X0636888Y0426820D03*
X0636588Y0425020D03*
X0636588Y0424720D03*
X0636588Y0424420D03*
X0635088Y0424420D03*
X0635088Y0424720D03*
X0633888Y0424720D03*
X0633588Y0423820D03*
X0633588Y0423520D03*
D25*
X0635838Y0424120D03*
D26*
X0646488Y0424720D03*
X0647988Y0425620D03*
D27*
X0640938Y0425620D03*
X0640938Y0425920D03*
X0640938Y0425320D03*
X0640938Y0425020D03*
D28*
X0647088Y0428620D03*
D29*
X0646338Y0431620D03*
X0646338Y0431920D03*
X0646338Y0432220D03*
X0646338Y0432520D03*
X0646338Y0432820D03*
D30*
X0645959Y0415473D02*
X0644492Y0415473D01*
X0643758Y0414739D01*
X0646693Y0411804D01*
X0645959Y0411070D01*
X0644492Y0411070D01*
X0643758Y0411804D01*
X0643758Y0414739D01*
X0642089Y0414739D02*
X0641355Y0415473D01*
X0639888Y0415473D01*
X0639154Y0414739D01*
X0642089Y0411804D01*
X0641355Y0411070D01*
X0639888Y0411070D01*
X0639154Y0411804D01*
X0639154Y0414739D01*
X0637486Y0414739D02*
X0636752Y0415473D01*
X0635284Y0415473D01*
X0634550Y0414739D01*
X0637486Y0411804D01*
X0636752Y0411070D01*
X0635284Y0411070D01*
X0634550Y0411804D01*
X0634550Y0414739D01*
X0632882Y0414739D02*
X0632148Y0415473D01*
X0630680Y0415473D01*
X0629946Y0414739D01*
X0632882Y0411804D01*
X0632148Y0411070D01*
X0630680Y0411070D01*
X0629946Y0411804D01*
X0629946Y0414739D01*
X0628278Y0413272D02*
X0625342Y0413272D01*
X0626076Y0415473D02*
X0628278Y0413272D01*
X0626076Y0415473D02*
X0626076Y0411070D01*
X0632882Y0411804D02*
X0632882Y0414739D01*
X0637486Y0414739D02*
X0637486Y0411804D01*
X0642089Y0411804D02*
X0642089Y0414739D01*
X0645959Y0415473D02*
X0646693Y0414739D01*
X0646693Y0411804D01*
X0648361Y0411804D02*
X0649095Y0411070D01*
X0650563Y0411070D01*
X0651297Y0411804D01*
X0648361Y0414739D01*
X0648361Y0411804D01*
X0648361Y0414739D02*
X0649095Y0415473D01*
X0650563Y0415473D01*
X0651297Y0414739D01*
X0651297Y0411804D01*
X0652965Y0411070D02*
X0654433Y0412538D01*
X0653699Y0412538D02*
X0655901Y0412538D01*
X0655901Y0411070D02*
X0655901Y0415473D01*
X0653699Y0415473D01*
X0652965Y0414739D01*
X0652965Y0413272D01*
X0653699Y0412538D01*
X0657569Y0413272D02*
X0660505Y0413272D01*
X0660505Y0415473D02*
X0660505Y0411070D01*
X0657569Y0411070D02*
X0657569Y0415473D01*
M02*
