%
M48
M72
T01C0.01575
T02C0.03937
T03C0.04331
T04C0.05118
T05C0.12598
%
T01
X202688Y199770
X210688Y199520
X217688Y199770
X225688Y199270
X230188Y205770
X235438Y202270
X238938Y199770
X234688Y198020
X221688Y211020
X254688Y196270
X277688Y202270
X288188Y194770
X292688Y199770
X303188Y194770
X296688Y211020
X261688Y229770
X261688Y242520
X296688Y261020
X261688Y279770
X261688Y292270
X296688Y311020
X261688Y329770
X261688Y342270
X296688Y361020
X309938Y350270
X330188Y355520
X336688Y342270
X336688Y329770
X371688Y311020
X384938Y322770
X404938Y326520
X411688Y329770
X411688Y342270
X446688Y361020
X411688Y379770
X411688Y392270
X421438Y415020
X425188Y421020
X432938Y421020
X440188Y421020
X447938Y421020
X460938Y416270
X463938Y419770
X464438Y412520
X479688Y423270
X500188Y421020
X507938Y421020
X515188Y421020
X522938Y422520
X486688Y392270
X486688Y379770
X521688Y361020
X486688Y342270
X486688Y329770
X521688Y311020
X486688Y292270
X486688Y279770
X480938Y280270
X473438Y269270
X446688Y261020
X411688Y279770
X411688Y292270
X446688Y311020
X371688Y261020
X336688Y279770
X336688Y292270
X336688Y242270
X336688Y229770
X371688Y211020
X370438Y194770
X363188Y194770
X355438Y194770
X348188Y179770
X366188Y179770
X375938Y165520
X382438Y157770
X365438Y154270
X349688Y154520
X352438Y135020
X358438Y126270
X344938Y126020
X328188Y134520
X327688Y174770
X378188Y194770
X388688Y189770
X412688Y180520
X429688Y194770
X438188Y193520
X444938Y193520
X450688Y190270
X474188Y181270
X485188Y169520
X480438Y165020
X484938Y160270
X474188Y148520
X476438Y134270
X480938Y134520
X488688Y138020
X496938Y135270
X507188Y137770
X507938Y145770
X523188Y146020
X528938Y150020
X528938Y140770
X543438Y140020
X548688Y145770
X548688Y148770
X553688Y151520
X560438Y140020
X560188Y132270
X555938Y130520
X545438Y124520
X547938Y117770
X528938Y124020
X522438Y126020
X516688Y129520
X510938Y126270
X496188Y117770
X493438Y125520
X482438Y122770
X471688Y123020
X462188Y124770
X470438Y112770
X478688Y110770
X478938Y106020
X459938Y97520
X450688Y104770
X446188Y117020
X437938Y126520
X423438Y137520
X427438Y146270
X427438Y152270
X447188Y157520
X447438Y165520
X403938Y156270
X388688Y140270
X388688Y132520
X398938Y124020
X401688Y120770
X419438Y126520
X509688Y160270
X510438Y165020
X521688Y163520
X526188Y164520
X529188Y161270
X532188Y164270
X524938Y185770
X529188Y187520
X522188Y193270
X515438Y194770
X508438Y193520
X505188Y197020
X520688Y184020
X532438Y200520
X536438Y202270
X540438Y204020
X544438Y205770
X543438Y194270
X547438Y192270
X563188Y200270
X571188Y200270
X585688Y190270
X592688Y200270
X600688Y190270
X607188Y198770
X612688Y197770
X624438Y198520
X624438Y192770
X625438Y187520
X644188Y211020
X622938Y218770
X631688Y230270
X636688Y234270
X636688Y242020
X644188Y261020
X636688Y279770
X636688Y292270
X644188Y311020
X636688Y330020
X636688Y342020
X644188Y361020
X636688Y380020
X636688Y392020
X614188Y412020
X613938Y416270
X606688Y419270
X597938Y421020
X590188Y421020
X582938Y421020
X575188Y421020
X570688Y415770
X561688Y392270
X561688Y379770
X596688Y361020
X561688Y342270
X561688Y329770
X596688Y311020
X561688Y292270
X561688Y279770
X554938Y254520
X561688Y242270
X561688Y229770
X534938Y251020
X521688Y261020
X486688Y242270
X486688Y229770
X521688Y211020
X570188Y165020
X584438Y155020
X581438Y152020
X588688Y155020
X592438Y152520
X598688Y158020
X593438Y161020
X602938Y151020
X607188Y152770
X608938Y143020
X618688Y143020
X625438Y134520
X618688Y132770
X611938Y133520
X605938Y133520
X593438Y133520
X585188Y134520
X581688Y137020
X584188Y140520
X588438Y140770
X579438Y140770
X573438Y132020
X571688Y126020
X575188Y123520
X578188Y118520
X581938Y120770
X586188Y120770
X589938Y118770
X591188Y107270
X584438Y107270
X582438Y103270
X574688Y106270
X571938Y103270
X596438Y86020
X601688Y89270
X605438Y91270
X608938Y94270
X613188Y94270
X618688Y107270
X623438Y125020
X627938Y125020
X632438Y125020
X649438Y114270
X652188Y117520
X654438Y121270
X660188Y126770
X657438Y130270
X646938Y110520
X618688Y154770
X570188Y151770
X596688Y211020
X596688Y261020
X446688Y211020
X411688Y229770
X411688Y242270
X371688Y361020
X336688Y379770
X336688Y392270
X312188Y416270
X308438Y412770
X306438Y426770
X290188Y421020
X287688Y426520
X275188Y421020
X261688Y392270
X261688Y379770
X248438Y375020
X235188Y378520
X221688Y361020
X196438Y337770
X221688Y311020
X194938Y292270
X221688Y261020
X198188Y239270
X194188Y235270
X324438Y84270
X510938Y84270
X533188Y81270
X225688Y413020
X215188Y421020
X211188Y416270
X200188Y421020
X329438Y423270
X350188Y421020
X360688Y416520
X365188Y421020
X629688Y419770
T02
X615188Y171770
X605188Y171770
X595188Y171770
X585188Y171770
X575188Y171770
X565188Y171770
X439333Y115232
X429333Y115232
X419333Y115232
X409333Y115232
X399333Y115232
X389333Y115232
X379333Y115232
X369333Y115232
X359333Y115232
X349333Y115232
X339333Y115232
X329333Y115232
X319333Y115232
X309333Y115232
X309333Y105232
X319333Y105232
X329333Y105232
X339333Y105232
X349333Y105232
X359333Y105232
X369333Y105232
X379333Y105232
X389333Y105232
X399333Y105232
X409333Y105232
X419333Y105232
X429333Y105232
X439333Y105232
T03
X522438Y111270
T04
X302044Y134388
X302044Y164152
X242516Y164152
X222674Y164152
X202831Y164152
X202831Y134388
X222674Y134388
X242516Y134388
X166932Y143441
X166932Y158441
X166932Y173441
X166932Y188441
X166932Y203441
X166932Y218441
X166932Y233441
X166932Y248441
X166932Y269425
X166932Y284425
X166932Y299425
X166932Y314425
X166932Y329425
X166932Y344425
X166932Y359425
X166932Y374425
X116932Y374425
X116932Y359425
X116932Y344425
X116932Y329425
X116932Y314425
X116932Y299425
X116932Y284425
X116932Y269425
X116932Y248441
X116932Y233441
X116932Y218441
X116932Y203441
X116932Y188441
X116932Y173441
X116932Y158441
X116932Y143441
T05
X137995Y87673
X137995Y87673
X137995Y418382
X137995Y418382
M30
