G75*
%MOIN*%
%OFA0B0*%
%FSLAX25Y25*%
%IPPOS*%
%LPD*%
%AMOC8*
5,1,8,0,0,1.08239X$1,22.5*
%
%ADD10C,0.00500*%
D10*
X0359846Y0120520D02*
X0360597Y0119770D01*
X0362849Y0119770D01*
X0362849Y0124274D01*
X0360597Y0124274D01*
X0359846Y0123523D01*
X0359846Y0122772D01*
X0360597Y0122022D01*
X0362849Y0122022D01*
X0360597Y0122022D02*
X0359846Y0121271D01*
X0359846Y0120520D01*
X0364417Y0119770D02*
X0365918Y0119770D01*
X0365167Y0119770D02*
X0365167Y0124274D01*
X0364417Y0124274D02*
X0365918Y0124274D01*
X0367519Y0123523D02*
X0368270Y0124274D01*
X0370522Y0124274D01*
X0370522Y0119770D01*
X0368270Y0119770D01*
X0367519Y0120520D01*
X0367519Y0123523D01*
X0376727Y0123523D02*
X0379730Y0120520D01*
X0379730Y0119770D01*
X0376727Y0119770D01*
X0376727Y0123523D02*
X0376727Y0124274D01*
X0379730Y0124274D01*
X0381331Y0124274D02*
X0384334Y0124274D01*
X0384334Y0119770D01*
X0381331Y0119770D01*
X0382832Y0122022D02*
X0384334Y0122022D01*
X0385935Y0124274D02*
X0388938Y0124274D01*
X0388938Y0119770D01*
X0385935Y0119770D01*
X0387436Y0122022D02*
X0388938Y0122022D01*
X0487293Y0415254D02*
X0487293Y0417506D01*
X0488044Y0418256D01*
X0490296Y0418256D01*
X0490296Y0415254D01*
X0491897Y0416755D02*
X0494900Y0416755D01*
X0494900Y0416005D02*
X0494900Y0417506D01*
X0494149Y0418256D01*
X0492648Y0418256D01*
X0491897Y0417506D01*
X0491897Y0416755D01*
X0492648Y0415254D02*
X0494149Y0415254D01*
X0494900Y0416005D01*
X0496501Y0416005D02*
X0496501Y0417506D01*
X0497252Y0418256D01*
X0499503Y0418256D01*
X0499503Y0413753D01*
X0499503Y0415254D02*
X0497252Y0415254D01*
X0496501Y0416005D01*
X0501105Y0416005D02*
X0501105Y0417506D01*
X0501855Y0418256D01*
X0503357Y0418256D01*
X0504107Y0417506D01*
X0504107Y0416005D01*
X0503357Y0415254D01*
X0501855Y0415254D01*
X0501105Y0416005D01*
X0505709Y0417506D02*
X0508711Y0417506D01*
X0510313Y0418256D02*
X0513315Y0415254D01*
X0510313Y0415254D01*
X0510313Y0418256D02*
X0513315Y0418256D01*
X0514917Y0417506D02*
X0514917Y0416755D01*
X0517919Y0416755D01*
X0517919Y0416005D02*
X0517919Y0417506D01*
X0517169Y0418256D01*
X0515667Y0418256D01*
X0514917Y0417506D01*
X0515667Y0415254D02*
X0517169Y0415254D01*
X0517919Y0416005D01*
X0519521Y0416755D02*
X0522523Y0416755D01*
X0522523Y0416005D02*
X0522523Y0417506D01*
X0521772Y0418256D01*
X0520271Y0418256D01*
X0519521Y0417506D01*
X0519521Y0416755D01*
X0520271Y0415254D02*
X0521772Y0415254D01*
X0522523Y0416005D01*
X0524124Y0419758D02*
X0527127Y0415254D01*
X0528728Y0415254D02*
X0528728Y0417506D01*
X0529479Y0418256D01*
X0530230Y0417506D01*
X0530230Y0415254D01*
X0531731Y0415254D02*
X0531731Y0418256D01*
X0530980Y0418256D01*
X0530230Y0417506D01*
X0533332Y0417506D02*
X0533332Y0416005D01*
X0534083Y0415254D01*
X0535584Y0415254D01*
X0536335Y0416005D01*
X0536335Y0417506D01*
X0535584Y0418256D01*
X0534083Y0418256D01*
X0533332Y0417506D01*
X0537936Y0418256D02*
X0540188Y0418256D01*
X0540939Y0417506D01*
X0540939Y0416005D01*
X0540188Y0415254D01*
X0537936Y0415254D01*
X0542490Y0415254D02*
X0543241Y0415254D01*
X0543241Y0416005D01*
X0542490Y0416005D01*
X0542490Y0415254D01*
X0544842Y0416005D02*
X0544842Y0417506D01*
X0545593Y0418256D01*
X0547845Y0418256D01*
X0547845Y0419758D02*
X0547845Y0415254D01*
X0545593Y0415254D01*
X0544842Y0416005D01*
X0549446Y0415254D02*
X0549446Y0418256D01*
X0549446Y0415254D02*
X0551698Y0415254D01*
X0552449Y0416005D01*
X0552449Y0418256D01*
X0554050Y0417506D02*
X0554050Y0415254D01*
X0554050Y0417506D02*
X0554801Y0418256D01*
X0556302Y0418256D01*
X0557053Y0417506D01*
X0558621Y0418256D02*
X0560122Y0418256D01*
X0559371Y0419007D02*
X0559371Y0416005D01*
X0558621Y0415254D01*
X0557053Y0415254D02*
X0557053Y0419758D01*
X0554751Y0422754D02*
X0554751Y0425756D01*
X0554751Y0424255D02*
X0553249Y0425756D01*
X0552499Y0425756D01*
X0550914Y0425756D02*
X0549413Y0427258D01*
X0549413Y0422754D01*
X0550914Y0422754D02*
X0547911Y0422754D01*
X0546310Y0422754D02*
X0544058Y0422754D01*
X0543307Y0423505D01*
X0543307Y0424255D01*
X0544058Y0425006D01*
X0546310Y0425006D01*
X0546310Y0422754D02*
X0546310Y0427258D01*
X0544058Y0427258D01*
X0543307Y0426507D01*
X0543307Y0425756D01*
X0544058Y0425006D01*
X0541706Y0426507D02*
X0540955Y0427258D01*
X0539454Y0427258D01*
X0538704Y0426507D01*
X0538704Y0425756D01*
X0541706Y0422754D01*
X0538704Y0422754D01*
X0537102Y0422754D02*
X0535601Y0424255D01*
X0535601Y0425756D01*
X0537102Y0427258D01*
X0560956Y0426507D02*
X0563958Y0423505D01*
X0563208Y0422754D01*
X0561706Y0422754D01*
X0560956Y0423505D01*
X0560956Y0426507D01*
X0561706Y0427258D01*
X0563208Y0427258D01*
X0563958Y0426507D01*
X0563958Y0423505D01*
X0565560Y0422754D02*
X0568562Y0422754D01*
X0565560Y0425756D01*
X0565560Y0426507D01*
X0566310Y0427258D01*
X0567812Y0427258D01*
X0568562Y0426507D01*
X0570164Y0426507D02*
X0573166Y0423505D01*
X0572416Y0422754D01*
X0570914Y0422754D01*
X0570164Y0423505D01*
X0570164Y0426507D01*
X0570914Y0427258D01*
X0572416Y0427258D01*
X0573166Y0426507D01*
X0573166Y0423505D01*
X0574768Y0422754D02*
X0577770Y0422754D01*
X0574768Y0425756D01*
X0574768Y0426507D01*
X0575518Y0427258D01*
X0577020Y0427258D01*
X0577770Y0426507D01*
X0579372Y0427258D02*
X0582374Y0422754D01*
X0583975Y0423505D02*
X0584726Y0422754D01*
X0586227Y0422754D01*
X0586978Y0423505D01*
X0586978Y0425006D02*
X0585477Y0425756D01*
X0584726Y0425756D01*
X0583975Y0425006D01*
X0583975Y0423505D01*
X0586978Y0425006D02*
X0586978Y0427258D01*
X0583975Y0427258D01*
X0588579Y0426507D02*
X0591582Y0423505D01*
X0590831Y0422754D01*
X0589330Y0422754D01*
X0588579Y0423505D01*
X0588579Y0426507D01*
X0589330Y0427258D01*
X0590831Y0427258D01*
X0591582Y0426507D01*
X0591582Y0423505D01*
X0593150Y0422754D02*
X0594651Y0424255D01*
X0594651Y0425756D01*
X0593150Y0427258D01*
X0600857Y0427258D02*
X0602358Y0426507D01*
X0603859Y0425006D01*
X0601607Y0425006D01*
X0600857Y0424255D01*
X0600857Y0423505D01*
X0601607Y0422754D01*
X0603108Y0422754D01*
X0603859Y0423505D01*
X0603859Y0425006D01*
X0605460Y0425006D02*
X0608463Y0425006D01*
X0606211Y0427258D01*
X0606211Y0422754D01*
X0610064Y0422754D02*
X0613067Y0427258D01*
X0614668Y0427258D02*
X0614668Y0422754D01*
X0613067Y0422754D02*
X0610064Y0427258D01*
X0614668Y0427258D02*
X0616170Y0425756D01*
X0617671Y0427258D01*
X0617671Y0422754D01*
X0619272Y0423505D02*
X0620023Y0422754D01*
X0621524Y0422754D01*
X0622275Y0423505D01*
X0621524Y0425006D02*
X0620023Y0425006D01*
X0619272Y0424255D01*
X0619272Y0423505D01*
X0621524Y0425006D02*
X0622275Y0425756D01*
X0622275Y0426507D01*
X0621524Y0427258D01*
X0620023Y0427258D01*
X0619272Y0426507D01*
X0619222Y0418256D02*
X0619973Y0417506D01*
X0619973Y0416005D01*
X0619222Y0415254D01*
X0617721Y0415254D01*
X0616970Y0416005D01*
X0616970Y0417506D01*
X0617721Y0418256D01*
X0619222Y0418256D01*
X0621574Y0418256D02*
X0623826Y0418256D01*
X0624577Y0417506D01*
X0623826Y0416755D01*
X0622325Y0416755D01*
X0621574Y0416005D01*
X0622325Y0415254D01*
X0624577Y0415254D01*
X0630749Y0415254D02*
X0631499Y0416005D01*
X0631499Y0419007D01*
X0630749Y0418256D02*
X0632250Y0418256D01*
X0633851Y0418256D02*
X0636103Y0418256D01*
X0636854Y0417506D01*
X0636854Y0416005D01*
X0636103Y0415254D01*
X0633851Y0415254D01*
X0638455Y0416755D02*
X0641458Y0416755D01*
X0641458Y0416005D02*
X0641458Y0417506D01*
X0640707Y0418256D01*
X0639206Y0418256D01*
X0638455Y0417506D01*
X0638455Y0416755D01*
X0639206Y0415254D02*
X0640707Y0415254D01*
X0641458Y0416005D01*
X0643026Y0414503D02*
X0643026Y0418256D01*
X0643026Y0419758D02*
X0643026Y0420508D01*
X0645361Y0422754D02*
X0648364Y0422754D01*
X0648364Y0423505D01*
X0645361Y0426507D01*
X0645361Y0427258D01*
X0648364Y0427258D01*
X0649965Y0427258D02*
X0652968Y0427258D01*
X0652968Y0422754D01*
X0649965Y0422754D01*
X0651466Y0425006D02*
X0652968Y0425006D01*
X0654569Y0427258D02*
X0657572Y0427258D01*
X0657572Y0422754D01*
X0654569Y0422754D01*
X0656070Y0425006D02*
X0657572Y0425006D01*
X0657572Y0419758D02*
X0655320Y0419758D01*
X0654569Y0419007D01*
X0654569Y0417506D01*
X0655320Y0416755D01*
X0657572Y0416755D01*
X0657572Y0415254D02*
X0657572Y0419758D01*
X0652968Y0418256D02*
X0652968Y0415254D01*
X0652968Y0416755D02*
X0651466Y0418256D01*
X0650716Y0418256D01*
X0649131Y0417506D02*
X0649131Y0416005D01*
X0648380Y0415254D01*
X0646879Y0415254D01*
X0646128Y0416005D01*
X0646128Y0417506D01*
X0646879Y0418256D01*
X0648380Y0418256D01*
X0649131Y0417506D01*
X0644527Y0413753D02*
X0643776Y0413753D01*
X0643026Y0414503D01*
X0639156Y0422754D02*
X0636904Y0422754D01*
X0636153Y0423505D01*
X0636153Y0426507D01*
X0636904Y0427258D01*
X0639156Y0427258D01*
X0639156Y0422754D01*
X0634552Y0422754D02*
X0633051Y0422754D01*
X0633801Y0422754D02*
X0633801Y0427258D01*
X0633051Y0427258D02*
X0634552Y0427258D01*
X0631483Y0427258D02*
X0629231Y0427258D01*
X0628480Y0426507D01*
X0628480Y0425756D01*
X0629231Y0425006D01*
X0631483Y0425006D01*
X0631483Y0422754D02*
X0631483Y0427258D01*
X0629231Y0425006D02*
X0628480Y0424255D01*
X0628480Y0423505D01*
X0629231Y0422754D01*
X0631483Y0422754D01*
X0615369Y0418256D02*
X0615369Y0416005D01*
X0614618Y0415254D01*
X0612366Y0415254D01*
X0612366Y0418256D01*
X0610765Y0418256D02*
X0610765Y0415254D01*
X0610765Y0416755D02*
X0609264Y0418256D01*
X0608513Y0418256D01*
X0606928Y0417506D02*
X0606928Y0416005D01*
X0606178Y0415254D01*
X0603926Y0415254D01*
X0602324Y0416005D02*
X0602324Y0417506D01*
X0601574Y0418256D01*
X0600073Y0418256D01*
X0599322Y0417506D01*
X0599322Y0416755D01*
X0602324Y0416755D01*
X0602324Y0416005D02*
X0601574Y0415254D01*
X0600073Y0415254D01*
X0603926Y0418256D02*
X0606178Y0418256D01*
X0606928Y0417506D01*
X0593117Y0417506D02*
X0593117Y0416005D01*
X0592366Y0415254D01*
X0590114Y0415254D01*
X0588513Y0416005D02*
X0587762Y0415254D01*
X0586261Y0415254D01*
X0585510Y0416005D01*
X0585510Y0417506D01*
X0586261Y0418256D01*
X0587762Y0418256D01*
X0588513Y0417506D01*
X0588513Y0416005D01*
X0590114Y0418256D02*
X0592366Y0418256D01*
X0593117Y0417506D01*
X0583909Y0417506D02*
X0583909Y0416005D01*
X0583158Y0415254D01*
X0580906Y0415254D01*
X0580906Y0419758D01*
X0580906Y0418256D02*
X0583158Y0418256D01*
X0583909Y0417506D01*
X0579305Y0417506D02*
X0579305Y0416005D01*
X0578554Y0415254D01*
X0577053Y0415254D01*
X0576302Y0416755D02*
X0579305Y0416755D01*
X0579305Y0417506D02*
X0578554Y0418256D01*
X0577053Y0418256D01*
X0576302Y0417506D01*
X0576302Y0416755D01*
X0574701Y0416005D02*
X0574701Y0415254D01*
X0573950Y0415254D01*
X0573950Y0416005D01*
X0574701Y0416005D01*
X0574701Y0417506D02*
X0574701Y0418256D01*
X0573950Y0418256D01*
X0573950Y0417506D01*
X0574701Y0417506D01*
X0567795Y0417506D02*
X0567795Y0416005D01*
X0567044Y0415254D01*
X0564792Y0415254D01*
X0564792Y0414503D02*
X0564792Y0418256D01*
X0567044Y0418256D01*
X0567795Y0417506D01*
X0566294Y0413753D02*
X0565543Y0413753D01*
X0564792Y0414503D01*
X0563191Y0415254D02*
X0561690Y0415254D01*
X0562440Y0415254D02*
X0562440Y0418256D01*
X0563191Y0418256D01*
X0562440Y0419758D02*
X0562440Y0420508D01*
M02*
