G75*
%MOIN*%
%OFA0B0*%
%FSLAX25Y25*%
%IPPOS*%
%LPD*%
%AMOC8*
5,1,8,0,0,1.08239X$1,22.5*
%
%ADD10C,0.13198*%
%ADD11OC8,0.06506*%
%ADD12R,0.06506X0.06506*%
%ADD13OC8,0.08277*%
%ADD14C,0.08277*%
%ADD15C,0.12411*%
%ADD16C,0.00500*%
%ADD17C,0.22254*%
D10*
X0137995Y0087673D03*
X0137995Y0418382D03*
D11*
X0565188Y0171770D03*
X0575188Y0171770D03*
X0585188Y0171770D03*
X0595188Y0171770D03*
X0605188Y0171770D03*
X0615188Y0171770D03*
X0439333Y0115232D03*
X0429333Y0115232D03*
X0419333Y0115232D03*
X0409333Y0115232D03*
X0399333Y0115232D03*
X0389333Y0115232D03*
X0379333Y0115232D03*
X0369333Y0115232D03*
X0359333Y0115232D03*
X0349333Y0115232D03*
X0339333Y0115232D03*
X0329333Y0115232D03*
X0319333Y0115232D03*
X0309333Y0115232D03*
X0319333Y0105232D03*
X0329333Y0105232D03*
X0339333Y0105232D03*
X0349333Y0105232D03*
X0359333Y0105232D03*
X0369333Y0105232D03*
X0379333Y0105232D03*
X0389333Y0105232D03*
X0399333Y0105232D03*
X0409333Y0105232D03*
X0419333Y0105232D03*
X0429333Y0105232D03*
X0439333Y0105232D03*
D12*
X0309333Y0105232D03*
D13*
X0176774Y0248441D03*
X0176774Y0374425D03*
D14*
X0176774Y0359425D03*
X0176774Y0344425D03*
X0176774Y0329425D03*
X0176774Y0314425D03*
X0176774Y0299425D03*
X0176774Y0284425D03*
X0176774Y0269425D03*
X0126774Y0269425D03*
X0126774Y0284425D03*
X0126774Y0299425D03*
X0126774Y0314425D03*
X0126774Y0329425D03*
X0126774Y0344425D03*
X0126774Y0359425D03*
X0126774Y0374425D03*
X0126774Y0248441D03*
X0126774Y0233441D03*
X0126774Y0218441D03*
X0126774Y0203441D03*
X0126774Y0188441D03*
X0126774Y0173441D03*
X0126774Y0158441D03*
X0126774Y0143441D03*
X0176774Y0143441D03*
X0176774Y0158441D03*
X0176774Y0173441D03*
X0176774Y0188441D03*
X0176774Y0203441D03*
X0176774Y0218441D03*
X0176774Y0233441D03*
X0302044Y0164152D03*
X0302044Y0134388D03*
D15*
X0242516Y0134388D03*
X0222674Y0134388D03*
X0202831Y0134388D03*
X0202831Y0164152D03*
X0222674Y0164152D03*
X0242516Y0164152D03*
D16*
X0159390Y0423526D02*
X0158548Y0423300D01*
X0157680Y0423224D01*
X0156812Y0423300D01*
X0155970Y0423526D01*
X0155180Y0423894D01*
X0154466Y0424394D01*
X0153850Y0425010D01*
X0153350Y0425724D01*
X0152981Y0426514D01*
X0152756Y0427356D01*
X0152680Y0428224D01*
X0152756Y0429093D01*
X0152981Y0429935D01*
X0153350Y0430724D01*
X0153850Y0431438D01*
X0154466Y0432055D01*
X0155180Y0432555D01*
X0155970Y0432923D01*
X0156812Y0433148D01*
X0157680Y0433224D01*
X0158548Y0433148D01*
X0159390Y0432923D01*
X0160180Y0432555D01*
X0160894Y0432055D01*
X0161510Y0431438D01*
X0162010Y0430724D01*
X0162378Y0429935D01*
X0162604Y0429093D01*
X0162680Y0428224D01*
X0162604Y0427356D01*
X0162378Y0426514D01*
X0162010Y0425724D01*
X0161510Y0425010D01*
X0160894Y0424394D01*
X0160180Y0423894D01*
X0159390Y0423526D01*
X0159115Y0423452D02*
X0156245Y0423452D01*
X0155099Y0423951D02*
X0160261Y0423951D01*
X0160949Y0424449D02*
X0154411Y0424449D01*
X0153912Y0424948D02*
X0161447Y0424948D01*
X0161815Y0425446D02*
X0153544Y0425446D01*
X0153247Y0425945D02*
X0162113Y0425945D01*
X0162345Y0426443D02*
X0153014Y0426443D01*
X0152867Y0426942D02*
X0162493Y0426942D01*
X0162611Y0427440D02*
X0152748Y0427440D01*
X0152705Y0427939D02*
X0162655Y0427939D01*
X0162661Y0428437D02*
X0152698Y0428437D01*
X0152742Y0428936D02*
X0162618Y0428936D01*
X0162512Y0429434D02*
X0152847Y0429434D01*
X0152981Y0429933D02*
X0162379Y0429933D01*
X0162147Y0430431D02*
X0153213Y0430431D01*
X0153494Y0430930D02*
X0161866Y0430930D01*
X0161517Y0431428D02*
X0153843Y0431428D01*
X0154338Y0431927D02*
X0161021Y0431927D01*
X0160364Y0432426D02*
X0154995Y0432426D01*
X0155974Y0432924D02*
X0159386Y0432924D01*
X0653850Y0081045D02*
X0654466Y0081661D01*
X0655180Y0082161D01*
X0655970Y0082529D01*
X0656812Y0082755D01*
X0657680Y0082831D01*
X0658548Y0082755D01*
X0659390Y0082529D01*
X0660180Y0082161D01*
X0660894Y0081661D01*
X0661510Y0081045D01*
X0662010Y0080331D01*
X0662378Y0079541D01*
X0662604Y0078699D01*
X0662680Y0077831D01*
X0662604Y0076962D01*
X0662378Y0076121D01*
X0662010Y0075331D01*
X0661510Y0074617D01*
X0660894Y0074000D01*
X0660180Y0073501D01*
X0659390Y0073132D01*
X0658548Y0072907D01*
X0657680Y0072831D01*
X0656812Y0072907D01*
X0655970Y0073132D01*
X0655180Y0073501D01*
X0654466Y0074000D01*
X0653850Y0074617D01*
X0653350Y0075331D01*
X0652981Y0076121D01*
X0652756Y0076962D01*
X0652680Y0077831D01*
X0652756Y0078699D01*
X0652981Y0079541D01*
X0653350Y0080331D01*
X0653850Y0081045D01*
X0653801Y0080975D02*
X0661559Y0080975D01*
X0661908Y0080477D02*
X0653452Y0080477D01*
X0653185Y0079978D02*
X0662174Y0079978D01*
X0662395Y0079479D02*
X0652965Y0079479D01*
X0652831Y0078981D02*
X0662528Y0078981D01*
X0662623Y0078482D02*
X0652737Y0078482D01*
X0652693Y0077984D02*
X0662666Y0077984D01*
X0662650Y0077485D02*
X0652710Y0077485D01*
X0652754Y0076987D02*
X0662606Y0076987D01*
X0662477Y0076488D02*
X0652883Y0076488D01*
X0653042Y0075990D02*
X0662317Y0075990D01*
X0662085Y0075491D02*
X0653275Y0075491D01*
X0653586Y0074993D02*
X0661773Y0074993D01*
X0661388Y0074494D02*
X0653972Y0074494D01*
X0654472Y0073996D02*
X0660887Y0073996D01*
X0660173Y0073497D02*
X0655187Y0073497D01*
X0656468Y0072999D02*
X0658892Y0072999D01*
X0661081Y0081474D02*
X0654278Y0081474D01*
X0654910Y0081972D02*
X0660449Y0081972D01*
X0659516Y0082471D02*
X0655844Y0082471D01*
D17*
X0137995Y0087673D03*
X0137995Y0418382D03*
M02*
