%
M48
M72
T01C0.01181
T02C0.01575
T03C0.03150
T04C0.03937
T05C0.04331
T06C0.05118
T07C0.12598
%
T01
X334738Y99420
X392038Y94970
T02
X401688Y120770
X398938Y124020
X388688Y132520
X388688Y140270
X382438Y157770
X375938Y165520
X365438Y154270
X349688Y154520
X352438Y135020
X358438Y126270
X344938Y126020
X328188Y134520
X327688Y174770
X348188Y179770
X355438Y194770
X363188Y194770
X370438Y194770
X378188Y194770
X388688Y189770
X366188Y179770
X403938Y156270
X427438Y152270
X427438Y146270
X423438Y137520
X419438Y126520
X437938Y126520
X446188Y117020
X450688Y104770
X456988Y99420
X470438Y112770
X478688Y110770
X478938Y106020
X482438Y122770
X493438Y125520
X496188Y117770
X510938Y126270
X516688Y129520
X522438Y126020
X528938Y124020
X545438Y124520
X555938Y130520
X560188Y132270
X571188Y126020
X575488Y126420
X579738Y126620
X581938Y120770
X586188Y120770
X589938Y118770
X591188Y107270
X584438Y107270
X582438Y103270
X574688Y106270
X571938Y103270
X578188Y118520
X576688Y132370
X581688Y137020
X584188Y140520
X588438Y140770
X585188Y134520
X579438Y140770
X581438Y152020
X584438Y155020
X588688Y155020
X592438Y152520
X598688Y158020
X593438Y161020
X602938Y151020
X607188Y152770
X608938Y143020
X618688Y143020
X625438Y134520
X618688Y132770
X611938Y133520
X605938Y133520
X593438Y133520
X570188Y151770
X560438Y140020
X548688Y145770
X548688Y148770
X553688Y151520
X543438Y140020
X528938Y140770
X523188Y146020
X528938Y150020
X529188Y161270
X532188Y164270
X526188Y164520
X521688Y163520
X510438Y165020
X509688Y160270
X507938Y145770
X507188Y137770
X496938Y135270
X488688Y138020
X480938Y134520
X476438Y134270
X462188Y124770
X471688Y123020
X474188Y148520
X484938Y160270
X480438Y165020
X485188Y169520
X474188Y181270
X450688Y190270
X444938Y193520
X438188Y193520
X429688Y194770
X412688Y180520
X447438Y165520
X447188Y157520
X508438Y193520
X505188Y197020
X515438Y194770
X522188Y193270
X529188Y187520
X524938Y185770
X520688Y184020
X532438Y200520
X536438Y202270
X540438Y204020
X544688Y204270
X543438Y194270
X547438Y192270
X563188Y200270
X571188Y200270
X585688Y190270
X592688Y200270
X600688Y190270
X607188Y198770
X612688Y197770
X628188Y194770
X628188Y189270
X630438Y182770
X618688Y154770
X623438Y125020
X627938Y125020
X632438Y125020
X649438Y114270
X652188Y117520
X654438Y121270
X660188Y126770
X657438Y130270
X646938Y110520
X618688Y107270
X613188Y94270
X608938Y94270
X605438Y91270
X601688Y89270
X596438Y86020
X547938Y117770
X510938Y84270
X533188Y81270
X570188Y165020
X593688Y211020
X623688Y216520
X631688Y222770
X636688Y226770
X636688Y234520
X644188Y211020
X644188Y261020
X636688Y267770
X636688Y280270
X644188Y300020
X636688Y313520
X636688Y325520
X644188Y346020
X636688Y359020
X636688Y371020
X593688Y346020
X561688Y358770
X561688Y371270
X518688Y346020
X486688Y358770
X486688Y371270
X443688Y346020
X411688Y358770
X411688Y371270
X388688Y398520
X378188Y403020
X395688Y407520
X401688Y428770
X397688Y430520
X393438Y432270
X389438Y434020
X421438Y415020
X425188Y421020
X432938Y421020
X440188Y421020
X447938Y421020
X460938Y416270
X463938Y419770
X464438Y412520
X479688Y423270
X500188Y421020
X507938Y421020
X515188Y421020
X522938Y422520
X570688Y415770
X575188Y421020
X582938Y421020
X590188Y421020
X597938Y421020
X606688Y419270
X613938Y416270
X614188Y412020
X629688Y419770
X561688Y325770
X561688Y313270
X593688Y300020
X561688Y280270
X561688Y272520
X554938Y247020
X561688Y234770
X561688Y224520
X534938Y243520
X518688Y261020
X486688Y272520
X480938Y271020
X476688Y267270
X486688Y280270
X518688Y300020
X486688Y313270
X486688Y325770
X443688Y300020
X411688Y313270
X406688Y314020
X411688Y325770
X384938Y305270
X368688Y300020
X336688Y315520
X336688Y325770
X330188Y339020
X309938Y333770
X293688Y346020
X281688Y373020
X291188Y387020
X286188Y389270
X274938Y394770
X269438Y391520
X261688Y371270
X261688Y358770
X248438Y350020
X232688Y358020
X218688Y346020
X182188Y322020
X218688Y300020
X182938Y292270
X218688Y261020
X198188Y231770
X194188Y227770
X218688Y211020
X230188Y205770
X235438Y202270
X238938Y199770
X234688Y198020
X225688Y199270
X217688Y199770
X210688Y199520
X202688Y199770
X254688Y196270
X277688Y202270
X288188Y194770
X292688Y199770
X303188Y194770
X293688Y211020
X261688Y224520
X261688Y235020
X293688Y261020
X261688Y272770
X261688Y280270
X293688Y300020
X261688Y315520
X261688Y325770
X336688Y358770
X336688Y371270
X368688Y346020
X297938Y393520
X301938Y406770
X306188Y405520
X312938Y405520
X320938Y405520
X225688Y391770
X212938Y400270
X217688Y404270
X200188Y400020
X336688Y280270
X336688Y272770
X368688Y261020
X336688Y234770
X336688Y224520
X368688Y211020
X411688Y224520
X411688Y234770
X443688Y211020
X486688Y224520
X486688Y234770
X518688Y211020
X593688Y261020
X443688Y261020
X411688Y272520
X411688Y280270
X324438Y84270
T03
X334845Y404602
X342719Y404602
X350593Y404602
X358467Y404602
X366341Y404602
X366341Y412476
X358467Y412476
X350593Y412476
X342719Y412476
X334845Y412476
X287601Y412476
X279727Y412476
X279727Y404602
X287601Y404602
X271853Y404602
X263979Y404602
X256105Y404602
X256105Y412476
X263979Y412476
X271853Y412476
T04
X565188Y171770
X575188Y171770
X585188Y171770
X595188Y171770
X605188Y171770
X615188Y171770
X439333Y115232
X429333Y115232
X419333Y115232
X409333Y115232
X399333Y115232
X389333Y115232
X379333Y115232
X369333Y115232
X359333Y115232
X349333Y115232
X339333Y115232
X329333Y115232
X319333Y115232
X309333Y115232
X309333Y105232
X319333Y105232
X329333Y105232
X339333Y105232
X349333Y105232
X359333Y105232
X369333Y105232
X379333Y105232
X389333Y105232
X399333Y105232
X409333Y105232
X419333Y105232
X429333Y105232
X439333Y105232
T05
X627488Y104170
T06
X302044Y134388
X302044Y164152
X242516Y164152
X222674Y164152
X202831Y164152
X202831Y134388
X222674Y134388
X242516Y134388
X166932Y143441
X166932Y158441
X166932Y173441
X166932Y188441
X166932Y203441
X166932Y218441
X166932Y233441
X166932Y248441
X166932Y269425
X166932Y284425
X166932Y299425
X166932Y314425
X166932Y329425
X166932Y344425
X166932Y359425
X166932Y374425
X116932Y374425
X116932Y359425
X116932Y344425
X116932Y329425
X116932Y314425
X116932Y299425
X116932Y284425
X116932Y269425
X116932Y248441
X116932Y233441
X116932Y218441
X116932Y203441
X116932Y188441
X116932Y173441
X116932Y158441
X116932Y143441
T07
X137995Y87673
X137995Y87673
X137995Y418382
X137995Y418382
M30
